<svg width="802" height="427" viewBox="0 0 802 427" fill="none" xmlns="http://www.w3.org/2000/svg">
<rect width="802" height="426.397" fill="#4D72CE"/>
<path d="M191.888 165.968V200H205.04C208.208 200 210.752 199.136 212.672 197.36C214.592 195.584 215.552 193.28 215.552 190.496C215.552 188.48 214.976 186.704 213.824 185.264C212.672 183.824 211.28 182.864 209.552 182.432C210.992 181.952 212.144 181.088 213.104 179.744C214.016 178.4 214.496 176.864 214.496 175.136C214.496 172.448 213.536 170.24 211.712 168.512C209.888 166.832 207.344 165.968 204.128 165.968H191.888ZM198.416 180.032V171.536H203.072C204.608 171.536 205.808 171.92 206.672 172.688C207.536 173.456 207.968 174.464 207.968 175.76C207.968 177.104 207.536 178.112 206.672 178.88C205.808 179.648 204.608 180.032 203.12 180.032H198.416ZM198.416 194.48V185.504H203.888C205.472 185.504 206.72 185.936 207.584 186.752C208.448 187.616 208.928 188.72 208.928 190.064C208.928 191.456 208.448 192.56 207.536 193.328C206.624 194.096 205.376 194.48 203.792 194.48H198.416ZM234.786 200H240.882C240.69 198.656 240.642 197.264 240.642 195.728V176.384H234.258V190.112C234.258 191.552 233.826 192.656 233.058 193.52C232.242 194.384 231.138 194.768 229.794 194.768C228.354 194.768 227.298 194.336 226.578 193.472C225.81 192.608 225.474 191.456 225.474 190.016V176.384H219.09V191.312C219.09 194 219.858 196.208 221.49 197.984C223.074 199.76 225.282 200.624 228.066 200.624C229.41 200.624 230.658 200.384 231.858 199.856C233.058 199.328 233.97 198.512 234.594 197.456C234.594 198.512 234.642 199.376 234.786 200ZM244.439 193.424C244.535 194.192 244.727 194.96 245.111 195.728C245.495 196.496 246.023 197.312 246.743 198.08C247.463 198.848 248.471 199.52 249.815 200C251.111 200.48 252.599 200.72 254.279 200.72C257.159 200.72 259.415 199.952 261.047 198.416C262.631 196.88 263.447 195.056 263.447 192.944C263.447 191.168 262.823 189.632 261.623 188.336C260.423 187.088 258.695 186.176 256.439 185.696L253.079 184.976C251.639 184.736 250.919 184.016 250.919 182.864C250.919 182.192 251.207 181.664 251.783 181.184C252.359 180.752 253.079 180.512 253.943 180.512C255.143 180.512 256.055 180.848 256.679 181.472C257.303 182.144 257.687 182.864 257.831 183.68L263.159 182.48C263.063 181.808 262.823 181.088 262.487 180.32C262.103 179.6 261.623 178.88 260.951 178.16C260.279 177.44 259.319 176.864 258.119 176.384C256.871 175.904 255.479 175.664 253.895 175.664C251.351 175.664 249.239 176.432 247.559 177.92C245.879 179.456 245.063 181.28 245.063 183.392C245.063 185.12 245.591 186.608 246.695 187.856C247.799 189.104 249.479 189.968 251.687 190.448L254.807 191.168C256.487 191.552 257.351 192.32 257.351 193.472C257.351 194.144 257.063 194.72 256.535 195.152C255.959 195.632 255.191 195.824 254.231 195.824C252.887 195.824 251.879 195.488 251.111 194.816C250.343 194.144 249.959 193.28 249.911 192.224L244.439 193.424ZM273.964 200V176.384H267.58V200H273.964ZM266.812 168.656C266.812 169.712 267.196 170.624 267.964 171.392C268.732 172.16 269.644 172.544 270.748 172.544C271.804 172.544 272.764 172.16 273.532 171.392C274.3 170.624 274.684 169.712 274.684 168.656C274.684 167.552 274.3 166.592 273.532 165.824C272.764 165.056 271.804 164.672 270.748 164.672C269.644 164.672 268.732 165.104 267.964 165.872C267.196 166.64 266.812 167.6 266.812 168.656ZM286.183 186.416C286.183 185.024 286.567 183.872 287.383 182.912C288.151 182 289.255 181.52 290.599 181.52C292.039 181.52 293.143 181.952 293.863 182.816C294.583 183.68 294.967 184.832 294.967 186.224V200H301.351V185.12C301.351 182.384 300.583 180.128 299.143 178.4C297.703 176.672 295.591 175.76 292.807 175.76C291.415 175.76 290.119 176.096 288.871 176.672C287.623 177.296 286.663 178.16 285.991 179.312V176.384H279.799V200H286.183V186.416ZM311.486 185.504C311.534 184.352 312.062 183.248 313.022 182.288C313.982 181.328 315.23 180.848 316.766 180.848C318.446 180.848 319.742 181.328 320.606 182.192C321.47 183.104 321.95 184.208 322.046 185.504H311.486ZM322.67 191.648C321.806 194.048 319.982 195.248 317.294 195.248C315.662 195.248 314.318 194.768 313.166 193.712C312.014 192.704 311.39 191.408 311.342 189.872H328.238L328.286 189.536C328.286 189.344 328.286 189.104 328.286 188.768C328.286 188.48 328.334 188.192 328.334 187.904C328.334 184.112 327.278 181.136 325.214 178.928C323.15 176.768 320.318 175.664 316.67 175.664C313.502 175.664 310.814 176.864 308.51 179.168C306.206 181.472 305.054 184.448 305.054 188.096C305.054 191.936 306.206 195.008 308.606 197.312C310.958 199.616 313.838 200.72 317.246 200.72C320.03 200.72 322.334 200.048 324.206 198.608C326.078 197.216 327.326 195.44 327.998 193.232L322.67 191.648ZM330.345 193.424C330.441 194.192 330.633 194.96 331.017 195.728C331.401 196.496 331.929 197.312 332.649 198.08C333.369 198.848 334.377 199.52 335.721 200C337.017 200.48 338.505 200.72 340.185 200.72C343.065 200.72 345.321 199.952 346.953 198.416C348.537 196.88 349.353 195.056 349.353 192.944C349.353 191.168 348.729 189.632 347.529 188.336C346.329 187.088 344.601 186.176 342.345 185.696L338.985 184.976C337.545 184.736 336.825 184.016 336.825 182.864C336.825 182.192 337.113 181.664 337.689 181.184C338.265 180.752 338.985 180.512 339.849 180.512C341.049 180.512 341.961 180.848 342.585 181.472C343.209 182.144 343.593 182.864 343.737 183.68L349.065 182.48C348.969 181.808 348.729 181.088 348.393 180.32C348.009 179.6 347.529 178.88 346.857 178.16C346.185 177.44 345.225 176.864 344.025 176.384C342.777 175.904 341.385 175.664 339.801 175.664C337.257 175.664 335.145 176.432 333.465 177.92C331.785 179.456 330.969 181.28 330.969 183.392C330.969 185.12 331.497 186.608 332.601 187.856C333.705 189.104 335.385 189.968 337.593 190.448L340.713 191.168C342.393 191.552 343.257 192.32 343.257 193.472C343.257 194.144 342.969 194.72 342.441 195.152C341.865 195.632 341.097 195.824 340.137 195.824C338.793 195.824 337.785 195.488 337.017 194.816C336.249 194.144 335.865 193.28 335.817 192.224L330.345 193.424ZM351.47 193.424C351.566 194.192 351.758 194.96 352.142 195.728C352.526 196.496 353.054 197.312 353.774 198.08C354.494 198.848 355.502 199.52 356.846 200C358.142 200.48 359.63 200.72 361.31 200.72C364.19 200.72 366.446 199.952 368.078 198.416C369.662 196.88 370.478 195.056 370.478 192.944C370.478 191.168 369.854 189.632 368.654 188.336C367.454 187.088 365.726 186.176 363.47 185.696L360.11 184.976C358.67 184.736 357.95 184.016 357.95 182.864C357.95 182.192 358.238 181.664 358.814 181.184C359.39 180.752 360.11 180.512 360.974 180.512C362.174 180.512 363.086 180.848 363.71 181.472C364.334 182.144 364.718 182.864 364.862 183.68L370.19 182.48C370.094 181.808 369.854 181.088 369.518 180.32C369.134 179.6 368.654 178.88 367.982 178.16C367.31 177.44 366.35 176.864 365.15 176.384C363.902 175.904 362.51 175.664 360.926 175.664C358.382 175.664 356.27 176.432 354.59 177.92C352.91 179.456 352.094 181.28 352.094 183.392C352.094 185.12 352.622 186.608 353.726 187.856C354.83 189.104 356.51 189.968 358.718 190.448L361.838 191.168C363.518 191.552 364.382 192.32 364.382 193.472C364.382 194.144 364.094 194.72 363.566 195.152C362.99 195.632 362.222 195.824 361.262 195.824C359.918 195.824 358.91 195.488 358.142 194.816C357.374 194.144 356.99 193.28 356.942 192.224L351.47 193.424ZM393.343 169.328H387.583V172.64C387.583 173.792 387.247 174.704 386.623 175.376C385.999 176.048 385.087 176.384 383.935 176.384H382.735V182.048H387.007V193.04C387.007 195.344 387.679 197.12 389.023 198.416C390.367 199.712 392.191 200.336 394.495 200.336C395.935 200.336 397.135 200.144 398.095 199.76V194.48C397.615 194.624 396.991 194.672 396.127 194.672C395.167 194.672 394.447 194.48 394.015 194.048C393.535 193.664 393.343 192.944 393.343 191.936V182.048H398.095V176.384H393.343V169.328ZM416.589 176.288C415.917 176.24 415.437 176.192 415.101 176.192C411.741 176.192 409.533 177.44 408.381 179.888V176.384H402.189V200H408.573V189.2C408.573 186.848 409.101 185.168 410.253 184.112C411.357 183.056 412.845 182.528 414.669 182.528C415.293 182.528 415.917 182.624 416.589 182.72V176.288ZM418.781 193.568C418.781 195.488 419.501 197.168 420.989 198.56C422.477 200 424.445 200.672 426.893 200.672C430.013 200.672 432.317 199.52 433.853 197.168C433.853 198.368 433.901 199.328 434.093 200H439.949C439.757 198.944 439.661 197.696 439.661 196.256V184.64C439.661 182.048 438.797 179.888 437.165 178.208C435.485 176.528 432.893 175.664 429.389 175.664C426.413 175.664 424.061 176.48 422.285 178.016C420.461 179.6 419.453 181.424 419.261 183.44L424.925 184.64C425.021 183.584 425.453 182.672 426.221 181.904C426.989 181.184 428.093 180.8 429.437 180.8C430.685 180.8 431.693 181.088 432.365 181.664C433.037 182.24 433.421 183.008 433.421 183.872C433.421 184.832 432.797 185.408 431.645 185.552L425.837 186.416C423.725 186.752 422.045 187.52 420.749 188.72C419.405 189.968 418.781 191.552 418.781 193.568ZM428.237 195.92C427.277 195.92 426.509 195.68 425.981 195.152C425.405 194.624 425.165 193.952 425.165 193.184C425.165 191.504 426.125 190.496 428.093 190.208L433.421 189.392V190.448C433.421 192.416 432.893 193.808 431.933 194.672C430.973 195.536 429.725 195.92 428.237 195.92ZM451.48 186.416C451.48 185.024 451.864 183.872 452.68 182.912C453.448 182 454.552 181.52 455.896 181.52C457.336 181.52 458.44 181.952 459.16 182.816C459.88 183.68 460.264 184.832 460.264 186.224V200H466.648V185.12C466.648 182.384 465.88 180.128 464.44 178.4C463 176.672 460.888 175.76 458.104 175.76C456.712 175.76 455.416 176.096 454.168 176.672C452.92 177.296 451.96 178.16 451.288 179.312V176.384H445.096V200H451.48V186.416ZM470.111 193.424C470.207 194.192 470.399 194.96 470.783 195.728C471.167 196.496 471.695 197.312 472.415 198.08C473.135 198.848 474.143 199.52 475.487 200C476.783 200.48 478.271 200.72 479.951 200.72C482.831 200.72 485.087 199.952 486.719 198.416C488.303 196.88 489.119 195.056 489.119 192.944C489.119 191.168 488.495 189.632 487.295 188.336C486.095 187.088 484.367 186.176 482.111 185.696L478.751 184.976C477.311 184.736 476.591 184.016 476.591 182.864C476.591 182.192 476.879 181.664 477.455 181.184C478.031 180.752 478.751 180.512 479.615 180.512C480.815 180.512 481.727 180.848 482.351 181.472C482.975 182.144 483.359 182.864 483.503 183.68L488.831 182.48C488.735 181.808 488.495 181.088 488.159 180.32C487.775 179.6 487.295 178.88 486.623 178.16C485.951 177.44 484.991 176.864 483.791 176.384C482.543 175.904 481.151 175.664 479.567 175.664C477.023 175.664 474.911 176.432 473.231 177.92C471.551 179.456 470.735 181.28 470.735 183.392C470.735 185.12 471.263 186.608 472.367 187.856C473.471 189.104 475.151 189.968 477.359 190.448L480.479 191.168C482.159 191.552 483.023 192.32 483.023 193.472C483.023 194.144 482.735 194.72 482.207 195.152C481.631 195.632 480.863 195.824 479.903 195.824C478.559 195.824 477.551 195.488 476.783 194.816C476.015 194.144 475.631 193.28 475.583 192.224L470.111 193.424ZM504.196 170.528C504.964 170.528 505.636 170.624 506.212 170.768V165.392C505.492 165.104 504.436 164.912 503.044 164.912C500.404 164.912 498.292 165.728 496.756 167.312C495.22 168.944 494.452 171.056 494.452 173.696V176.384H490.516V181.856H494.452V200H500.884V181.856H506.212V176.384H500.884V173.792C500.884 172.64 501.172 171.776 501.844 171.296C502.516 170.816 503.284 170.528 504.196 170.528ZM519.454 194.912C517.773 194.912 516.334 194.336 515.182 193.136C514.03 191.984 513.454 190.304 513.454 188.192C513.454 186.08 514.03 184.448 515.182 183.248C516.334 182.096 517.773 181.472 519.454 181.472C521.086 181.472 522.526 182.096 523.678 183.248C524.83 184.448 525.454 186.08 525.454 188.192C525.454 190.304 524.83 191.984 523.678 193.136C522.526 194.336 521.086 194.912 519.454 194.912ZM519.454 175.664C515.902 175.664 512.926 176.864 510.574 179.216C508.222 181.616 507.07 184.592 507.07 188.192C507.07 191.84 508.222 194.816 510.574 197.168C512.926 199.568 515.902 200.72 519.454 200.72C523.006 200.72 525.934 199.568 528.286 197.168C530.638 194.816 531.838 191.84 531.838 188.192C531.838 184.592 530.638 181.616 528.286 179.216C525.934 176.864 523.006 175.664 519.454 175.664ZM550.277 176.288C549.605 176.24 549.125 176.192 548.789 176.192C545.429 176.192 543.221 177.44 542.069 179.888V176.384H535.877V200H542.261V189.2C542.261 186.848 542.789 185.168 543.941 184.112C545.045 183.056 546.533 182.528 548.357 182.528C548.981 182.528 549.605 182.624 550.277 182.72V176.288ZM560.151 200V186.176C560.151 184.832 560.535 183.728 561.351 182.864C562.119 182 563.223 181.52 564.567 181.52C565.911 181.52 566.967 181.952 567.687 182.768C568.359 183.584 568.743 184.64 568.743 185.984V200H575.079V186.176C575.079 184.88 575.463 183.776 576.279 182.864C577.047 182 578.103 181.52 579.447 181.52C580.839 181.52 581.895 181.952 582.567 182.768C583.239 183.584 583.623 184.64 583.623 185.984V200H589.815V184.688C589.815 181.712 588.951 179.504 587.319 177.968C585.687 176.48 583.671 175.712 581.271 175.712C577.959 175.712 575.463 177.056 573.783 179.648C572.535 177.056 570.183 175.712 566.775 175.712C565.383 175.712 564.039 176.048 562.743 176.672C561.399 177.344 560.439 178.208 559.863 179.264V176.384H553.767V200H560.151ZM593.267 193.424C593.363 194.192 593.555 194.96 593.939 195.728C594.323 196.496 594.851 197.312 595.571 198.08C596.291 198.848 597.299 199.52 598.643 200C599.939 200.48 601.427 200.72 603.107 200.72C605.987 200.72 608.243 199.952 609.875 198.416C611.459 196.88 612.275 195.056 612.275 192.944C612.275 191.168 611.651 189.632 610.451 188.336C609.251 187.088 607.523 186.176 605.267 185.696L601.907 184.976C600.467 184.736 599.747 184.016 599.747 182.864C599.747 182.192 600.035 181.664 600.611 181.184C601.187 180.752 601.907 180.512 602.771 180.512C603.971 180.512 604.883 180.848 605.507 181.472C606.131 182.144 606.515 182.864 606.659 183.68L611.987 182.48C611.891 181.808 611.651 181.088 611.315 180.32C610.931 179.6 610.451 178.88 609.779 178.16C609.107 177.44 608.147 176.864 606.947 176.384C605.699 175.904 604.307 175.664 602.723 175.664C600.179 175.664 598.067 176.432 596.387 177.92C594.707 179.456 593.891 181.28 593.891 183.392C593.891 185.12 594.419 186.608 595.523 187.856C596.627 189.104 598.307 189.968 600.515 190.448L603.635 191.168C605.315 191.552 606.179 192.32 606.179 193.472C606.179 194.144 605.891 194.72 605.363 195.152C604.787 195.632 604.019 195.824 603.059 195.824C601.715 195.824 600.707 195.488 599.939 194.816C599.171 194.144 598.787 193.28 598.739 192.224L593.267 193.424ZM204.8 237.384L199.664 252.552L195.296 237.384H188.576L196.112 261H202.592L208.016 244.872L213.536 261H219.92L227.312 237.384H220.976L216.608 252.6L211.52 237.384H204.8ZM236.683 247.128C236.731 245.784 237.163 244.68 237.931 243.816C238.699 242.952 239.755 242.52 241.099 242.52C242.539 242.52 243.643 242.952 244.363 243.816C245.083 244.68 245.467 245.832 245.467 247.224V261H251.851V246.12C251.851 243.384 251.083 241.128 249.595 239.4C248.107 237.672 245.947 236.76 243.067 236.76C240.235 236.76 238.123 237.624 236.683 239.352V226.248H230.299V261H236.683V247.128ZM261.986 246.504C262.034 245.352 262.562 244.248 263.522 243.288C264.482 242.328 265.73 241.848 267.266 241.848C268.946 241.848 270.242 242.328 271.106 243.192C271.97 244.104 272.45 245.208 272.546 246.504H261.986ZM273.17 252.648C272.306 255.048 270.482 256.248 267.794 256.248C266.162 256.248 264.818 255.768 263.666 254.712C262.514 253.704 261.89 252.408 261.842 250.872H278.738L278.786 250.536C278.786 250.344 278.786 250.104 278.786 249.768C278.786 249.48 278.834 249.192 278.834 248.904C278.834 245.112 277.778 242.136 275.714 239.928C273.65 237.768 270.818 236.664 267.17 236.664C264.002 236.664 261.314 237.864 259.01 240.168C256.706 242.472 255.554 245.448 255.554 249.096C255.554 252.936 256.706 256.008 259.106 258.312C261.458 260.616 264.338 261.72 267.746 261.72C270.53 261.72 272.834 261.048 274.706 259.608C276.578 258.216 277.826 256.44 278.498 254.232L273.17 252.648ZM289.245 247.416C289.245 246.024 289.629 244.872 290.445 243.912C291.213 243 292.317 242.52 293.661 242.52C295.101 242.52 296.205 242.952 296.925 243.816C297.645 244.68 298.029 245.832 298.029 247.224V261H304.413V246.12C304.413 243.384 303.645 241.128 302.205 239.4C300.765 237.672 298.653 236.76 295.869 236.76C294.477 236.76 293.181 237.096 291.933 237.672C290.685 238.296 289.725 239.16 289.053 240.312V237.384H282.861V261H289.245V247.416ZM318.736 254.424C318.832 255.192 319.024 255.96 319.408 256.728C319.792 257.496 320.32 258.312 321.04 259.08C321.76 259.848 322.768 260.52 324.112 261C325.408 261.48 326.896 261.72 328.576 261.72C331.456 261.72 333.712 260.952 335.344 259.416C336.928 257.88 337.744 256.056 337.744 253.944C337.744 252.168 337.12 250.632 335.92 249.336C334.72 248.088 332.992 247.176 330.736 246.696L327.376 245.976C325.936 245.736 325.216 245.016 325.216 243.864C325.216 243.192 325.504 242.664 326.08 242.184C326.656 241.752 327.376 241.512 328.24 241.512C329.44 241.512 330.352 241.848 330.976 242.472C331.6 243.144 331.984 243.864 332.128 244.68L337.456 243.48C337.36 242.808 337.12 242.088 336.784 241.32C336.4 240.6 335.92 239.88 335.248 239.16C334.576 238.44 333.616 237.864 332.416 237.384C331.168 236.904 329.776 236.664 328.192 236.664C325.648 236.664 323.536 237.432 321.856 238.92C320.176 240.456 319.36 242.28 319.36 244.392C319.36 246.12 319.888 247.608 320.992 248.856C322.096 250.104 323.776 250.968 325.984 251.448L329.104 252.168C330.784 252.552 331.648 253.32 331.648 254.472C331.648 255.144 331.36 255.72 330.832 256.152C330.256 256.632 329.488 256.824 328.528 256.824C327.184 256.824 326.176 256.488 325.408 255.816C324.64 255.144 324.256 254.28 324.208 253.224L318.736 254.424ZM346.439 246.504C346.487 245.352 347.015 244.248 347.975 243.288C348.935 242.328 350.183 241.848 351.719 241.848C353.399 241.848 354.695 242.328 355.559 243.192C356.423 244.104 356.903 245.208 356.999 246.504H346.439ZM357.623 252.648C356.759 255.048 354.935 256.248 352.247 256.248C350.615 256.248 349.271 255.768 348.119 254.712C346.967 253.704 346.343 252.408 346.295 250.872H363.191L363.239 250.536C363.239 250.344 363.239 250.104 363.239 249.768C363.239 249.48 363.287 249.192 363.287 248.904C363.287 245.112 362.231 242.136 360.167 239.928C358.103 237.768 355.271 236.664 351.623 236.664C348.455 236.664 345.767 237.864 343.463 240.168C341.159 242.472 340.007 245.448 340.007 249.096C340.007 252.936 341.159 256.008 343.559 258.312C345.911 260.616 348.791 261.72 352.199 261.72C354.983 261.72 357.287 261.048 359.159 259.608C361.031 258.216 362.279 256.44 362.951 254.232L357.623 252.648ZM373.698 261V226.248H367.314V261H373.698ZM385.917 261V226.248H379.533V261H385.917ZM396.408 246.504C396.456 245.352 396.984 244.248 397.944 243.288C398.904 242.328 400.152 241.848 401.688 241.848C403.368 241.848 404.664 242.328 405.528 243.192C406.392 244.104 406.872 245.208 406.968 246.504H396.408ZM407.592 252.648C406.728 255.048 404.904 256.248 402.216 256.248C400.584 256.248 399.24 255.768 398.088 254.712C396.936 253.704 396.312 252.408 396.264 250.872H413.16L413.208 250.536C413.208 250.344 413.208 250.104 413.208 249.768C413.208 249.48 413.256 249.192 413.256 248.904C413.256 245.112 412.2 242.136 410.136 239.928C408.072 237.768 405.24 236.664 401.592 236.664C398.424 236.664 395.736 237.864 393.432 240.168C391.128 242.472 389.976 245.448 389.976 249.096C389.976 252.936 391.128 256.008 393.528 258.312C395.88 260.616 398.76 261.72 402.168 261.72C404.952 261.72 407.256 261.048 409.128 259.608C411 258.216 412.248 256.44 412.92 254.232L407.592 252.648ZM431.683 237.288C431.011 237.24 430.531 237.192 430.195 237.192C426.835 237.192 424.627 238.44 423.475 240.888V237.384H417.283V261H423.667V250.2C423.667 247.848 424.195 246.168 425.347 245.112C426.451 244.056 427.939 243.528 429.763 243.528C430.387 243.528 431.011 243.624 431.683 243.72V237.288ZM433.298 254.424C433.394 255.192 433.586 255.96 433.97 256.728C434.354 257.496 434.882 258.312 435.602 259.08C436.322 259.848 437.33 260.52 438.674 261C439.97 261.48 441.458 261.72 443.138 261.72C446.018 261.72 448.274 260.952 449.906 259.416C451.49 257.88 452.306 256.056 452.306 253.944C452.306 252.168 451.682 250.632 450.482 249.336C449.282 248.088 447.554 247.176 445.298 246.696L441.938 245.976C440.498 245.736 439.778 245.016 439.778 243.864C439.778 243.192 440.066 242.664 440.642 242.184C441.218 241.752 441.938 241.512 442.802 241.512C444.002 241.512 444.914 241.848 445.538 242.472C446.162 243.144 446.546 243.864 446.69 244.68L452.018 243.48C451.922 242.808 451.682 242.088 451.346 241.32C450.962 240.6 450.482 239.88 449.81 239.16C449.138 238.44 448.178 237.864 446.978 237.384C445.73 236.904 444.338 236.664 442.754 236.664C440.21 236.664 438.098 237.432 436.418 238.92C434.738 240.456 433.922 242.28 433.922 244.392C433.922 246.12 434.45 247.608 435.554 248.856C436.658 250.104 438.338 250.968 440.546 251.448L443.666 252.168C445.346 252.552 446.21 253.32 446.21 254.472C446.21 255.144 445.922 255.72 445.394 256.152C444.818 256.632 444.05 256.824 443.09 256.824C441.746 256.824 440.738 256.488 439.97 255.816C439.202 255.144 438.818 254.28 438.77 253.224L433.298 254.424ZM465.859 254.568C465.859 256.488 466.579 258.168 468.067 259.56C469.555 261 471.523 261.672 473.971 261.672C477.091 261.672 479.395 260.52 480.931 258.168C480.931 259.368 480.979 260.328 481.171 261H487.027C486.835 259.944 486.739 258.696 486.739 257.256V245.64C486.739 243.048 485.875 240.888 484.243 239.208C482.563 237.528 479.971 236.664 476.467 236.664C473.491 236.664 471.139 237.48 469.363 239.016C467.539 240.6 466.531 242.424 466.339 244.44L472.003 245.64C472.099 244.584 472.531 243.672 473.299 242.904C474.067 242.184 475.171 241.8 476.515 241.8C477.763 241.8 478.771 242.088 479.443 242.664C480.115 243.24 480.499 244.008 480.499 244.872C480.499 245.832 479.875 246.408 478.723 246.552L472.915 247.416C470.803 247.752 469.123 248.52 467.827 249.72C466.483 250.968 465.859 252.552 465.859 254.568ZM475.315 256.92C474.355 256.92 473.587 256.68 473.059 256.152C472.483 255.624 472.243 254.952 472.243 254.184C472.243 252.504 473.203 251.496 475.171 251.208L480.499 250.392V251.448C480.499 253.416 479.971 254.808 479.011 255.672C478.051 256.536 476.803 256.92 475.315 256.92ZM506.574 237.288C505.902 237.24 505.422 237.192 505.086 237.192C501.726 237.192 499.518 238.44 498.366 240.888V237.384H492.174V261H498.558V250.2C498.558 247.848 499.086 246.168 500.238 245.112C501.342 244.056 502.83 243.528 504.654 243.528C505.278 243.528 505.902 243.624 506.574 243.72V237.288ZM514.486 246.504C514.534 245.352 515.062 244.248 516.022 243.288C516.982 242.328 518.23 241.848 519.766 241.848C521.446 241.848 522.742 242.328 523.606 243.192C524.47 244.104 524.95 245.208 525.046 246.504H514.486ZM525.67 252.648C524.806 255.048 522.982 256.248 520.294 256.248C518.662 256.248 517.318 255.768 516.166 254.712C515.014 253.704 514.39 252.408 514.342 250.872H531.238L531.286 250.536C531.286 250.344 531.286 250.104 531.286 249.768C531.286 249.48 531.334 249.192 531.334 248.904C531.334 245.112 530.278 242.136 528.214 239.928C526.15 237.768 523.318 236.664 519.67 236.664C516.502 236.664 513.814 237.864 511.51 240.168C509.206 242.472 508.054 245.448 508.054 249.096C508.054 252.936 509.206 256.008 511.606 258.312C513.958 260.616 516.838 261.72 520.246 261.72C523.03 261.72 525.334 261.048 527.206 259.608C529.078 258.216 530.326 256.44 530.998 254.232L525.67 252.648Z" fill="white"/>
<path d="M552.605 261V237.384H546.221V261H552.605ZM545.453 229.656C545.453 230.712 545.837 231.624 546.605 232.392C547.373 233.16 548.285 233.544 549.389 233.544C550.445 233.544 551.405 233.16 552.173 232.392C552.941 231.624 553.325 230.712 553.325 229.656C553.325 228.552 552.941 227.592 552.173 226.824C551.405 226.056 550.445 225.672 549.389 225.672C548.285 225.672 547.373 226.104 546.605 226.872C545.837 227.64 545.453 228.6 545.453 229.656ZM564.823 247.416C564.823 246.024 565.207 244.872 566.023 243.912C566.791 243 567.895 242.52 569.239 242.52C570.679 242.52 571.783 242.952 572.503 243.816C573.223 244.68 573.607 245.832 573.607 247.224V261H579.991V246.12C579.991 243.384 579.223 241.128 577.783 239.4C576.343 237.672 574.231 236.76 571.447 236.76C570.055 236.76 568.759 237.096 567.511 237.672C566.263 238.296 565.303 239.16 564.631 240.312V237.384H558.439V261H564.823V247.416ZM596.415 231.528C597.183 231.528 597.855 231.624 598.431 231.768V226.392C597.711 226.104 596.655 225.912 595.263 225.912C592.623 225.912 590.511 226.728 588.975 228.312C587.439 229.944 586.671 232.056 586.671 234.696V237.384H582.735V242.856H586.671V261H593.103V242.856H598.431V237.384H593.103V234.792C593.103 233.64 593.391 232.776 594.062 232.296C594.734 231.816 595.503 231.528 596.415 231.528ZM611.672 255.912C609.992 255.912 608.552 255.336 607.4 254.136C606.248 252.984 605.672 251.304 605.672 249.192C605.672 247.08 606.248 245.448 607.4 244.248C608.552 243.096 609.992 242.472 611.672 242.472C613.304 242.472 614.744 243.096 615.896 244.248C617.048 245.448 617.672 247.08 617.672 249.192C617.672 251.304 617.048 252.984 615.896 254.136C614.744 255.336 613.304 255.912 611.672 255.912ZM611.672 236.664C608.12 236.664 605.144 237.864 602.792 240.216C600.44 242.616 599.288 245.592 599.288 249.192C599.288 252.84 600.44 255.816 602.792 258.168C605.144 260.568 608.12 261.72 611.672 261.72C615.224 261.72 618.152 260.568 620.504 258.168C622.856 255.816 624.056 252.84 624.056 249.192C624.056 245.592 622.856 242.616 620.504 240.216C618.152 237.864 615.224 236.664 611.672 236.664ZM642.496 237.288C641.824 237.24 641.344 237.192 641.008 237.192C637.648 237.192 635.44 238.44 634.288 240.888V237.384H628.096V261H634.48V250.2C634.48 247.848 635.008 246.168 636.16 245.112C637.264 244.056 638.752 243.528 640.576 243.528C641.2 243.528 641.824 243.624 642.496 243.72V237.288ZM652.37 261V247.176C652.37 245.832 652.754 244.728 653.57 243.864C654.338 243 655.442 242.52 656.786 242.52C658.13 242.52 659.186 242.952 659.906 243.768C660.578 244.584 660.962 245.64 660.962 246.984V261H667.298V247.176C667.298 245.88 667.682 244.776 668.498 243.864C669.266 243 670.322 242.52 671.666 242.52C673.058 242.52 674.114 242.952 674.786 243.768C675.458 244.584 675.842 245.64 675.842 246.984V261H682.034V245.688C682.034 242.712 681.17 240.504 679.538 238.968C677.906 237.48 675.89 236.712 673.49 236.712C670.178 236.712 667.682 238.056 666.002 240.648C664.754 238.056 662.402 236.712 658.994 236.712C657.602 236.712 656.258 237.048 654.962 237.672C653.618 238.344 652.658 239.208 652.082 240.264V237.384H645.986V261H652.37ZM692.158 246.504C692.206 245.352 692.734 244.248 693.694 243.288C694.654 242.328 695.902 241.848 697.438 241.848C699.118 241.848 700.414 242.328 701.278 243.192C702.142 244.104 702.622 245.208 702.718 246.504H692.158ZM703.342 252.648C702.478 255.048 700.654 256.248 697.966 256.248C696.334 256.248 694.99 255.768 693.838 254.712C692.686 253.704 692.062 252.408 692.014 250.872H708.91L708.958 250.536C708.958 250.344 708.958 250.104 708.958 249.768C708.958 249.48 709.006 249.192 709.006 248.904C709.006 245.112 707.95 242.136 705.886 239.928C703.822 237.768 700.99 236.664 697.342 236.664C694.174 236.664 691.486 237.864 689.182 240.168C686.878 242.472 685.726 245.448 685.726 249.096C685.726 252.936 686.878 256.008 689.278 258.312C691.63 260.616 694.51 261.72 697.918 261.72C700.702 261.72 703.006 261.048 704.878 259.608C706.75 258.216 707.998 256.44 708.67 254.232L703.342 252.648ZM735.545 226.248H729.257V239.736C728.201 237.816 725.945 236.808 722.585 236.808C719.273 236.808 716.537 238.008 714.425 240.36C712.313 242.76 711.257 245.688 711.257 249.144C711.257 252.744 712.313 255.72 714.473 258.072C716.633 260.424 719.417 261.576 722.777 261.576C724.313 261.576 725.657 261.288 726.809 260.664C727.961 260.088 728.825 259.272 729.401 258.264C729.401 259.32 729.449 260.232 729.641 261H735.737C735.593 259.752 735.545 258.312 735.545 256.728V226.248ZM717.689 249.144C717.689 247.128 718.217 245.496 719.321 244.296C720.425 243.144 721.817 242.52 723.545 242.52C725.225 242.52 726.617 243.144 727.721 244.296C728.777 245.448 729.353 247.08 729.353 249.096C729.353 251.208 728.777 252.84 727.721 254.04C726.617 255.288 725.225 255.864 723.545 255.864C721.817 255.864 720.377 255.288 719.321 254.088C718.217 252.888 717.689 251.256 717.689 249.144Z" fill="#5DD8AD"/>
<g filter="url(#filter0_d)">
<rect x="62" y="166" width="100" height="100" rx="17.8325" fill="white"/>
<path d="M130.893 194.105H117.73C117.118 194.105 116.622 194.601 116.622 195.212V236.716C116.622 237.328 117.118 237.824 117.73 237.824H130.893C131.504 237.824 132 237.328 132 236.716V195.212C132 194.601 131.504 194.105 130.893 194.105Z" fill="#35CE99"/>
<path d="M106.77 212.995H93.6075C92.9958 212.995 92.5 213.491 92.5 214.103V236.716C92.5 237.328 92.9958 237.824 93.6075 237.824H106.77C107.382 237.824 107.878 237.328 107.878 236.716V214.103C107.878 213.491 107.382 212.995 106.77 212.995Z" fill="#8158C9"/>
</g>
<defs>
<filter id="filter0_d" x="30.8038" y="137.64" width="162.392" height="162.392" filterUnits="userSpaceOnUse" color-interpolation-filters="sRGB">
<feFlood flood-opacity="0" result="BackgroundImageFix"/>
<feColorMatrix in="SourceAlpha" type="matrix" values="0 0 0 0 0 0 0 0 0 0 0 0 0 0 0 0 0 0 127 0"/>
<feOffset dy="2.83601"/>
<feGaussianBlur stdDeviation="15.5981"/>
<feColorMatrix type="matrix" values="0 0 0 0 0 0 0 0 0 0 0 0 0 0 0 0 0 0 0.05 0"/>
<feBlend mode="normal" in2="BackgroundImageFix" result="effect1_dropShadow"/>
<feBlend mode="normal" in="SourceGraphic" in2="effect1_dropShadow" result="shape"/>
</filter>
</defs>
</svg>
