<svg width="1500" height="600" viewBox="0 0 1500 600" fill="none" xmlns="http://www.w3.org/2000/svg">
<g clip-path="url(#clip0)">
<rect width="1500" height="600" fill="url(#paint0_linear)"/>
<path d="M832.312 450C1219.25 450 1161.46 1.38283e-05 1603.67 0C1751.91 3.05176e-05 1870 1.38283e-05 1870 1.38283e-05V599L370 599C370 599 445.377 450 832.312 450Z" fill="white" fill-opacity="0.03"/>
<g opacity="0.1" clip-path="url(#clip1)">
<path d="M1445.34 454.485L1336.51 384.02C1327.49 378.18 1316.52 376.162 1306.02 378.41C1295.51 380.659 1286.32 386.989 1280.48 396.009L1210.02 504.836C1204.18 513.856 1202.16 524.826 1204.41 535.333C1206.66 545.841 1212.99 555.025 1222.01 560.865L1330.84 631.329C1339.86 637.169 1350.83 639.187 1361.33 636.939C1371.84 634.691 1381.02 628.36 1386.86 619.341L1457.33 510.513C1463.17 501.494 1465.19 490.523 1462.94 480.016C1460.69 469.509 1454.36 460.325 1445.34 454.485V454.485ZM1284.54 555.981C1284.02 556.781 1283.21 557.341 1282.28 557.541C1281.35 557.74 1280.37 557.561 1279.57 557.044L1243.77 533.861C1242.97 533.343 1242.41 532.53 1242.21 531.599C1242.01 530.668 1242.19 529.696 1242.71 528.897L1282.54 467.375C1283.06 466.576 1283.87 466.015 1284.8 465.816C1285.73 465.617 1286.71 465.796 1287.51 466.313L1323.32 489.5C1324.11 490.019 1324.67 490.832 1324.87 491.762C1325.07 492.692 1324.89 493.662 1324.37 494.46L1284.54 555.981ZM1350.17 598.48C1349.66 599.279 1348.84 599.84 1347.91 600.04C1346.98 600.239 1346.01 600.06 1345.21 599.543L1309.4 576.355C1308.6 575.837 1308.04 575.023 1307.85 574.094C1307.65 573.164 1307.83 572.194 1308.34 571.396L1381.45 458.487C1381.97 457.688 1382.78 457.127 1383.71 456.928C1384.64 456.729 1385.62 456.907 1386.42 457.425L1422.23 480.612C1423.02 481.131 1423.58 481.944 1423.78 482.874C1423.98 483.804 1423.8 484.774 1423.28 485.572L1350.17 598.48Z" fill="white"/>
</g>
<g opacity="0.1" clip-path="url(#clip2)">
<path d="M1169.78 236.554L1111.28 270.326C1106.43 273.125 1102.89 277.735 1101.45 283.143C1100 288.55 1100.75 294.312 1103.55 299.16L1137.33 357.655C1140.13 362.503 1144.74 366.041 1150.14 367.49C1155.55 368.939 1161.31 368.18 1166.16 365.381L1224.66 331.609C1229.5 328.81 1233.04 324.199 1234.49 318.792C1235.94 313.385 1235.18 307.623 1232.38 302.775L1198.61 244.28C1195.81 239.432 1191.2 235.894 1185.79 234.445C1180.38 232.996 1174.62 233.755 1169.78 236.554V236.554ZM1178.72 335.217C1178.97 335.646 1179.04 336.157 1178.91 336.636C1178.78 337.115 1178.47 337.523 1178.04 337.771L1158.79 348.883C1158.36 349.131 1157.85 349.198 1157.37 349.069C1156.9 348.941 1156.49 348.628 1156.24 348.198L1137.15 315.13C1136.9 314.7 1136.83 314.19 1136.96 313.711C1137.09 313.232 1137.4 312.823 1137.83 312.575L1157.08 301.462C1157.51 301.215 1158.02 301.149 1158.5 301.278C1158.98 301.407 1159.38 301.72 1159.63 302.149L1178.72 335.217ZM1214 314.848C1214.25 315.277 1214.32 315.788 1214.19 316.267C1214.06 316.746 1213.75 317.155 1213.32 317.403L1194.07 328.516C1193.64 328.762 1193.13 328.829 1192.65 328.7C1192.17 328.571 1191.77 328.258 1191.52 327.829L1156.48 267.14C1156.23 266.711 1156.17 266.2 1156.29 265.721C1156.42 265.242 1156.74 264.834 1157.16 264.586L1176.41 253.472C1176.84 253.226 1177.35 253.159 1177.83 253.288C1178.31 253.417 1178.72 253.73 1178.96 254.159L1214 314.848Z" fill="white"/>
</g>
<g opacity="0.1" clip-path="url(#clip3)">
<path d="M1301.09 38.6997L1256.62 13.0237C1252.94 10.8957 1248.55 10.319 1244.44 11.4206C1240.33 12.5221 1236.83 15.2117 1234.7 18.8975L1209.02 63.3696C1206.9 67.0554 1206.32 71.4357 1207.42 75.5467C1208.52 79.6577 1211.21 83.1628 1214.9 85.2908L1259.37 110.967C1263.06 113.095 1267.44 113.671 1271.55 112.57C1275.66 111.468 1279.16 108.779 1281.29 105.093L1306.97 60.6209C1309.09 56.9351 1309.67 52.5549 1308.57 48.4438C1307.47 44.3328 1304.78 40.8277 1301.09 38.6997V38.6997ZM1239.53 82.0964C1239.35 82.4229 1239.03 82.6612 1238.67 82.7588C1238.31 82.8564 1237.92 82.8053 1237.59 82.6168L1222.96 74.1694C1222.63 73.9808 1222.4 73.6703 1222.3 73.3061C1222.2 72.9418 1222.25 72.5537 1222.44 72.2272L1236.95 47.0866C1237.14 46.76 1237.45 46.5217 1237.82 46.4241C1238.18 46.3265 1238.57 46.3776 1238.9 46.5661L1253.53 55.0151C1253.86 55.2041 1254.09 55.5146 1254.19 55.8784C1254.29 56.2422 1254.24 56.6297 1254.05 56.9558L1239.53 82.0964ZM1266.36 97.5822C1266.17 97.9087 1265.86 98.147 1265.49 98.2446C1265.13 98.3422 1264.74 98.2911 1264.41 98.1026L1249.78 89.6536C1249.45 89.4646 1249.22 89.1541 1249.12 88.7903C1249.02 88.4265 1249.07 88.0391 1249.26 87.713L1275.9 41.5732C1276.09 41.2467 1276.4 41.0084 1276.76 40.9108C1277.13 40.8132 1277.52 40.8643 1277.84 41.0528L1292.48 49.5018C1292.8 49.6908 1293.04 50.0013 1293.14 50.3651C1293.23 50.7289 1293.18 51.1163 1292.99 51.4424L1266.36 97.5822Z" fill="white"/>
</g>
<circle cx="1151" cy="165" r="9" fill="white" fill-opacity="0.1"/>
<circle cx="379" cy="490" r="9" fill="white" fill-opacity="0.1"/>
<circle cx="824" cy="274" r="12" fill="white" fill-opacity="0.1"/>
<circle cx="9" cy="253" r="9" fill="white" fill-opacity="0.1"/>
<circle cx="1383.5" cy="298.5" r="21.5" fill="white" fill-opacity="0.2"/>
<circle cx="554.5" cy="78.5" r="16.5" fill="white" fill-opacity="0.15"/>
<circle cx="949" cy="499" r="9" fill="white" fill-opacity="0.1"/>
<path d="M1026.27 816.584C951.497 773.019 919.269 656.393 895.531 546.023C871.323 436.529 855.402 332.616 890.992 246.228C926.379 159.165 1013.75 88.7509 1101.35 79.9668C1189.16 71.8559 1277.68 124.499 1381.32 168.909C1484.49 214.194 1602.79 251.246 1635.35 325.167C1668.59 398.886 1616.55 508.597 1552.09 594.142C1488.3 679.484 1412.56 739.782 1315.46 785.218C1218.83 829.778 1101.71 859.946 1026.27 816.584Z" fill="white" fill-opacity="0.08"/>
<g clip-path="url(#clip4)">
<path d="M588.21 308.795C590.482 308.765 592.737 309.185 594.846 310.031C596.755 310.801 598.471 311.98 599.875 313.485C601.274 315.026 602.345 316.836 603.023 318.805C603.785 321.037 604.158 323.384 604.126 325.743V351.034C604.126 351.253 604.039 351.464 603.884 351.619C603.728 351.774 603.518 351.862 603.299 351.862H593.534C593.315 351.862 593.104 351.774 592.949 351.619C592.794 351.464 592.707 351.253 592.707 351.034V327.261C592.707 324.822 591.998 322.85 590.581 321.345C589.164 319.841 587.265 319.089 584.883 319.089C582.493 319.089 580.564 319.841 579.093 321.345C577.623 322.85 576.888 324.822 576.888 327.261V351.034C576.888 351.253 576.801 351.464 576.646 351.619C576.49 351.774 576.28 351.862 576.061 351.862H566.241C566.021 351.862 565.811 351.774 565.656 351.619C565.501 351.464 565.414 351.253 565.414 351.034V310.555C565.414 310.336 565.501 310.125 565.656 309.97C565.811 309.815 566.021 309.728 566.241 309.728H575.132C575.351 309.728 575.561 309.815 575.716 309.97C575.872 310.125 575.959 310.336 575.959 310.555V313.643C577.476 312.14 579.266 310.94 581.233 310.108C583.445 309.199 585.819 308.752 588.21 308.795V308.795Z" fill="white"/>
<path d="M809.696 308.795C812.465 308.761 815.213 309.282 817.777 310.329C820.118 311.286 822.243 312.704 824.027 314.498C825.769 316.275 827.129 318.391 828.024 320.714C828.972 323.155 829.449 325.753 829.43 328.372C829.432 329.54 829.346 330.707 829.174 331.862C829.053 332.69 828.929 333.396 828.807 334.006C828.769 334.196 828.665 334.367 828.514 334.489C828.363 334.61 828.174 334.675 827.98 334.671H799.063C799.798 337.397 801.216 339.469 803.317 340.887C805.418 342.305 807.996 343.011 811.053 343.006C813.191 343.029 815.315 342.64 817.305 341.858C818.987 341.173 820.588 340.303 822.078 339.264C822.171 339.201 822.276 339.157 822.386 339.136C822.497 339.114 822.61 339.116 822.72 339.14C822.83 339.164 822.934 339.21 823.025 339.275C823.117 339.341 823.194 339.425 823.252 339.521L827.112 345.966C827.214 346.137 827.251 346.339 827.216 346.535C827.181 346.731 827.076 346.908 826.922 347.034C824.746 348.775 822.325 350.185 819.737 351.219C816.865 352.342 813.805 352.904 810.722 352.874C807.551 352.906 804.404 352.328 801.451 351.172C798.727 350.108 796.241 348.514 794.137 346.482C792.092 344.493 790.458 342.121 789.328 339.502C788.152 336.76 787.558 333.803 787.586 330.819C787.53 326.477 788.776 322.217 791.164 318.59C793.552 314.963 796.972 312.137 800.982 310.475C803.745 309.336 806.708 308.764 809.696 308.795V308.795ZM809.269 318.073C806.914 318.025 804.62 318.826 802.807 320.33C800.991 321.833 799.743 323.918 799.063 326.585H818.361C818.246 323.861 817.31 321.761 815.555 320.286C813.796 318.811 811.563 318.023 809.269 318.068V318.073Z" fill="white"/>
<path d="M625.161 303.854C625.161 301.415 625.712 299.716 626.969 298.747C628.227 297.779 630.088 297.299 632.638 297.299C633.488 297.306 634.337 297.355 635.182 297.448C635.298 297.461 635.416 297.449 635.527 297.413C635.638 297.377 635.74 297.318 635.827 297.24C635.914 297.162 635.983 297.066 636.03 296.96C636.077 296.853 636.101 296.737 636.1 296.62V288.537C636.1 288.36 636.044 288.187 635.939 288.044C635.833 287.902 635.685 287.797 635.516 287.745C634.799 287.535 634.07 287.371 633.332 287.254C632.164 287.076 630.983 286.991 629.801 287C624.869 287 620.893 288.291 617.946 290.862C614.999 293.434 613.491 297.431 613.491 302.822V309.231C613.491 309.378 613.433 309.518 613.33 309.621C613.226 309.725 613.086 309.783 612.94 309.783H609.576C609.357 309.783 609.147 309.87 608.991 310.025C608.836 310.181 608.749 310.391 608.749 310.611V318.363C608.749 318.583 608.836 318.793 608.991 318.948C609.147 319.104 609.357 319.191 609.576 319.191H612.94C613.086 319.191 613.226 319.249 613.33 319.352C613.433 319.456 613.491 319.596 613.491 319.743V351.042C613.491 351.262 613.578 351.472 613.733 351.627C613.888 351.783 614.099 351.87 614.318 351.87H624.334C624.553 351.87 624.764 351.783 624.919 351.627C625.074 351.472 625.161 351.262 625.161 351.042V319.743C625.161 319.596 625.219 319.456 625.322 319.352C625.426 319.249 625.566 319.191 625.712 319.191H632.425C632.645 319.191 632.855 319.104 633.01 318.948C633.165 318.793 633.252 318.583 633.252 318.363V310.638C633.252 310.419 633.165 310.208 633.01 310.053C632.855 309.898 632.645 309.811 632.425 309.811H625.715C625.569 309.811 625.429 309.752 625.325 309.649C625.222 309.545 625.164 309.405 625.164 309.259L625.161 303.854Z" fill="white"/>
<path d="M878.178 351.862H869.284C869.065 351.862 868.854 351.774 868.699 351.619C868.544 351.464 868.457 351.253 868.457 351.034V346.755C866.993 348.733 865.044 350.3 862.8 351.307C860.502 352.359 857.88 352.884 854.932 352.882C852.096 352.92 849.285 352.355 846.683 351.227C844.244 350.162 842.055 348.596 840.259 346.631C838.424 344.594 836.995 342.225 836.05 339.651C835.007 336.832 834.489 333.847 834.519 330.842C834.489 327.836 835.008 324.851 836.05 322.032C837 319.451 838.445 317.08 840.303 315.052C842.119 313.09 844.319 311.524 846.766 310.451C849.341 309.329 852.123 308.765 854.932 308.795C857.409 308.76 859.868 309.223 862.163 310.158C864.24 311.012 866.099 312.321 867.605 313.987V288.848C867.605 288.629 867.692 288.418 867.847 288.263C868.002 288.108 868.213 288.021 868.432 288.021H878.178C878.397 288.021 878.607 288.108 878.762 288.263C878.918 288.418 879.005 288.629 879.005 288.848V351.034C879.005 351.253 878.918 351.464 878.762 351.619C878.607 351.774 878.397 351.862 878.178 351.862V351.862ZM856.974 319.174C855.545 319.166 854.128 319.44 852.806 319.983C851.481 320.52 850.282 321.327 849.285 322.353C848.288 323.379 847.516 324.601 847.016 325.942C845.882 329.06 845.882 332.479 847.016 335.598C847.543 336.953 848.322 338.196 849.313 339.259C850.278 340.28 851.454 341.079 852.759 341.598C854.096 342.139 855.526 342.414 856.969 342.407C858.285 342.403 859.591 342.173 860.829 341.725C862.106 341.271 863.277 340.562 864.272 339.64C865.343 338.638 866.189 337.421 866.753 336.067C867.376 334.619 867.688 332.872 867.688 330.825C867.727 329.049 867.409 327.283 866.753 325.633C866.197 324.263 865.373 323.018 864.33 321.972C863.362 321.025 862.2 320.299 860.925 319.845C859.656 319.396 858.32 319.169 856.974 319.174V319.174Z" fill="white"/>
<path d="M967.369 308.795C973.317 308.768 979.046 311.041 983.359 315.141C985.412 317.114 987.059 319.47 988.208 322.077C989.413 324.811 990.022 327.771 989.994 330.759C990.019 333.761 989.411 336.735 988.208 339.485C987.067 342.109 985.419 344.481 983.359 346.465C979.037 350.554 973.316 352.832 967.369 352.832C961.422 352.832 955.7 350.554 951.379 346.465C949.324 344.486 947.69 342.112 946.573 339.485C945.398 336.728 944.805 333.757 944.831 330.759C944.8 327.846 945.364 324.958 946.49 322.272C947.616 319.586 949.28 317.159 951.379 315.141C953.452 313.163 955.875 311.589 958.525 310.5C961.33 309.349 964.337 308.769 967.369 308.795V308.795ZM967.369 319.279C964.134 319.279 961.511 320.372 959.5 322.557C957.49 324.742 956.479 327.508 956.468 330.855C956.468 334.205 957.479 336.942 959.5 339.069C961.522 341.195 964.145 342.252 967.369 342.241C968.843 342.253 970.305 341.964 971.664 341.392C972.965 340.845 974.138 340.034 975.107 339.008C976.092 337.957 976.871 336.73 977.404 335.391C977.983 333.943 978.272 332.396 978.256 330.836C978.269 329.263 977.98 327.703 977.404 326.24C976.877 324.885 976.098 323.642 975.107 322.579C974.131 321.55 972.961 320.726 971.664 320.154C970.312 319.554 968.848 319.249 967.369 319.26V319.279Z" fill="white"/>
<path d="M657.29 308.795C663.238 308.768 668.967 311.041 673.28 315.141C675.333 317.114 676.981 319.47 678.129 322.077C679.334 324.811 679.943 327.771 679.916 330.759C679.94 333.761 679.332 336.735 678.129 339.485C676.988 342.109 675.34 344.481 673.28 346.465C668.959 350.555 663.237 352.833 657.29 352.833C651.342 352.833 645.621 350.555 641.3 346.465C639.243 344.487 637.608 342.112 636.492 339.485C635.318 336.727 634.725 333.757 634.749 330.759C634.722 327.775 635.316 324.818 636.492 322.077C637.616 319.467 639.25 317.108 641.3 315.141C645.601 311.022 651.337 308.746 657.29 308.795V308.795ZM657.29 319.279C654.055 319.279 651.432 320.372 649.422 322.557C647.411 324.742 646.4 327.508 646.389 330.855C646.389 334.205 647.4 336.942 649.422 339.069C651.443 341.195 654.066 342.259 657.29 342.261C658.764 342.272 660.226 341.983 661.585 341.411C662.887 340.865 664.061 340.053 665.031 339.027C666.014 337.975 666.793 336.748 667.328 335.41C667.904 333.962 668.193 332.415 668.177 330.855C668.19 329.283 667.901 327.723 667.328 326.259C666.8 324.902 666.021 323.657 665.031 322.59C664.054 321.561 662.883 320.737 661.585 320.165C660.234 319.561 658.77 319.253 657.29 319.26V319.279Z" fill="white"/>
<path d="M707.945 309.217C708.965 309.205 709.984 309.316 710.978 309.548C711.154 309.595 711.311 309.698 711.423 309.843C711.534 309.988 711.595 310.166 711.595 310.349V319.028C711.595 319.248 711.508 319.458 711.353 319.613C711.198 319.768 710.987 319.856 710.768 319.856H708.532C705.242 319.856 702.549 320.736 700.452 322.496C698.355 324.256 697.306 327.036 697.306 330.836V351.034C697.306 351.253 697.219 351.464 697.064 351.619C696.909 351.774 696.698 351.862 696.479 351.862H686.664C686.445 351.862 686.235 351.774 686.08 351.619C685.925 351.464 685.837 351.253 685.837 351.034V310.555C685.837 310.336 685.925 310.125 686.08 309.97C686.235 309.815 686.445 309.728 686.664 309.728H695.558C695.778 309.728 695.988 309.815 696.143 309.97C696.298 310.125 696.385 310.336 696.385 310.555V314.749C697.734 312.983 699.483 311.565 701.488 310.611C703.51 309.67 705.716 309.194 707.945 309.217Z" fill="white"/>
<path d="M766.375 308.795C768.674 308.759 770.957 309.18 773.093 310.031C774.999 310.802 776.712 311.981 778.113 313.485C779.508 315.022 780.565 316.834 781.218 318.805C781.953 321.043 782.312 323.387 782.282 325.743V351.034C782.282 351.253 782.195 351.464 782.04 351.619C781.884 351.774 781.674 351.862 781.455 351.862H771.629C771.41 351.862 771.199 351.774 771.044 351.619C770.889 351.464 770.802 351.253 770.802 351.034V327.346C770.802 324.795 770.122 322.795 768.762 321.345C767.402 319.896 765.587 319.172 763.317 319.174C760.992 319.174 759.121 319.898 757.704 321.345C756.287 322.793 755.579 324.709 755.579 327.092V351.034C755.579 351.253 755.491 351.464 755.336 351.619C755.181 351.774 754.971 351.862 754.751 351.862H744.918C744.698 351.862 744.488 351.774 744.333 351.619C744.178 351.464 744.091 351.253 744.091 351.034V327.346C744.091 324.795 743.41 322.795 742.048 321.345C740.686 319.896 738.843 319.172 736.52 319.174C734.193 319.174 732.336 319.898 730.948 321.345C729.561 322.793 728.866 324.793 728.864 327.346V351.034C728.864 351.253 728.777 351.464 728.622 351.619C728.467 351.774 728.257 351.862 728.037 351.862H718.209C717.989 351.862 717.779 351.774 717.624 351.619C717.469 351.464 717.382 351.253 717.382 351.034V310.555C717.382 310.336 717.469 310.125 717.624 309.97C717.779 309.815 717.989 309.728 718.209 309.728H727.103C727.322 309.728 727.532 309.815 727.687 309.97C727.843 310.125 727.93 310.336 727.93 310.555V313.485C729.37 311.988 731.109 310.809 733.033 310.026C735.197 309.171 737.51 308.752 739.837 308.795C742.671 308.795 745.123 309.32 747.195 310.371C749.238 311.399 750.98 312.939 752.254 314.84C753.951 312.984 756.005 311.491 758.294 310.451C760.834 309.313 763.592 308.747 766.375 308.795Z" fill="white"/>
<path d="M923.181 308.795C927.377 308.795 931.021 309.731 934.112 311.604C936.959 313.319 939.35 315.695 941.084 318.531C941.196 318.706 941.239 318.916 941.203 319.121C941.167 319.325 941.056 319.509 940.891 319.635L934.151 324.877C934.064 324.944 933.965 324.993 933.858 325.022C933.752 325.05 933.642 325.057 933.533 325.042C933.424 325.027 933.319 324.991 933.225 324.935C933.13 324.879 933.048 324.805 932.982 324.717C931.929 323.283 930.66 322.021 929.222 320.976C927.63 319.843 925.645 319.275 923.267 319.274C921.731 319.251 920.209 319.556 918.8 320.167C917.503 320.739 916.332 321.563 915.357 322.592C914.375 323.639 913.609 324.869 913.102 326.212C912.551 327.666 912.277 329.21 912.294 330.764C912.279 332.333 912.553 333.891 913.102 335.361C913.601 336.72 914.368 337.965 915.357 339.022C916.332 340.051 917.503 340.876 918.8 341.447C920.209 342.058 921.731 342.363 923.267 342.341C925.656 342.341 927.641 341.773 929.222 340.638C930.635 339.617 931.879 338.38 932.907 336.972C932.973 336.883 933.055 336.809 933.149 336.752C933.244 336.696 933.348 336.659 933.457 336.644C933.566 336.628 933.677 336.635 933.783 336.663C933.889 336.69 933.989 336.739 934.076 336.806L940.814 341.971C940.981 342.096 941.094 342.278 941.132 342.483C941.17 342.687 941.129 342.899 941.018 343.074C939.321 345.924 936.956 348.316 934.126 350.043C931.033 351.942 927.389 352.892 923.195 352.893C920.149 352.918 917.128 352.34 914.307 351.191C911.632 350.105 909.192 348.512 907.119 346.501C905.022 344.454 903.36 342.004 902.235 339.298C901.109 336.591 900.542 333.685 900.569 330.753C900.542 327.77 901.135 324.813 902.311 322.071C903.432 319.464 905.062 317.108 907.106 315.141C909.188 313.155 911.627 311.581 914.293 310.5C917.114 309.351 920.135 308.771 923.181 308.795V308.795Z" fill="white"/>
<path d="M538.669 319.191H528.841C528.384 319.191 528.014 319.561 528.014 320.018V351.031C528.014 351.488 528.384 351.859 528.841 351.859H538.669C539.126 351.859 539.496 351.488 539.496 351.031V320.018C539.496 319.561 539.126 319.191 538.669 319.191Z" fill="#35CE99"/>
<path d="M556.68 309.783H546.851C546.395 309.783 546.024 310.153 546.024 310.611V351.031C546.024 351.488 546.395 351.859 546.851 351.859H556.68C557.136 351.859 557.507 351.488 557.507 351.031V310.611C557.507 310.153 557.136 309.783 556.68 309.783Z" fill="white"/>
<path d="M556.68 293.853H546.851C546.395 293.853 546.024 294.224 546.024 294.681V304.516C546.024 304.973 546.395 305.344 546.851 305.344H556.68C557.136 305.344 557.507 304.973 557.507 304.516V294.681C557.507 294.224 557.136 293.853 556.68 293.853Z" fill="white"/>
<path d="M520.655 333.308H510.827C510.37 333.308 510 333.679 510 334.136V351.034C510 351.491 510.37 351.862 510.827 351.862H520.655C521.112 351.862 521.482 351.491 521.482 351.034V334.136C521.482 333.679 521.112 333.308 520.655 333.308Z" fill="#8158C9"/>
<path d="M896.533 340.371H886.705C886.248 340.371 885.878 340.741 885.878 341.198V351.034C885.878 351.491 886.248 351.862 886.705 351.862H896.533C896.99 351.862 897.36 351.491 897.36 351.034V341.198C897.36 340.741 896.99 340.371 896.533 340.371Z" fill="white"/>
</g>
</g>
<defs>
<linearGradient id="paint0_linear" x1="1500" y1="153.138" x2="1038.72" y2="998.051" gradientUnits="userSpaceOnUse">
<stop stop-color="#35CE99"/>
<stop offset="1" stop-color="#8158C9"/>
</linearGradient>
<clipPath id="clip0">
<rect width="1500" height="600" fill="white"/>
</clipPath>
<clipPath id="clip1">
<rect width="210.678" height="210.678" fill="white" transform="translate(1302.5 362) rotate(32.9225)"/>
</clipPath>
<clipPath id="clip2">
<rect width="109.76" height="109.76" fill="white" transform="translate(1093 280.88) rotate(-30)"/>
</clipPath>
<clipPath id="clip3">
<rect width="83.4469" height="83.4469" fill="white" transform="translate(1242.72 5) rotate(30)"/>
</clipPath>
<clipPath id="clip4">
<rect width="480" height="65.8823" fill="white" transform="translate(510 287)"/>
</clipPath>
</defs>
</svg>
