<svg width="802" height="427" viewBox="0 0 802 427" fill="none" xmlns="http://www.w3.org/2000/svg">
<rect width="802" height="426.397" fill="white"/>
<rect width="802" height="426.397" fill="url(#paint0_linear)" fill-opacity="0.03"/>
<g clip-path="url(#clip0)">
<path d="M235.166 201.496C237.494 201.465 239.806 201.898 241.967 202.772C243.924 203.566 245.683 204.783 247.122 206.337C248.556 207.927 249.654 209.795 250.349 211.827C251.129 214.131 251.512 216.554 251.479 218.989V245.092C251.479 245.319 251.39 245.536 251.231 245.696C251.072 245.857 250.856 245.947 250.631 245.947H240.622C240.397 245.947 240.182 245.857 240.023 245.696C239.864 245.536 239.774 245.319 239.774 245.092V220.555C239.774 218.038 239.048 216.002 237.596 214.45C236.143 212.897 234.196 212.12 231.755 212.12C229.306 212.12 227.328 212.897 225.821 214.45C224.313 216.002 223.56 218.038 223.56 220.555V245.092C223.56 245.319 223.471 245.536 223.312 245.696C223.153 245.857 222.937 245.947 222.712 245.947H212.647C212.422 245.947 212.206 245.857 212.047 245.696C211.888 245.536 211.799 245.319 211.799 245.092V203.313C211.799 203.086 211.888 202.869 212.047 202.709C212.206 202.548 212.422 202.458 212.647 202.458H221.76C221.985 202.458 222.2 202.548 222.359 202.709C222.518 202.869 222.608 203.086 222.608 203.313V206.499C224.163 204.948 225.998 203.71 228.013 202.851C230.281 201.913 232.715 201.451 235.166 201.496Z" fill="#3E4051"/>
<path d="M462.189 201.496C465.027 201.46 467.843 201.998 470.471 203.079C472.871 204.066 475.05 205.53 476.877 207.382C478.663 209.216 480.057 211.4 480.975 213.797C481.947 216.317 482.436 218.999 482.416 221.702C482.418 222.908 482.33 224.112 482.153 225.304C482.029 226.159 481.902 226.887 481.777 227.517C481.738 227.713 481.632 227.89 481.477 228.015C481.322 228.14 481.128 228.207 480.93 228.203H451.29C452.043 231.016 453.497 233.155 455.65 234.619C457.803 236.082 460.446 236.811 463.579 236.806C465.771 236.83 467.947 236.428 469.988 235.621C471.712 234.914 473.352 234.016 474.88 232.944C474.975 232.879 475.082 232.834 475.196 232.811C475.309 232.789 475.425 232.791 475.538 232.815C475.651 232.84 475.757 232.888 475.851 232.956C475.945 233.023 476.024 233.11 476.083 233.209L480.04 239.861C480.144 240.038 480.182 240.246 480.146 240.449C480.11 240.651 480.003 240.834 479.845 240.963C477.614 242.761 475.133 244.216 472.481 245.283C469.537 246.442 466.4 247.022 463.24 246.991C459.99 247.025 456.764 246.428 453.737 245.234C450.945 244.136 448.397 242.491 446.24 240.394C444.144 238.341 442.47 235.893 441.312 233.189C440.106 230.359 439.497 227.307 439.526 224.228C439.468 219.745 440.745 215.349 443.193 211.605C445.641 207.862 449.146 204.945 453.256 203.23C456.088 202.053 459.126 201.464 462.189 201.496ZM461.751 211.072C459.337 211.022 456.986 211.849 455.127 213.401C453.266 214.952 451.987 217.104 451.29 219.857H471.07C470.952 217.045 469.993 214.878 468.194 213.356C466.391 211.833 464.102 211.02 461.751 211.066V211.072Z" fill="#3E4051"/>
<path d="M273.04 196.396C273.04 193.879 273.605 192.124 274.894 191.125C276.182 190.125 278.09 189.63 280.704 189.63C281.575 189.637 282.446 189.688 283.312 189.784C283.431 189.797 283.551 189.785 283.665 189.748C283.779 189.711 283.884 189.65 283.972 189.569C284.061 189.489 284.132 189.39 284.181 189.28C284.229 189.169 284.254 189.05 284.253 188.929V180.586C284.253 180.403 284.195 180.225 284.087 180.078C283.979 179.931 283.827 179.822 283.654 179.769C282.919 179.552 282.172 179.383 281.416 179.262C280.218 179.079 279.007 178.991 277.796 179C272.74 179 268.666 180.333 265.645 182.987C262.624 185.641 261.078 189.767 261.078 195.331V201.946C261.078 202.097 261.019 202.242 260.913 202.348C260.807 202.455 260.663 202.515 260.513 202.515H257.066C256.841 202.515 256.625 202.605 256.466 202.765C256.307 202.926 256.218 203.143 256.218 203.37V211.371C256.218 211.598 256.307 211.815 256.466 211.975C256.625 212.135 256.841 212.225 257.066 212.225H260.513C260.663 212.225 260.807 212.285 260.913 212.392C261.019 212.499 261.078 212.644 261.078 212.795V245.101C261.078 245.327 261.168 245.545 261.327 245.705C261.486 245.865 261.701 245.955 261.926 245.955H272.192C272.417 245.955 272.633 245.865 272.792 245.705C272.951 245.545 273.04 245.327 273.04 245.101V212.795C273.04 212.644 273.1 212.499 273.205 212.392C273.311 212.285 273.455 212.225 273.605 212.225H280.486C280.711 212.225 280.926 212.135 281.085 211.975C281.244 211.815 281.334 211.598 281.334 211.371V203.398C281.334 203.171 281.244 202.954 281.085 202.794C280.926 202.634 280.711 202.544 280.486 202.544H273.608C273.458 202.544 273.314 202.484 273.208 202.377C273.102 202.27 273.043 202.125 273.043 201.974L273.04 196.396Z" fill="#3E4051"/>
<path d="M532.382 245.946H523.266C523.041 245.946 522.825 245.856 522.667 245.696C522.508 245.536 522.418 245.319 522.418 245.092V240.676C520.917 242.717 518.92 244.335 516.62 245.374C514.265 246.46 511.577 247.002 508.555 247C505.648 247.038 502.767 246.456 500.1 245.291C497.6 244.192 495.356 242.576 493.516 240.547C491.634 238.445 490.17 236 489.201 233.343C488.133 230.434 487.601 227.352 487.632 224.251C487.602 221.149 488.133 218.068 489.201 215.158C490.175 212.494 491.656 210.047 493.561 207.954C495.422 205.929 497.676 204.312 500.185 203.204C502.824 202.047 505.676 201.465 508.555 201.496C511.094 201.459 513.615 201.937 515.967 202.902C518.096 203.784 520.001 205.135 521.545 206.855V180.908C521.545 180.681 521.634 180.464 521.793 180.304C521.952 180.144 522.168 180.054 522.393 180.054H532.382C532.607 180.054 532.823 180.144 532.982 180.304C533.14 180.464 533.23 180.681 533.23 180.908V245.092C533.23 245.319 533.14 245.536 532.982 245.696C532.823 245.856 532.607 245.946 532.382 245.946ZM510.649 212.208C509.184 212.2 507.732 212.483 506.376 213.043C505.018 213.597 503.789 214.43 502.767 215.489C501.746 216.548 500.954 217.81 500.442 219.193C499.279 222.412 499.279 225.941 500.442 229.16C500.981 230.559 501.78 231.841 502.796 232.939C503.785 233.993 504.99 234.817 506.328 235.353C507.699 235.912 509.165 236.195 510.643 236.188C511.992 236.184 513.33 235.946 514.599 235.484C515.908 235.016 517.109 234.283 518.129 233.332C519.227 232.298 520.093 231.041 520.672 229.644C521.311 228.15 521.63 226.347 521.63 224.234C521.67 222.401 521.344 220.578 520.672 218.875C520.102 217.461 519.257 216.176 518.188 215.096C517.196 214.119 516.005 213.37 514.698 212.9C513.398 212.437 512.028 212.203 510.649 212.208Z" fill="#3E4051"/>
<path d="M623.803 201.496C629.9 201.468 635.772 203.814 640.193 208.045C642.297 210.082 643.986 212.514 645.163 215.204C646.398 218.026 647.022 221.081 646.994 224.165C647.02 227.264 646.396 230.333 645.163 233.172C643.994 235.88 642.304 238.329 640.193 240.377C635.763 244.597 629.899 246.948 623.803 246.948C617.707 246.948 611.843 244.597 607.413 240.377C605.307 238.333 603.632 235.883 602.488 233.172C601.283 230.326 600.675 227.26 600.702 224.165C600.67 221.159 601.248 218.178 602.403 215.406C603.557 212.633 605.262 210.128 607.413 208.045C609.538 206.004 612.022 204.38 614.738 203.256C617.613 202.067 620.695 201.469 623.803 201.496ZM623.803 212.317C620.487 212.317 617.799 213.444 615.738 215.7C613.677 217.955 612.641 220.81 612.63 224.265C612.63 227.722 613.666 230.548 615.738 232.742C617.81 234.937 620.499 236.028 623.803 236.017C625.314 236.029 626.812 235.731 628.205 235.14C629.539 234.576 630.741 233.738 631.735 232.68C632.744 231.595 633.543 230.328 634.089 228.946C634.682 227.452 634.979 225.855 634.962 224.245C634.976 222.622 634.679 221.011 634.089 219.501C633.549 218.102 632.75 216.82 631.735 215.722C630.735 214.66 629.535 213.81 628.205 213.219C626.82 212.6 625.319 212.286 623.803 212.297V212.317Z" fill="#3E4051"/>
<path d="M305.972 201.496C312.069 201.468 317.941 203.814 322.362 208.045C324.466 210.082 326.155 212.514 327.332 215.204C328.567 218.026 329.191 221.081 329.163 224.165C329.189 227.264 328.565 230.333 327.332 233.172C326.163 235.88 324.474 238.329 322.362 240.377C317.933 244.598 312.068 246.949 305.972 246.949C299.876 246.949 294.011 244.598 289.582 240.377C287.474 238.334 285.798 235.884 284.654 233.172C283.451 230.325 282.843 227.259 282.868 224.165C282.84 221.086 283.449 218.034 284.654 215.204C285.806 212.51 287.482 210.076 289.582 208.045C293.99 203.794 299.871 201.445 305.972 201.496ZM305.972 212.317C302.656 212.317 299.968 213.444 297.907 215.7C295.846 217.955 294.81 220.81 294.799 224.265C294.799 227.722 295.835 230.548 297.907 232.742C299.979 234.937 302.668 236.035 305.972 236.037C307.483 236.049 308.981 235.751 310.375 235.16C311.709 234.596 312.912 233.758 313.907 232.7C314.914 231.613 315.713 230.347 316.261 228.966C316.852 227.471 317.148 225.874 317.131 224.265C317.144 222.642 316.849 221.032 316.261 219.521C315.72 218.12 314.921 216.835 313.907 215.734C312.906 214.672 311.705 213.821 310.375 213.231C308.99 212.608 307.489 212.289 305.972 212.297V212.317Z" fill="#3E4051"/>
<path d="M357.894 201.931C358.94 201.918 359.983 202.033 361.002 202.273C361.183 202.321 361.344 202.428 361.458 202.577C361.573 202.727 361.635 202.91 361.635 203.099V212.057C361.635 212.284 361.546 212.501 361.387 212.661C361.228 212.822 361.012 212.912 360.787 212.912H358.496C355.123 212.912 352.363 213.82 350.213 215.637C348.064 217.454 346.989 220.323 346.989 224.245V245.092C346.989 245.319 346.899 245.536 346.741 245.696C346.582 245.856 346.366 245.946 346.141 245.946H336.081C335.856 245.946 335.641 245.856 335.482 245.696C335.323 245.536 335.233 245.319 335.233 245.092V203.312C335.233 203.086 335.323 202.869 335.482 202.708C335.641 202.548 335.856 202.458 336.081 202.458H345.197C345.422 202.458 345.638 202.548 345.797 202.708C345.956 202.869 346.045 203.086 346.045 203.312V207.641C347.427 205.819 349.22 204.354 351.276 203.369C353.348 202.399 355.609 201.907 357.894 201.931Z" fill="#3E4051"/>
<path d="M417.784 201.496C420.14 201.459 422.481 201.892 424.67 202.771C426.624 203.567 428.38 204.784 429.816 206.337C431.245 207.923 432.329 209.793 432.998 211.827C433.751 214.137 434.12 216.557 434.089 218.988V245.092C434.089 245.319 434 245.536 433.841 245.696C433.682 245.856 433.466 245.946 433.241 245.946H423.17C422.945 245.946 422.729 245.856 422.57 245.696C422.412 245.536 422.322 245.319 422.322 245.092V220.643C422.322 218.01 421.625 215.945 420.231 214.449C418.837 212.953 416.977 212.206 414.65 212.208C412.267 212.208 410.349 212.955 408.897 214.449C407.444 215.943 406.718 217.921 406.718 220.381V245.092C406.718 245.319 406.629 245.536 406.47 245.696C406.311 245.856 406.095 245.946 405.87 245.946H395.791C395.566 245.946 395.35 245.856 395.191 245.696C395.032 245.536 394.943 245.319 394.943 245.092V220.643C394.943 218.01 394.245 215.945 392.849 214.449C391.453 212.953 389.564 212.206 387.183 212.208C384.798 212.208 382.895 212.955 381.472 214.449C380.05 215.943 379.338 218.008 379.336 220.643V245.092C379.336 245.319 379.247 245.536 379.088 245.696C378.929 245.856 378.713 245.946 378.488 245.946H368.414C368.189 245.946 367.974 245.856 367.815 245.696C367.656 245.536 367.566 245.319 367.566 245.092V203.313C367.566 203.086 367.656 202.869 367.815 202.708C367.974 202.548 368.189 202.458 368.414 202.458H377.53C377.755 202.458 377.971 202.548 378.13 202.708C378.289 202.869 378.378 203.086 378.378 203.313V206.337C379.854 204.791 381.636 203.574 383.609 202.766C385.827 201.883 388.198 201.451 390.583 201.496C393.488 201.496 396.002 202.038 398.125 203.122C400.219 204.184 402.005 205.773 403.31 207.735C405.05 205.819 407.156 204.278 409.501 203.204C412.105 202.03 414.932 201.446 417.784 201.496Z" fill="#3E4051"/>
<path d="M578.511 201.496C582.812 201.496 586.546 202.462 589.715 204.395C592.633 206.165 595.084 208.617 596.862 211.545C596.976 211.725 597.02 211.942 596.983 212.153C596.946 212.364 596.833 212.554 596.664 212.684L589.755 218.094C589.666 218.164 589.564 218.214 589.455 218.244C589.346 218.273 589.233 218.28 589.121 218.265C589.01 218.249 588.902 218.212 588.805 218.154C588.708 218.097 588.624 218.02 588.557 217.929C587.477 216.449 586.177 215.147 584.702 214.068C583.071 212.898 581.036 212.313 578.598 212.311C577.025 212.288 575.464 212.602 574.021 213.233C572.691 213.823 571.491 214.674 570.491 215.736C569.485 216.817 568.699 218.086 568.18 219.472C567.615 220.973 567.334 222.566 567.352 224.171C567.336 225.79 567.617 227.398 568.18 228.915C568.691 230.318 569.477 231.603 570.491 232.694C571.491 233.756 572.691 234.607 574.021 235.197C575.464 235.828 577.025 236.143 578.598 236.119C581.047 236.119 583.082 235.534 584.702 234.362C586.151 233.309 587.426 232.032 588.48 230.578C588.547 230.487 588.631 230.41 588.728 230.351C588.825 230.293 588.932 230.255 589.044 230.239C589.155 230.223 589.269 230.23 589.378 230.259C589.487 230.288 589.589 230.338 589.678 230.407L596.585 235.738C596.755 235.866 596.871 236.055 596.91 236.266C596.949 236.477 596.907 236.695 596.794 236.877C595.055 239.818 592.63 242.287 589.729 244.07C586.559 246.029 582.824 247.009 578.525 247.011C575.403 247.037 572.307 246.44 569.414 245.254C566.673 244.133 564.171 242.489 562.047 240.413C559.898 238.301 558.194 235.772 557.041 232.979C555.887 230.185 555.306 227.185 555.333 224.16C555.306 221.08 555.914 218.028 557.119 215.198C558.268 212.508 559.938 210.076 562.033 208.045C564.168 205.996 566.668 204.371 569.4 203.256C572.292 202.069 575.388 201.471 578.511 201.496Z" fill="#3E4051"/>
<path d="M184.386 212.225H174.312C173.843 212.225 173.464 212.608 173.464 213.08V245.089C173.464 245.561 173.843 245.944 174.312 245.944H184.386C184.854 245.944 185.233 245.561 185.233 245.089V213.08C185.233 212.608 184.854 212.225 184.386 212.225Z" fill="#35CE99"/>
<path d="M202.847 202.515H192.773C192.304 202.515 191.925 202.897 191.925 203.369V245.089C191.925 245.561 192.304 245.943 192.773 245.943H202.847C203.315 245.943 203.694 245.561 203.694 245.089V203.369C203.694 202.897 203.315 202.515 202.847 202.515Z" fill="#3E4051"/>
<path d="M202.847 186.073H192.773C192.304 186.073 191.925 186.456 191.925 186.927V197.079C191.925 197.551 192.304 197.933 192.773 197.933H202.847C203.315 197.933 203.694 197.551 203.694 197.079V186.927C203.694 186.456 203.315 186.073 202.847 186.073Z" fill="#3E4051"/>
<path d="M165.922 226.796H155.848C155.38 226.796 155 227.179 155 227.651V245.092C155 245.564 155.38 245.946 155.848 245.946H165.922C166.39 245.946 166.77 245.564 166.77 245.092V227.651C166.77 227.179 166.39 226.796 165.922 226.796Z" fill="#8158C9"/>
<path d="M551.196 234.086H541.122C540.654 234.086 540.275 234.469 540.275 234.941V245.092C540.275 245.564 540.654 245.946 541.122 245.946H551.196C551.665 245.946 552.044 245.564 552.044 245.092V234.941C552.044 234.469 551.665 234.086 551.196 234.086Z" fill="#3E4051"/>
</g>
<defs>
<linearGradient id="paint0_linear" x1="393" y1="426" x2="393" y2="3.00003" gradientUnits="userSpaceOnUse">
<stop stop-color="#3E4051"/>
<stop offset="1" stop-color="#3E4051" stop-opacity="0.5"/>
</linearGradient>
<clipPath id="clip0">
<rect width="492" height="68" fill="white" transform="translate(155 179)"/>
</clipPath>
</defs>
</svg>
