<svg width="802" height="431" viewBox="0 0 802 431" fill="none" xmlns="http://www.w3.org/2000/svg">
<rect width="802" height="431" fill="white"/>
<rect width="802" height="431" fill="url(#paint0_linear)"/>
<g clip-path="url(#clip0)">
<path d="M193.881 199.451C196.782 199.411 199.663 199.96 202.356 201.064C204.793 202.068 206.985 203.608 208.778 205.573C210.565 207.584 211.933 209.947 212.798 212.516C213.771 215.431 214.247 218.494 214.207 221.574V254.587C214.207 254.874 214.095 255.149 213.897 255.351C213.699 255.554 213.43 255.668 213.15 255.668H200.68C200.4 255.668 200.131 255.554 199.933 255.351C199.735 255.149 199.624 254.874 199.624 254.587V223.554C199.624 220.371 198.719 217.797 196.909 215.833C195.099 213.869 192.673 212.887 189.632 212.887C186.58 212.887 184.116 213.869 182.238 215.833C180.36 217.797 179.421 220.371 179.421 223.554V254.587C179.421 254.874 179.31 255.149 179.112 255.351C178.914 255.554 178.645 255.668 178.365 255.668H165.824C165.544 255.668 165.275 255.554 165.077 255.351C164.879 255.149 164.768 254.874 164.768 254.587V201.748C164.768 201.462 164.879 201.187 165.077 200.984C165.275 200.782 165.544 200.668 165.824 200.668H177.179C177.459 200.668 177.727 200.782 177.925 200.984C178.123 201.187 178.235 201.462 178.235 201.748V205.778C180.173 203.816 182.459 202.251 184.97 201.165C187.795 199.978 190.828 199.394 193.881 199.451V199.451Z" fill="white"/>
<path d="M476.737 199.451C480.273 199.405 483.783 200.086 487.057 201.453C490.047 202.702 492.761 204.552 495.038 206.895C497.263 209.215 499 211.976 500.144 215.008C501.354 218.195 501.964 221.587 501.939 225.006C501.941 226.531 501.832 228.053 501.612 229.561C501.457 230.642 501.298 231.564 501.143 232.36C501.095 232.608 500.962 232.831 500.769 232.99C500.576 233.148 500.335 233.233 500.087 233.228H463.158C464.097 236.786 465.907 239.49 468.59 241.341C471.273 243.192 474.566 244.114 478.47 244.107C481.201 244.138 483.912 243.63 486.455 242.609C488.602 241.714 490.646 240.579 492.549 239.224C492.668 239.141 492.802 239.084 492.943 239.056C493.084 239.028 493.229 239.029 493.37 239.061C493.51 239.092 493.643 239.153 493.76 239.238C493.876 239.324 493.975 239.433 494.049 239.559L498.978 247.971C499.108 248.195 499.156 248.459 499.111 248.715C499.066 248.971 498.933 249.202 498.735 249.365C495.957 251.638 492.865 253.479 489.56 254.828C485.893 256.295 481.985 257.029 478.047 256.989C473.998 257.031 469.978 256.277 466.207 254.767C462.728 253.378 459.553 251.297 456.866 248.645C454.255 246.049 452.169 242.953 450.726 239.534C449.223 235.955 448.465 232.095 448.501 228.2C448.428 222.531 450.02 216.97 453.07 212.236C456.119 207.502 460.487 203.812 465.608 201.644C469.136 200.156 472.921 199.41 476.737 199.451V199.451ZM476.192 211.562C473.184 211.498 470.255 212.544 467.939 214.508C465.62 216.469 464.026 219.191 463.158 222.672H487.803C487.655 219.116 486.461 216.376 484.219 214.45C481.973 212.525 479.122 211.496 476.192 211.555V211.562Z" fill="white"/>
<path d="M241.07 193.001C241.07 189.817 241.774 187.599 243.38 186.335C244.985 185.07 247.362 184.444 250.619 184.444C251.704 184.452 252.789 184.517 253.868 184.638C254.016 184.655 254.166 184.64 254.308 184.593C254.45 184.546 254.581 184.469 254.691 184.367C254.802 184.265 254.89 184.14 254.951 184.001C255.011 183.861 255.042 183.71 255.041 183.558V173.006C255.041 172.775 254.968 172.549 254.834 172.363C254.7 172.177 254.51 172.04 254.294 171.972C253.379 171.699 252.448 171.484 251.506 171.331C250.013 171.1 248.505 170.989 246.996 171C240.697 171 235.62 172.685 231.856 176.042C228.093 179.398 226.167 184.617 226.167 191.654V200.02C226.167 200.211 226.093 200.394 225.96 200.529C225.828 200.664 225.649 200.74 225.463 200.74H221.167C220.887 200.74 220.618 200.854 220.42 201.056C220.222 201.259 220.111 201.534 220.111 201.82V211.94C220.111 212.227 220.222 212.501 220.42 212.704C220.618 212.907 220.887 213.02 221.167 213.02H225.463C225.649 213.02 225.828 213.096 225.96 213.231C226.093 213.367 226.167 213.55 226.167 213.741V254.598C226.167 254.884 226.278 255.159 226.476 255.362C226.674 255.565 226.943 255.678 227.223 255.678H240.014C240.294 255.678 240.563 255.565 240.761 255.362C240.959 255.159 241.07 254.884 241.07 254.598V213.741C241.07 213.55 241.144 213.367 241.276 213.231C241.408 213.096 241.588 213.02 241.774 213.02H250.347C250.628 213.02 250.896 212.907 251.094 212.704C251.292 212.501 251.404 212.227 251.404 211.94V201.856C251.404 201.57 251.292 201.295 251.094 201.092C250.896 200.89 250.628 200.776 250.347 200.776H241.778C241.591 200.776 241.412 200.7 241.28 200.565C241.148 200.43 241.074 200.247 241.074 200.056L241.07 193.001Z" fill="white"/>
<path d="M564.193 255.668H552.835C552.555 255.668 552.287 255.554 552.089 255.351C551.89 255.148 551.779 254.874 551.779 254.587V249.001C549.909 251.583 547.421 253.63 544.555 254.944C541.621 256.317 538.271 257.002 534.506 257C530.885 257.049 527.295 256.312 523.972 254.839C520.857 253.449 518.062 251.405 515.769 248.839C513.424 246.181 511.6 243.088 510.392 239.728C509.062 236.049 508.399 232.152 508.438 228.229C508.4 224.306 509.062 220.409 510.392 216.73C511.606 213.36 513.451 210.265 515.825 207.618C518.143 205.057 520.953 203.013 524.078 201.611C527.366 200.148 530.92 199.412 534.506 199.451C537.67 199.404 540.811 200.009 543.741 201.23C546.393 202.345 548.768 204.053 550.691 206.228V173.413C550.691 173.126 550.803 172.852 551.001 172.649C551.199 172.446 551.467 172.333 551.748 172.333H564.193C564.474 172.333 564.742 172.446 564.94 172.649C565.138 172.852 565.25 173.126 565.25 173.413V254.587C565.25 254.874 565.138 255.148 564.94 255.351C564.742 255.554 564.474 255.668 564.193 255.668V255.668ZM537.115 212.999C535.29 212.988 533.481 213.346 531.792 214.054C530.099 214.755 528.568 215.809 527.295 217.148C526.022 218.487 525.036 220.083 524.398 221.833C522.949 225.904 522.949 230.367 524.398 234.438C525.07 236.207 526.066 237.828 527.331 239.217C528.563 240.55 530.065 241.592 531.732 242.271C533.44 242.977 535.266 243.335 537.108 243.326C538.789 243.321 540.456 243.02 542.037 242.436C543.669 241.843 545.165 240.917 546.435 239.714C547.803 238.407 548.883 236.817 549.603 235.05C550.399 233.16 550.797 230.879 550.797 228.207C550.847 225.889 550.441 223.584 549.603 221.43C548.893 219.642 547.841 218.017 546.509 216.651C545.272 215.415 543.789 214.468 542.16 213.874C540.54 213.289 538.833 212.992 537.115 212.999V212.999Z" fill="white"/>
<path d="M678.098 199.451C685.694 199.415 693.011 202.382 698.518 207.734C701.141 210.309 703.245 213.385 704.711 216.787C706.25 220.357 707.028 224.22 706.993 228.121C707.025 232.04 706.247 235.921 704.711 239.512C703.254 242.937 701.15 246.033 698.518 248.623C693 253.961 685.693 256.935 678.098 256.935C670.503 256.935 663.196 253.961 657.677 248.623C655.053 246.039 652.966 242.94 651.541 239.512C650.04 235.912 649.282 232.034 649.316 228.121C649.275 224.319 649.996 220.549 651.434 217.042C652.873 213.536 654.997 210.368 657.677 207.734C660.325 205.152 663.42 203.098 666.803 201.676C670.386 200.173 674.226 199.416 678.098 199.451V199.451ZM678.098 213.136C673.967 213.136 670.617 214.562 668.05 217.414C665.482 220.266 664.191 223.877 664.177 228.247C664.177 232.619 665.468 236.193 668.05 238.968C670.632 241.743 673.981 243.124 678.098 243.11C679.981 243.125 681.848 242.748 683.583 242C685.245 241.288 686.743 240.228 687.981 238.889C689.238 237.517 690.233 235.915 690.914 234.167C691.653 232.277 692.023 230.257 692.001 228.222C692.018 226.169 691.649 224.132 690.914 222.222C690.241 220.453 689.246 218.831 687.981 217.443C686.735 216.1 685.24 215.024 683.583 214.277C681.857 213.494 679.987 213.097 678.098 213.11V213.136Z" fill="white"/>
<path d="M282.101 199.451C289.698 199.415 297.014 202.383 302.522 207.734C305.144 210.309 307.248 213.385 308.715 216.788C310.253 220.357 311.031 224.22 310.996 228.121C311.028 232.04 310.251 235.922 308.715 239.512C307.258 242.937 305.153 246.033 302.522 248.623C297.004 253.962 289.697 256.936 282.101 256.936C274.506 256.936 267.199 253.962 261.681 248.623C259.055 246.041 256.966 242.941 255.54 239.512C254.041 235.912 253.284 232.034 253.315 228.121C253.281 224.226 254.039 220.367 255.54 216.788C256.976 213.381 259.064 210.302 261.681 207.734C267.173 202.358 274.5 199.386 282.101 199.451V199.451ZM282.101 213.136C277.97 213.136 274.621 214.562 272.053 217.414C269.485 220.266 268.194 223.877 268.18 228.247C268.18 232.619 269.471 236.193 272.053 238.968C274.635 241.744 277.984 243.133 282.101 243.135C283.984 243.15 285.851 242.773 287.587 242.026C289.249 241.313 290.748 240.253 291.988 238.914C293.243 237.54 294.237 235.939 294.92 234.193C295.657 232.302 296.025 230.282 296.005 228.247C296.021 226.195 295.653 224.158 294.92 222.247C294.247 220.476 293.252 218.851 291.988 217.457C290.74 216.114 289.244 215.038 287.587 214.292C285.861 213.504 283.991 213.101 282.101 213.111V213.136Z" fill="white"/>
<path d="M346.792 200.002C348.096 199.985 349.396 200.13 350.665 200.434C350.891 200.494 351.091 200.63 351.233 200.819C351.376 201.008 351.454 201.24 351.454 201.478V212.808C351.454 213.095 351.343 213.369 351.144 213.572C350.946 213.775 350.678 213.889 350.398 213.889H347.542C343.341 213.889 339.901 215.037 337.223 217.335C334.545 219.633 333.206 223.262 333.206 228.222V254.587C333.206 254.874 333.094 255.149 332.896 255.351C332.698 255.554 332.429 255.668 332.149 255.668H319.615C319.335 255.668 319.067 255.554 318.868 255.351C318.67 255.149 318.559 254.874 318.559 254.587V201.748C318.559 201.462 318.67 201.187 318.868 200.984C319.067 200.782 319.335 200.668 319.615 200.668H330.973C331.254 200.668 331.522 200.782 331.72 200.984C331.918 201.187 332.03 201.462 332.03 201.748V207.222C333.752 204.918 335.986 203.066 338.547 201.82C341.128 200.593 343.946 199.971 346.792 200.002Z" fill="white"/>
<path d="M421.412 199.45C424.348 199.404 427.264 199.952 429.992 201.064C432.425 202.069 434.614 203.609 436.403 205.573C438.184 207.579 439.534 209.944 440.368 212.516C441.306 215.438 441.765 218.498 441.727 221.573V254.587C441.727 254.874 441.615 255.148 441.417 255.351C441.219 255.554 440.95 255.667 440.67 255.667H428.122C427.842 255.667 427.573 255.554 427.375 255.351C427.177 255.148 427.066 254.874 427.066 254.587V223.666C427.066 220.336 426.198 217.725 424.461 215.833C422.724 213.941 420.406 212.996 417.507 212.999C414.538 212.999 412.148 213.943 410.339 215.833C408.529 217.722 407.624 220.223 407.624 223.335V254.587C407.624 254.874 407.513 255.148 407.315 255.351C407.117 255.554 406.848 255.667 406.568 255.667H394.009C393.729 255.667 393.461 255.554 393.262 255.351C393.064 255.148 392.953 254.874 392.953 254.587V223.666C392.953 220.336 392.083 217.725 390.344 215.833C388.605 213.941 386.252 212.996 383.285 212.999C380.314 212.999 377.942 213.943 376.17 215.833C374.397 217.722 373.51 220.333 373.508 223.666V254.587C373.508 254.874 373.397 255.148 373.198 255.351C373 255.554 372.732 255.667 372.452 255.667H359.9C359.62 255.667 359.351 255.554 359.153 255.351C358.955 255.148 358.844 254.874 358.844 254.587V201.748C358.844 201.462 358.955 201.187 359.153 200.984C359.351 200.782 359.62 200.668 359.9 200.668H371.258C371.538 200.668 371.807 200.782 372.005 200.984C372.203 201.187 372.314 201.462 372.314 201.748V205.573C374.154 203.618 376.374 202.079 378.831 201.057C381.596 199.94 384.549 199.394 387.521 199.45C391.14 199.45 394.272 200.136 396.918 201.507C399.526 202.85 401.752 204.859 403.378 207.341C405.545 204.918 408.169 202.969 411.092 201.611C414.336 200.126 417.859 199.388 421.412 199.45Z" fill="white"/>
<path d="M621.667 199.451C627.026 199.451 631.679 200.673 635.627 203.117C639.262 205.356 642.316 208.457 644.531 212.16C644.674 212.388 644.728 212.662 644.682 212.929C644.637 213.196 644.495 213.435 644.284 213.6L635.676 220.443C635.565 220.531 635.438 220.595 635.303 220.632C635.167 220.669 635.026 220.678 634.887 220.659C634.748 220.639 634.614 220.592 634.493 220.519C634.373 220.446 634.267 220.349 634.183 220.234C632.838 218.363 631.218 216.715 629.381 215.351C627.348 213.872 624.813 213.131 621.776 213.129C619.815 213.099 617.871 213.497 616.072 214.295C614.415 215.041 612.92 216.117 611.675 217.461C610.421 218.827 609.443 220.433 608.795 222.186C608.091 224.083 607.742 226.099 607.763 228.128C607.744 230.176 608.094 232.21 608.795 234.128C609.432 235.902 610.411 237.528 611.675 238.907C612.92 240.251 614.415 241.327 616.072 242.073C617.871 242.871 619.815 243.269 621.776 243.239C624.827 243.239 627.362 242.499 629.381 241.017C631.186 239.685 632.775 238.069 634.088 236.231C634.172 236.116 634.277 236.018 634.397 235.945C634.518 235.871 634.651 235.823 634.79 235.803C634.929 235.783 635.071 235.791 635.207 235.827C635.342 235.864 635.47 235.928 635.581 236.015L644.186 242.757C644.398 242.919 644.543 243.158 644.591 243.425C644.64 243.692 644.588 243.968 644.446 244.197C642.279 247.917 639.258 251.039 635.644 253.294C631.694 255.772 627.041 257.012 621.684 257.014C617.795 257.047 613.937 256.292 610.333 254.792C606.918 253.374 603.801 251.296 601.155 248.67C598.476 245.999 596.354 242.8 594.916 239.267C593.479 235.734 592.755 231.94 592.789 228.114C592.755 224.219 593.513 220.359 595.014 216.78C596.445 213.377 598.527 210.302 601.137 207.734C603.797 205.142 606.911 203.087 610.316 201.676C613.919 200.176 617.777 199.42 621.667 199.451V199.451Z" fill="white"/>
<path d="M130.613 213.021H118.061C117.478 213.021 117.005 213.504 117.005 214.101V254.584C117.005 255.18 117.478 255.664 118.061 255.664H130.613C131.196 255.664 131.669 255.18 131.669 254.584V214.101C131.669 213.504 131.196 213.021 130.613 213.021Z" fill="white"/>
<path d="M153.614 200.74H141.062C140.479 200.74 140.006 201.223 140.006 201.82V254.583C140.006 255.18 140.479 255.664 141.062 255.664H153.614C154.197 255.664 154.67 255.18 154.67 254.583V201.82C154.67 201.223 154.197 200.74 153.614 200.74Z" fill="white"/>
<path d="M153.614 179.946H141.062C140.479 179.946 140.006 180.429 140.006 181.026V193.865C140.006 194.461 140.479 194.945 141.062 194.945H153.614C154.197 194.945 154.67 194.461 154.67 193.865V181.026C154.67 180.429 154.197 179.946 153.614 179.946Z" fill="white"/>
<path d="M107.608 231.448H95.0562C94.4729 231.448 94 231.932 94 232.529V254.587C94 255.184 94.4729 255.667 95.0562 255.667H107.608C108.191 255.667 108.664 255.184 108.664 254.587V232.529C108.664 231.932 108.191 231.448 107.608 231.448Z" fill="white"/>
<path d="M587.635 240.668H575.083C574.5 240.668 574.027 241.152 574.027 241.748V254.587C574.027 255.184 574.5 255.668 575.083 255.668H587.635C588.218 255.668 588.691 255.184 588.691 254.587V241.748C588.691 241.152 588.218 240.668 587.635 240.668Z" fill="white"/>
</g>
<defs>
<linearGradient id="paint0_linear" x1="1123" y1="571.401" x2="-344.898" y2="289.856" gradientUnits="userSpaceOnUse">
<stop stop-color="#35CE99"/>
<stop offset="1" stop-color="#8158C9"/>
</linearGradient>
<clipPath id="clip0">
<rect width="613" height="86" fill="white" transform="translate(94 171)"/>
</clipPath>
</defs>
</svg>
