<svg width="802" height="427" viewBox="0 0 802 427" fill="none" xmlns="http://www.w3.org/2000/svg">
<rect width="802" height="426.397" fill="#3E4051"/>
<g clip-path="url(#clip0)">
<path d="M237.375 191.496C239.673 191.465 241.954 191.898 244.086 192.772C246.017 193.566 247.753 194.783 249.172 196.337C250.587 197.927 251.67 199.795 252.356 201.827C253.126 204.132 253.504 206.554 253.471 208.989V235.092C253.471 235.319 253.383 235.536 253.226 235.696C253.069 235.857 252.857 235.947 252.635 235.947H242.759C242.537 235.947 242.325 235.857 242.168 235.696C242.011 235.536 241.923 235.319 241.923 235.092V210.555C241.923 208.038 241.206 206.003 239.773 204.45C238.34 202.897 236.419 202.12 234.01 202.12C231.593 202.12 229.642 202.897 228.155 204.45C226.668 206.003 225.924 208.038 225.924 210.555V235.092C225.924 235.319 225.836 235.536 225.679 235.696C225.522 235.857 225.31 235.947 225.088 235.947H215.156C214.934 235.947 214.722 235.857 214.565 235.696C214.408 235.536 214.32 235.319 214.32 235.092V193.313C214.32 193.086 214.408 192.869 214.565 192.709C214.722 192.549 214.934 192.459 215.156 192.459H224.148C224.37 192.459 224.583 192.549 224.74 192.709C224.896 192.869 224.985 193.086 224.985 193.313V196.499C226.519 194.948 228.33 193.71 230.318 192.852C232.556 191.913 234.957 191.452 237.375 191.496V191.496Z" fill="white"/>
<path d="M461.374 191.496C464.174 191.46 466.953 191.998 469.546 193.079C471.913 194.067 474.063 195.53 475.866 197.382C477.628 199.216 479.004 201.4 479.909 203.797C480.868 206.317 481.351 208.999 481.331 211.702C481.333 212.908 481.246 214.112 481.072 215.304C480.949 216.159 480.824 216.888 480.701 217.517C480.663 217.713 480.558 217.89 480.405 218.015C480.252 218.141 480.061 218.207 479.865 218.203H450.62C451.363 221.017 452.797 223.155 454.922 224.619C457.046 226.082 459.654 226.811 462.745 226.806C464.908 226.83 467.055 226.428 469.069 225.621C470.77 224.914 472.388 224.016 473.895 222.944C473.989 222.879 474.095 222.834 474.207 222.812C474.319 222.789 474.434 222.791 474.545 222.816C474.656 222.84 474.761 222.888 474.854 222.956C474.946 223.023 475.024 223.11 475.083 223.209L478.986 229.861C479.09 230.038 479.127 230.246 479.092 230.449C479.056 230.651 478.951 230.834 478.794 230.963C476.594 232.761 474.145 234.216 471.528 235.283C468.624 236.443 465.529 237.023 462.411 236.991C459.204 237.025 456.021 236.428 453.034 235.235C450.279 234.136 447.765 232.491 445.637 230.394C443.57 228.341 441.917 225.893 440.775 223.189C439.585 220.359 438.984 217.308 439.012 214.228C438.955 209.746 440.216 205.349 442.631 201.605C445.046 197.862 448.505 194.945 452.56 193.23C455.354 192.053 458.352 191.464 461.374 191.496V191.496ZM460.941 201.072C458.56 201.022 456.24 201.849 454.406 203.402C452.569 204.952 451.307 207.104 450.62 209.857H470.137C470.02 207.045 469.074 204.878 467.298 203.356C465.52 201.833 463.262 201.02 460.941 201.067V201.072Z" fill="white"/>
<path d="M274.745 186.396C274.745 183.879 275.303 182.125 276.574 181.125C277.845 180.126 279.727 179.63 282.306 179.63C283.166 179.637 284.025 179.688 284.88 179.784C284.997 179.797 285.116 179.785 285.228 179.748C285.341 179.711 285.444 179.65 285.532 179.569C285.62 179.489 285.69 179.39 285.737 179.28C285.785 179.169 285.809 179.05 285.808 178.93V170.586C285.809 170.403 285.751 170.225 285.645 170.078C285.538 169.931 285.389 169.823 285.217 169.769C284.492 169.552 283.755 169.383 283.009 169.262C281.827 169.079 280.633 168.991 279.437 169C274.449 169 270.429 170.333 267.448 172.987C264.468 175.641 262.943 179.767 262.943 185.331V191.946C262.943 192.097 262.884 192.242 262.779 192.349C262.675 192.455 262.533 192.515 262.385 192.515H258.983C258.762 192.515 258.549 192.605 258.392 192.766C258.235 192.926 258.147 193.143 258.147 193.37V201.371C258.147 201.598 258.235 201.815 258.392 201.975C258.549 202.136 258.762 202.226 258.983 202.226H262.385C262.533 202.226 262.675 202.286 262.779 202.392C262.884 202.499 262.943 202.644 262.943 202.795V235.101C262.943 235.327 263.031 235.545 263.188 235.705C263.345 235.865 263.557 235.955 263.779 235.955H273.909C274.13 235.955 274.343 235.865 274.5 235.705C274.657 235.545 274.745 235.327 274.745 235.101V202.795C274.745 202.644 274.804 202.499 274.908 202.392C275.013 202.286 275.155 202.226 275.303 202.226H282.092C282.314 202.226 282.526 202.136 282.683 201.975C282.84 201.815 282.928 201.598 282.928 201.371V193.398C282.928 193.172 282.84 192.954 282.683 192.794C282.526 192.634 282.314 192.544 282.092 192.544H275.305C275.157 192.544 275.016 192.484 274.911 192.377C274.807 192.27 274.748 192.125 274.748 191.974L274.745 186.396Z" fill="white"/>
<path d="M530.632 235.947H521.637C521.415 235.947 521.202 235.856 521.045 235.696C520.889 235.536 520.8 235.319 520.8 235.092V230.676C519.32 232.717 517.349 234.335 515.079 235.374C512.756 236.46 510.103 237.002 507.122 237C504.254 237.039 501.411 236.456 498.779 235.292C496.312 234.193 494.099 232.576 492.283 230.548C490.427 228.446 488.982 226 488.026 223.343C486.972 220.434 486.447 217.353 486.478 214.251C486.448 211.149 486.972 208.068 488.026 205.159C488.987 202.494 490.448 200.047 492.328 197.954C494.163 195.929 496.388 194.312 498.863 193.204C501.467 192.047 504.282 191.465 507.122 191.496C509.627 191.459 512.114 191.938 514.435 192.903C516.535 193.784 518.416 195.135 519.939 196.855V170.908C519.939 170.681 520.027 170.464 520.184 170.304C520.341 170.144 520.554 170.054 520.775 170.054H530.632C530.853 170.054 531.066 170.144 531.223 170.304C531.38 170.464 531.468 170.681 531.468 170.908V235.092C531.468 235.319 531.38 235.536 531.223 235.696C531.066 235.856 530.853 235.947 530.632 235.947V235.947ZM509.188 202.208C507.742 202.2 506.31 202.483 504.972 203.043C503.632 203.597 502.419 204.431 501.411 205.489C500.403 206.548 499.622 207.81 499.117 209.194C497.97 212.412 497.97 215.941 499.117 219.16C499.649 220.559 500.437 221.841 501.439 222.939C502.415 223.993 503.605 224.817 504.925 225.354C506.277 225.912 507.723 226.195 509.182 226.188C510.513 226.184 511.834 225.946 513.086 225.485C514.377 225.016 515.562 224.283 516.568 223.332C517.651 222.298 518.507 221.041 519.077 219.644C519.707 218.15 520.023 216.347 520.023 214.234C520.062 212.401 519.741 210.578 519.077 208.875C518.515 207.461 517.682 206.176 516.627 205.096C515.647 204.119 514.473 203.37 513.183 202.9C511.9 202.438 510.549 202.203 509.188 202.208V202.208Z" fill="white"/>
<path d="M620.834 191.496C626.85 191.468 632.644 193.814 637.005 198.045C639.082 200.082 640.748 202.514 641.91 205.204C643.128 208.026 643.744 211.081 643.717 214.166C643.742 217.264 643.126 220.333 641.91 223.172C640.756 225.88 639.089 228.329 637.005 230.377C632.635 234.597 626.849 236.949 620.834 236.949C614.82 236.949 609.033 234.597 604.663 230.377C602.585 228.334 600.932 225.883 599.803 223.172C598.615 220.326 598.015 217.26 598.041 214.166C598.009 211.159 598.58 208.178 599.719 205.406C600.858 202.633 602.54 200.129 604.663 198.045C606.76 196.004 609.21 194.38 611.89 193.256C614.727 192.067 617.768 191.469 620.834 191.496V191.496ZM620.834 202.317C617.563 202.317 614.91 203.444 612.877 205.7C610.843 207.955 609.821 210.81 609.81 214.265C609.81 217.722 610.832 220.548 612.877 222.742C614.921 224.937 617.574 226.028 620.834 226.017C622.325 226.029 623.804 225.731 625.178 225.14C626.494 224.576 627.68 223.738 628.661 222.68C629.657 221.595 630.444 220.328 630.983 218.947C631.569 217.452 631.861 215.855 631.845 214.245C631.858 212.622 631.566 211.011 630.983 209.501C630.451 208.102 629.663 206.82 628.661 205.722C627.674 204.661 626.49 203.81 625.178 203.219C623.811 202.6 622.33 202.286 620.834 202.297V202.317Z" fill="white"/>
<path d="M307.238 191.496C313.254 191.468 319.048 193.814 323.41 198.045C325.486 200.082 327.152 202.514 328.314 205.204C329.532 208.026 330.148 211.081 330.121 214.165C330.146 217.264 329.53 220.333 328.314 223.172C327.16 225.88 325.493 228.329 323.41 230.377C319.04 234.598 313.253 236.95 307.238 236.95C301.223 236.95 295.437 234.598 291.067 230.377C288.987 228.334 287.333 225.884 286.204 223.172C285.017 220.326 284.417 217.26 284.442 214.165C284.415 211.086 285.015 208.034 286.204 205.204C287.341 202.51 288.994 200.076 291.067 198.045C295.416 193.794 301.218 191.445 307.238 191.496V191.496ZM307.238 202.317C303.967 202.317 301.314 203.444 299.281 205.7C297.247 207.955 296.225 210.81 296.214 214.265C296.214 217.722 297.236 220.548 299.281 222.742C301.325 224.937 303.978 226.035 307.238 226.037C308.73 226.049 310.208 225.751 311.582 225.16C312.899 224.596 314.086 223.758 315.067 222.7C316.062 221.613 316.849 220.347 317.39 218.966C317.973 217.471 318.265 215.874 318.249 214.265C318.262 212.642 317.97 211.032 317.39 209.521C316.856 208.12 316.068 206.835 315.067 205.734C314.079 204.672 312.895 203.821 311.582 203.231C310.216 202.608 308.735 202.289 307.238 202.297V202.317Z" fill="white"/>
<path d="M358.468 191.931C359.5 191.918 360.53 192.033 361.535 192.273C361.714 192.321 361.872 192.428 361.985 192.577C362.098 192.727 362.159 192.91 362.16 193.099V202.057C362.16 202.284 362.071 202.501 361.915 202.661C361.758 202.822 361.545 202.912 361.323 202.912H359.062C355.735 202.912 353.011 203.82 350.89 205.637C348.769 207.454 347.708 210.323 347.708 214.245V235.092C347.708 235.319 347.62 235.536 347.463 235.696C347.307 235.856 347.094 235.946 346.872 235.946H336.946C336.724 235.946 336.512 235.856 336.355 235.696C336.198 235.536 336.11 235.319 336.11 235.092V193.312C336.11 193.086 336.198 192.869 336.355 192.708C336.512 192.548 336.724 192.458 336.946 192.458H345.941C346.163 192.458 346.375 192.548 346.532 192.708C346.689 192.869 346.777 193.086 346.777 193.312V197.641C348.141 195.819 349.91 194.354 351.938 193.369C353.983 192.399 356.214 191.907 358.468 191.931Z" fill="white"/>
<path d="M417.56 191.496C419.885 191.459 422.195 191.892 424.355 192.771C426.282 193.567 428.015 194.784 429.432 196.337C430.842 197.923 431.912 199.793 432.572 201.827C433.315 204.137 433.679 206.557 433.648 208.988V235.092C433.648 235.319 433.56 235.536 433.403 235.696C433.246 235.856 433.033 235.946 432.812 235.946H422.874C422.653 235.946 422.44 235.856 422.283 235.696C422.126 235.536 422.038 235.319 422.038 235.092V210.643C422.038 208.01 421.35 205.945 419.975 204.449C418.599 202.953 416.764 202.206 414.468 202.208C412.117 202.208 410.225 202.955 408.791 204.449C407.358 205.943 406.642 207.921 406.642 210.381V235.092C406.642 235.319 406.554 235.536 406.397 235.696C406.24 235.856 406.027 235.946 405.805 235.946H395.86C395.638 235.946 395.425 235.856 395.269 235.696C395.112 235.536 395.024 235.319 395.024 235.092V210.643C395.024 208.01 394.335 205.945 392.957 204.449C391.58 202.953 389.717 202.206 387.367 202.208C385.014 202.208 383.136 202.955 381.732 204.449C380.329 205.943 379.626 208.008 379.624 210.643V235.092C379.624 235.319 379.536 235.536 379.38 235.696C379.223 235.856 379.01 235.946 378.788 235.946H368.848C368.626 235.946 368.414 235.856 368.257 235.696C368.1 235.536 368.012 235.319 368.012 235.092V193.313C368.012 193.086 368.1 192.869 368.257 192.708C368.414 192.548 368.626 192.458 368.848 192.458H377.843C378.065 192.458 378.277 192.548 378.434 192.708C378.591 192.869 378.679 193.086 378.679 193.313V196.337C380.136 194.791 381.894 193.574 383.84 192.766C386.029 191.883 388.368 191.451 390.721 191.496C393.588 191.496 396.068 192.038 398.163 193.122C400.229 194.184 401.991 195.773 403.279 197.735C404.996 195.819 407.074 194.278 409.388 193.204C411.957 192.03 414.747 191.446 417.56 191.496Z" fill="white"/>
<path d="M576.146 191.496C580.389 191.496 584.074 192.462 587.201 194.395C590.079 196.165 592.498 198.618 594.252 201.545C594.365 201.725 594.408 201.942 594.372 202.153C594.336 202.364 594.223 202.554 594.057 202.684L587.24 208.094C587.152 208.164 587.051 208.215 586.944 208.244C586.837 208.273 586.725 208.28 586.615 208.265C586.505 208.25 586.399 208.212 586.303 208.154C586.207 208.097 586.124 208.02 586.058 207.929C584.992 206.45 583.709 205.147 582.254 204.068C580.645 202.898 578.637 202.313 576.232 202.311C574.679 202.288 573.14 202.602 571.715 203.234C570.403 203.823 569.219 204.674 568.233 205.737C567.24 206.817 566.465 208.087 565.952 209.473C565.395 210.973 565.118 212.567 565.135 214.171C565.12 215.79 565.397 217.398 565.952 218.915C566.457 220.318 567.232 221.603 568.233 222.694C569.219 223.756 570.403 224.607 571.715 225.197C573.14 225.828 574.679 226.143 576.232 226.119C578.648 226.119 580.656 225.534 582.254 224.363C583.684 223.309 584.942 222.032 585.982 220.578C586.048 220.487 586.131 220.41 586.227 220.352C586.322 220.293 586.428 220.255 586.538 220.239C586.648 220.223 586.76 220.23 586.868 220.259C586.975 220.288 587.076 220.338 587.164 220.407L593.979 225.738C594.147 225.867 594.262 226.055 594.3 226.266C594.338 226.477 594.297 226.695 594.185 226.877C592.469 229.818 590.076 232.287 587.215 234.07C584.086 236.029 580.401 237.01 576.159 237.011C573.079 237.037 570.024 236.44 567.17 235.254C564.465 234.133 561.997 232.49 559.902 230.414C557.78 228.301 556.1 225.772 554.961 222.979C553.823 220.185 553.25 217.185 553.277 214.16C553.25 211.08 553.85 208.028 555.039 205.198C556.172 202.508 557.821 200.076 559.888 198.045C561.994 195.996 564.46 194.371 567.156 193.256C570.01 192.069 573.065 191.471 576.146 191.496V191.496Z" fill="white"/>
<path d="M187.272 202.226H177.332C176.87 202.226 176.496 202.608 176.496 203.08V235.089C176.496 235.561 176.87 235.944 177.332 235.944H187.272C187.734 235.944 188.108 235.561 188.108 235.089V203.08C188.108 202.608 187.734 202.226 187.272 202.226Z" fill="#35CE99"/>
<path d="M205.487 192.515H195.547C195.085 192.515 194.711 192.898 194.711 193.369V235.089C194.711 235.561 195.085 235.943 195.547 235.943H205.487C205.949 235.943 206.323 235.561 206.323 235.089V193.369C206.323 192.898 205.949 192.515 205.487 192.515Z" fill="white"/>
<path d="M205.487 176.073H195.547C195.085 176.073 194.711 176.456 194.711 176.928V187.079C194.711 187.551 195.085 187.933 195.547 187.933H205.487C205.949 187.933 206.323 187.551 206.323 187.079V176.928C206.323 176.456 205.949 176.073 205.487 176.073Z" fill="white"/>
<path d="M169.054 216.796H159.114C158.652 216.796 158.278 217.179 158.278 217.651V235.092C158.278 235.564 158.652 235.946 159.114 235.946H169.054C169.516 235.946 169.89 235.564 169.89 235.092V217.651C169.89 217.179 169.516 216.796 169.054 216.796Z" fill="#8158C9"/>
<path d="M549.195 224.086H539.255C538.793 224.086 538.419 224.469 538.419 224.941V235.092C538.419 235.564 538.793 235.947 539.255 235.947H549.195C549.657 235.947 550.032 235.564 550.032 235.092V224.941C550.032 224.469 549.657 224.086 549.195 224.086Z" fill="white"/>
</g>
<defs>
<clipPath id="clip0">
<rect width="485.444" height="68" fill="white" transform="translate(158.278 169)"/>
</clipPath>
</defs>
</svg>
