<svg width="802" height="431" viewBox="0 0 802 431" fill="none" xmlns="http://www.w3.org/2000/svg">
<rect width="802" height="431" fill="white"/>
<rect width="802" height="431" fill="url(#paint0_linear)"/>
<rect x="56" y="52" width="684" height="322" fill="white"/>
<g clip-path="url(#clip0)">
<path d="M216.75 194.819C219.183 194.786 221.598 195.245 223.856 196.17C225.9 197.011 227.738 198.299 229.241 199.945C230.739 201.629 231.886 203.607 232.612 205.758C233.428 208.198 233.827 210.763 233.793 213.341V240.98C233.793 241.22 233.7 241.45 233.534 241.62C233.368 241.789 233.142 241.885 232.907 241.885H222.451C222.216 241.885 221.991 241.789 221.825 241.62C221.659 241.45 221.565 241.22 221.565 240.98V214.999C221.565 212.334 220.806 210.179 219.289 208.535C217.772 206.891 215.738 206.069 213.187 206.069C210.628 206.069 208.562 206.891 206.987 208.535C205.413 210.179 204.626 212.334 204.626 214.999V240.98C204.626 241.22 204.532 241.45 204.366 241.62C204.2 241.789 203.975 241.885 203.74 241.885H193.224C192.989 241.885 192.764 241.789 192.598 241.62C192.432 241.45 192.339 241.22 192.339 240.98V196.743C192.339 196.503 192.432 196.273 192.598 196.103C192.764 195.934 192.989 195.838 193.224 195.838H202.745C202.98 195.838 203.205 195.934 203.371 196.103C203.537 196.273 203.631 196.503 203.631 196.743V200.117C205.256 198.474 207.172 197.163 209.278 196.254C211.647 195.261 214.19 194.772 216.75 194.819V194.819Z" fill="#515362"/>
<path d="M453.925 194.819C456.89 194.781 459.832 195.351 462.578 196.496C465.085 197.541 467.361 199.09 469.27 201.051C471.136 202.994 472.593 205.306 473.551 207.844C474.566 210.512 475.077 213.352 475.057 216.214C475.059 217.491 474.967 218.766 474.782 220.028C474.652 220.933 474.519 221.705 474.389 222.371C474.349 222.579 474.238 222.766 474.076 222.898C473.914 223.031 473.711 223.102 473.504 223.098H442.538C443.326 226.076 444.844 228.341 447.094 229.891C449.343 231.44 452.104 232.212 455.377 232.206C457.668 232.232 459.941 231.806 462.073 230.952C463.874 230.203 465.588 229.252 467.183 228.118C467.283 228.048 467.395 228 467.513 227.977C467.632 227.954 467.753 227.955 467.871 227.981C467.989 228.007 468.1 228.058 468.198 228.13C468.296 228.201 468.379 228.293 468.441 228.398L472.574 235.441C472.683 235.628 472.723 235.849 472.685 236.064C472.648 236.278 472.536 236.471 472.37 236.608C470.04 238.511 467.448 240.053 464.677 241.182C461.602 242.41 458.325 243.024 455.023 242.991C451.628 243.026 448.257 242.395 445.095 241.131C442.178 239.968 439.516 238.226 437.263 236.005C435.074 233.832 433.324 231.24 432.114 228.377C430.854 225.381 430.219 222.149 430.248 218.889C430.188 214.142 431.523 209.487 434.08 205.523C436.637 201.56 440.299 198.471 444.593 196.655C447.551 195.41 450.725 194.785 453.925 194.819V194.819ZM453.467 204.959C450.946 204.906 448.489 205.781 446.547 207.425C444.603 209.067 443.267 211.346 442.538 214.26H463.204C463.08 211.283 462.078 208.989 460.198 207.377C458.315 205.765 455.924 204.904 453.467 204.953V204.959Z" fill="#515362"/>
<path d="M256.318 189.419C256.318 186.754 256.909 184.897 258.255 183.838C259.601 182.78 261.594 182.255 264.325 182.255C265.235 182.263 266.144 182.317 267.049 182.418C267.174 182.432 267.299 182.419 267.418 182.38C267.537 182.341 267.647 182.277 267.74 182.191C267.832 182.106 267.907 182.001 267.957 181.884C268.008 181.768 268.033 181.641 268.032 181.514V172.68C268.033 172.486 267.972 172.297 267.859 172.142C267.747 171.986 267.588 171.871 267.407 171.814C266.639 171.585 265.858 171.406 265.068 171.278C263.817 171.084 262.552 170.991 261.287 171C256.005 171 251.748 172.411 248.592 175.221C245.437 178.031 243.822 182.4 243.822 188.292V195.296C243.822 195.456 243.759 195.609 243.649 195.722C243.538 195.835 243.388 195.899 243.231 195.899H239.63C239.395 195.899 239.169 195.994 239.003 196.164C238.837 196.333 238.744 196.563 238.744 196.803V205.276C238.744 205.515 238.837 205.745 239.003 205.915C239.169 206.085 239.395 206.18 239.63 206.18H243.231C243.388 206.18 243.538 206.244 243.649 206.357C243.759 206.47 243.822 206.623 243.822 206.783V240.989C243.822 241.229 243.915 241.459 244.081 241.629C244.247 241.798 244.472 241.894 244.707 241.894H255.433C255.667 241.894 255.893 241.798 256.059 241.629C256.225 241.459 256.318 241.229 256.318 240.989V206.783C256.318 206.623 256.38 206.47 256.491 206.357C256.602 206.244 256.752 206.18 256.909 206.18H264.097C264.332 206.18 264.557 206.085 264.723 205.915C264.89 205.745 264.983 205.515 264.983 205.276V196.833C264.983 196.593 264.89 196.363 264.723 196.194C264.557 196.024 264.332 195.929 264.097 195.929H256.912C256.755 195.929 256.605 195.865 256.494 195.752C256.383 195.639 256.321 195.486 256.321 195.326L256.318 189.419Z" fill="#515362"/>
<path d="M527.257 241.885H517.733C517.498 241.885 517.273 241.789 517.107 241.62C516.941 241.45 516.847 241.22 516.847 240.98V236.304C515.28 238.465 513.193 240.178 510.79 241.279C508.329 242.428 505.521 243.002 502.364 243C499.328 243.041 496.317 242.424 493.531 241.191C490.919 240.027 488.576 238.316 486.653 236.168C484.687 233.942 483.157 231.353 482.145 228.54C481.029 225.46 480.473 222.197 480.506 218.913C480.474 215.629 481.029 212.366 482.145 209.286C483.162 206.464 484.71 203.873 486.7 201.657C488.644 199.513 490.999 197.801 493.62 196.628C496.377 195.403 499.357 194.787 502.364 194.819C505.017 194.78 507.65 195.287 510.108 196.309C512.332 197.242 514.323 198.672 515.935 200.494V173.02C515.935 172.78 516.029 172.55 516.195 172.381C516.361 172.211 516.586 172.116 516.821 172.116H527.257C527.492 172.116 527.717 172.211 527.883 172.381C528.049 172.55 528.143 172.78 528.143 173.02V240.98C528.143 241.22 528.049 241.45 527.883 241.62C527.717 241.789 527.492 241.885 527.257 241.885V241.885ZM504.552 206.162C503.021 206.153 501.504 206.453 500.088 207.045C498.669 207.633 497.385 208.515 496.318 209.636C495.251 210.757 494.423 212.093 493.888 213.558C492.674 216.966 492.674 220.702 493.888 224.111C494.452 225.592 495.287 226.95 496.348 228.112C497.381 229.228 498.64 230.101 500.038 230.668C501.47 231.26 503.001 231.56 504.546 231.552C505.955 231.548 507.353 231.296 508.679 230.807C510.047 230.311 511.301 229.535 512.366 228.528C513.513 227.434 514.419 226.103 515.023 224.623C515.69 223.041 516.024 221.132 516.024 218.895C516.066 216.954 515.725 215.024 515.023 213.22C514.428 211.723 513.545 210.363 512.428 209.219C511.391 208.185 510.148 207.392 508.782 206.895C507.424 206.404 505.993 206.157 504.552 206.162V206.162Z" fill="#515362"/>
<path d="M622.766 194.819C629.135 194.789 635.27 197.274 639.888 201.754C642.087 203.91 643.851 206.485 645.081 209.334C646.371 212.322 647.023 215.557 646.994 218.822C647.021 222.103 646.369 225.353 645.081 228.359C643.859 231.226 642.094 233.819 639.888 235.987C635.261 240.456 629.134 242.946 622.766 242.946C616.397 242.946 610.27 240.456 605.643 235.987C603.443 233.824 601.693 231.229 600.497 228.359C599.239 225.345 598.604 222.099 598.632 218.822C598.598 215.639 599.203 212.483 600.408 209.547C601.614 206.612 603.396 203.96 605.643 201.754C607.863 199.593 610.458 197.873 613.295 196.683C616.299 195.424 619.519 194.791 622.766 194.819V194.819ZM622.766 206.277C619.302 206.277 616.493 207.471 614.34 209.858C612.187 212.246 611.105 215.27 611.093 218.928C611.093 222.588 612.175 225.58 614.34 227.904C616.505 230.227 619.314 231.383 622.766 231.371C624.345 231.384 625.91 231.068 627.365 230.442C628.758 229.846 630.014 228.958 631.052 227.837C632.107 226.688 632.941 225.348 633.512 223.885C634.131 222.302 634.441 220.611 634.424 218.907C634.438 217.188 634.128 215.483 633.512 213.884C632.948 212.403 632.113 211.045 631.052 209.883C630.007 208.758 628.754 207.857 627.365 207.232C625.917 206.577 624.349 206.244 622.766 206.255V206.277Z" fill="#515362"/>
<path d="M290.723 194.819C297.092 194.789 303.227 197.274 307.845 201.754C310.044 203.91 311.808 206.485 313.038 209.334C314.328 212.322 314.98 215.557 314.951 218.822C314.978 222.103 314.326 225.353 313.038 228.359C311.816 231.226 310.052 233.819 307.845 235.987C303.218 240.456 297.091 242.947 290.723 242.947C284.354 242.947 278.227 240.456 273.6 235.987C271.398 233.825 269.647 231.23 268.452 228.359C267.195 225.345 266.559 222.098 266.586 218.822C266.557 215.562 267.192 212.33 268.452 209.334C269.655 206.481 271.406 203.904 273.6 201.754C278.205 197.253 284.349 194.765 290.723 194.819V194.819ZM290.723 206.277C287.259 206.277 284.45 207.47 282.297 209.858C280.144 212.246 279.062 215.269 279.05 218.928C279.05 222.588 280.132 225.58 282.297 227.904C284.462 230.227 287.271 231.39 290.723 231.392C292.302 231.405 293.867 231.089 295.322 230.463C296.716 229.867 297.973 228.979 299.012 227.858C300.065 226.708 300.899 225.368 301.472 223.906C302.089 222.323 302.398 220.632 302.381 218.928C302.395 217.209 302.086 215.504 301.472 213.905C300.907 212.422 300.072 211.061 299.012 209.895C297.966 208.77 296.712 207.869 295.322 207.244C293.875 206.585 292.307 206.248 290.723 206.255V206.277Z" fill="#515362"/>
<path d="M344.966 195.281C346.059 195.267 347.149 195.388 348.214 195.642C348.403 195.693 348.57 195.806 348.69 195.964C348.81 196.123 348.875 196.317 348.875 196.517V206.002C348.875 206.242 348.782 206.472 348.615 206.642C348.449 206.811 348.224 206.907 347.989 206.907H345.595C342.072 206.907 339.188 207.869 336.942 209.792C334.696 211.716 333.574 214.754 333.574 218.907V240.98C333.574 241.22 333.48 241.45 333.314 241.62C333.148 241.789 332.923 241.885 332.688 241.885H322.178C321.943 241.885 321.718 241.789 321.552 241.62C321.386 241.45 321.293 241.22 321.293 240.98V196.743C321.293 196.503 321.386 196.273 321.552 196.103C321.718 195.934 321.943 195.838 322.178 195.838H331.702C331.937 195.838 332.162 195.934 332.328 196.103C332.494 196.273 332.588 196.503 332.588 196.743V201.326C334.032 199.396 335.905 197.846 338.052 196.803C340.217 195.775 342.579 195.255 344.966 195.281Z" fill="#515362"/>
<path d="M407.534 194.819C409.996 194.78 412.441 195.239 414.729 196.17C416.769 197.012 418.604 198.3 420.105 199.945C421.598 201.624 422.73 203.605 423.429 205.758C424.216 208.204 424.601 210.766 424.568 213.341V240.98C424.568 241.22 424.475 241.45 424.309 241.62C424.143 241.789 423.918 241.885 423.683 241.885H413.161C412.926 241.885 412.701 241.789 412.535 241.62C412.369 241.45 412.276 241.22 412.276 240.98V215.093C412.276 212.305 411.547 210.119 410.091 208.535C408.635 206.951 406.691 206.16 404.26 206.162C401.771 206.162 399.767 206.953 398.25 208.535C396.732 210.117 395.974 212.21 395.974 214.815V240.98C395.974 241.22 395.88 241.45 395.714 241.62C395.548 241.789 395.323 241.885 395.088 241.885H384.558C384.323 241.885 384.097 241.789 383.931 241.62C383.765 241.45 383.672 241.22 383.672 240.98V215.093C383.672 212.305 382.943 210.119 381.484 208.535C380.026 206.951 378.053 206.16 375.565 206.162C373.074 206.162 371.085 206.953 369.599 208.535C368.113 210.117 367.369 212.303 367.367 215.093V240.98C367.367 241.22 367.274 241.45 367.108 241.62C366.942 241.789 366.716 241.885 366.481 241.885H355.957C355.722 241.885 355.497 241.789 355.331 241.62C355.165 241.45 355.071 241.22 355.071 240.98V196.743C355.071 196.503 355.165 196.273 355.331 196.103C355.497 195.934 355.722 195.838 355.957 195.838H365.481C365.716 195.838 365.941 195.934 366.107 196.103C366.273 196.273 366.366 196.503 366.366 196.743V199.945C367.909 198.308 369.77 197.02 371.831 196.164C374.149 195.229 376.625 194.772 379.117 194.819C382.152 194.819 384.778 195.393 386.996 196.541C389.184 197.665 391.05 199.348 392.413 201.425C394.231 199.397 396.431 197.765 398.882 196.628C401.601 195.385 404.555 194.767 407.534 194.819Z" fill="#515362"/>
<path d="M575.448 194.819C579.941 194.819 583.843 195.842 587.154 197.888C590.202 199.763 592.763 202.36 594.62 205.459C594.74 205.65 594.785 205.88 594.746 206.103C594.708 206.327 594.589 206.527 594.413 206.665L587.195 212.394C587.102 212.467 586.995 212.521 586.882 212.552C586.768 212.583 586.65 212.591 586.533 212.575C586.417 212.558 586.304 212.519 586.203 212.457C586.102 212.396 586.013 212.315 585.943 212.219C584.815 210.652 583.457 209.273 581.916 208.131C580.212 206.893 578.086 206.272 575.54 206.27C573.896 206.246 572.265 206.579 570.757 207.247C569.368 207.872 568.114 208.773 567.07 209.898C566.019 211.042 565.198 212.386 564.655 213.853C564.065 215.442 563.772 217.129 563.79 218.828C563.774 220.543 564.067 222.245 564.655 223.851C565.189 225.337 566.01 226.697 567.07 227.852C568.114 228.977 569.368 229.878 570.757 230.503C572.265 231.171 573.896 231.504 575.54 231.479C578.098 231.479 580.224 230.859 581.916 229.619C583.43 228.503 584.762 227.151 585.863 225.612C585.933 225.515 586.021 225.434 586.122 225.372C586.224 225.311 586.336 225.27 586.452 225.253C586.569 225.237 586.687 225.244 586.801 225.274C586.915 225.305 587.022 225.358 587.115 225.431L594.33 231.075C594.508 231.212 594.63 231.411 594.67 231.635C594.711 231.858 594.667 232.089 594.549 232.281C592.732 235.395 590.198 238.01 587.168 239.898C583.856 241.972 579.954 243.01 575.463 243.012C572.201 243.039 568.967 242.407 565.945 241.152C563.081 239.965 560.468 238.224 558.249 236.026C556.003 233.79 554.223 231.112 553.018 228.154C551.812 225.196 551.206 222.02 551.234 218.816C551.205 215.555 551.841 212.324 553.1 209.328C554.3 206.479 556.045 203.904 558.234 201.754C560.464 199.584 563.075 197.863 565.93 196.682C568.952 195.426 572.186 194.793 575.448 194.819V194.819Z" fill="#515362"/>
<path d="M163.7 206.18H153.175C152.686 206.18 152.289 206.585 152.289 207.084V240.977C152.289 241.476 152.686 241.881 153.175 241.881H163.7C164.189 241.881 164.585 241.476 164.585 240.977V207.084C164.585 206.585 164.189 206.18 163.7 206.18Z" fill="#35CE99"/>
<path d="M182.986 195.898H172.462C171.973 195.898 171.576 196.303 171.576 196.803V240.977C171.576 241.476 171.973 241.881 172.462 241.881H182.986C183.475 241.881 183.872 241.476 183.872 240.977V196.803C183.872 196.303 183.475 195.898 182.986 195.898Z" fill="#515362"/>
<path d="M182.986 178.489H172.462C171.973 178.489 171.576 178.894 171.576 179.394V190.143C171.576 190.642 171.973 191.047 172.462 191.047H182.986C183.475 191.047 183.872 190.642 183.872 190.143V179.394C183.872 178.894 183.475 178.489 182.986 178.489Z" fill="#515362"/>
<path d="M144.41 221.608H133.886C133.397 221.608 133 222.013 133 222.512V240.98C133 241.479 133.397 241.884 133.886 241.884H144.41C144.899 241.884 145.296 241.479 145.296 240.98V222.512C145.296 222.013 144.899 221.608 144.41 221.608Z" fill="#8158C9"/>
<path d="M546.913 229.327H536.388C535.899 229.327 535.502 229.732 535.502 230.231V240.98C535.502 241.48 535.899 241.885 536.388 241.885H546.913C547.402 241.885 547.798 241.48 547.798 240.98V230.231C547.798 229.732 547.402 229.327 546.913 229.327Z" fill="#515362"/>
</g>
<defs>
<linearGradient id="paint0_linear" x1="-298" y1="591" x2="1006.17" y2="-232.88" gradientUnits="userSpaceOnUse">
<stop stop-color="#35CE99"/>
<stop offset="1" stop-color="#8158C9"/>
</linearGradient>
<clipPath id="clip0">
<rect width="514" height="72" fill="white" transform="translate(133 171)"/>
</clipPath>
</defs>
</svg>
