<svg width="802" height="264" viewBox="0 0 802 264" fill="none" xmlns="http://www.w3.org/2000/svg">
<rect width="802" height="264" fill="#3E4051"/>
<g clip-path="url(#clip0)">
<path d="M241.929 116.173C244.135 116.143 246.324 116.551 248.371 117.373C250.224 118.121 251.891 119.266 253.253 120.729C254.612 122.226 255.652 123.984 256.31 125.896C257.049 128.065 257.411 130.345 257.381 132.636V157.204C257.381 157.418 257.296 157.622 257.145 157.773C256.995 157.924 256.791 158.008 256.578 158.008H247.097C246.884 158.008 246.68 157.924 246.53 157.773C246.379 157.622 246.295 157.418 246.295 157.204V134.11C246.295 131.741 245.607 129.826 244.231 128.364C242.855 126.903 241.011 126.172 238.699 126.172C236.379 126.172 234.505 126.903 233.078 128.364C231.651 129.826 230.937 131.741 230.937 134.11V157.204C230.937 157.418 230.852 157.622 230.702 157.773C230.551 157.924 230.347 158.008 230.134 158.008H220.6C220.387 158.008 220.183 157.924 220.032 157.773C219.882 157.622 219.797 157.418 219.797 157.204V117.882C219.797 117.669 219.882 117.465 220.032 117.314C220.183 117.163 220.387 117.078 220.6 117.078H229.232C229.445 117.078 229.649 117.163 229.8 117.314C229.95 117.465 230.035 117.669 230.035 117.882V120.881C231.508 119.421 233.246 118.256 235.155 117.448C237.303 116.565 239.608 116.131 241.929 116.173Z" fill="white"/>
<path d="M456.955 116.173C459.643 116.139 462.311 116.646 464.8 117.663C467.073 118.592 469.136 119.969 470.868 121.712C472.559 123.439 473.88 125.494 474.749 127.75C475.669 130.122 476.132 132.646 476.114 135.19C476.115 136.325 476.032 137.458 475.865 138.581C475.747 139.385 475.626 140.071 475.509 140.663C475.472 140.848 475.371 141.014 475.224 141.132C475.077 141.25 474.894 141.313 474.706 141.309H446.632C447.346 143.957 448.722 145.97 450.762 147.347C452.801 148.725 455.305 149.411 458.272 149.405C460.348 149.428 462.409 149.05 464.342 148.29C465.975 147.625 467.529 146.78 468.975 145.771C469.066 145.71 469.167 145.667 469.275 145.646C469.382 145.625 469.492 145.627 469.599 145.65C469.706 145.673 469.807 145.718 469.895 145.782C469.984 145.846 470.059 145.927 470.116 146.02L473.863 152.281C473.962 152.447 473.997 152.644 473.964 152.834C473.93 153.025 473.828 153.197 473.678 153.318C471.566 155.01 469.215 156.38 466.703 157.384C463.915 158.475 460.944 159.021 457.951 158.992C454.872 159.023 451.817 158.462 448.95 157.338C446.305 156.305 443.892 154.756 441.849 152.782C439.864 150.85 438.278 148.546 437.181 146.002C436.039 143.338 435.463 140.466 435.49 137.568C435.435 133.349 436.645 129.21 438.963 125.687C441.282 122.164 444.602 119.419 448.495 117.805C451.177 116.697 454.054 116.142 456.955 116.173ZM456.54 125.186C454.254 125.138 452.027 125.917 450.267 127.378C448.504 128.838 447.292 130.863 446.632 133.454H465.367C465.255 130.807 464.347 128.768 462.643 127.335C460.935 125.902 458.768 125.137 456.54 125.18V125.186Z" fill="white"/>
<path d="M277.802 111.373C277.802 109.003 278.337 107.352 279.558 106.412C280.778 105.471 282.585 105.005 285.061 105.005C285.886 105.011 286.711 105.059 287.531 105.149C287.644 105.162 287.758 105.15 287.866 105.116C287.973 105.081 288.073 105.024 288.157 104.948C288.241 104.872 288.308 104.779 288.354 104.675C288.4 104.571 288.423 104.459 288.422 104.345V96.4928C288.423 96.3207 288.367 96.153 288.265 96.0146C288.163 95.8761 288.019 95.7741 287.855 95.7236C287.159 95.5199 286.451 95.3605 285.735 95.2466C284.601 95.0742 283.454 94.9917 282.307 95C277.518 95 273.659 96.2543 270.798 98.7521C267.937 101.25 266.473 105.133 266.473 110.37V116.596C266.473 116.738 266.416 116.875 266.316 116.975C266.215 117.076 266.079 117.132 265.937 117.132H262.672C262.459 117.132 262.255 117.217 262.104 117.368C261.954 117.518 261.869 117.723 261.869 117.936V125.467C261.869 125.68 261.954 125.885 262.104 126.036C262.255 126.186 262.459 126.271 262.672 126.271H265.937C266.079 126.271 266.215 126.328 266.316 126.428C266.416 126.529 266.473 126.665 266.473 126.807V157.212C266.473 157.426 266.557 157.63 266.708 157.781C266.858 157.932 267.063 158.016 267.276 158.016H276.999C277.212 158.016 277.416 157.932 277.567 157.781C277.718 157.63 277.802 157.426 277.802 157.212V126.807C277.802 126.665 277.859 126.529 277.959 126.428C278.059 126.328 278.195 126.271 278.337 126.271H284.855C285.068 126.271 285.272 126.186 285.422 126.036C285.573 125.885 285.658 125.68 285.658 125.467V117.963C285.658 117.75 285.573 117.545 285.422 117.394C285.272 117.244 285.068 117.159 284.855 117.159H278.34C278.198 117.159 278.062 117.102 277.962 117.002C277.861 116.901 277.805 116.765 277.805 116.623L277.802 111.373Z" fill="white"/>
<path d="M523.439 158.008H514.805C514.592 158.008 514.388 157.924 514.237 157.773C514.086 157.622 514.002 157.418 514.002 157.204V153.048C512.58 154.969 510.689 156.492 508.51 157.47C506.279 158.492 503.733 159.002 500.871 159C498.118 159.036 495.389 158.488 492.863 157.392C490.495 156.358 488.37 154.836 486.627 152.927C484.845 150.949 483.457 148.647 482.54 146.146C481.528 143.408 481.025 140.508 481.054 137.589C481.025 134.67 481.528 131.77 482.54 129.032C483.462 126.524 484.865 124.22 486.67 122.251C488.432 120.345 490.568 118.823 492.943 117.781C495.443 116.691 498.145 116.144 500.871 116.173C503.276 116.138 505.664 116.588 507.891 117.497C509.908 118.326 511.713 119.597 513.175 121.216V96.7957C513.175 96.5824 513.259 96.3779 513.41 96.2271C513.561 96.0763 513.765 95.9916 513.978 95.9916H523.439C523.652 95.9916 523.856 96.0763 524.007 96.2271C524.158 96.3779 524.242 96.5824 524.242 96.7957V157.204C524.242 157.418 524.158 157.622 524.007 157.773C523.856 157.924 523.652 158.008 523.439 158.008ZM502.854 126.255C501.467 126.247 500.091 126.514 498.807 127.04C497.521 127.562 496.357 128.346 495.389 129.343C494.422 130.34 493.672 131.527 493.187 132.829C492.085 135.859 492.085 139.18 493.187 142.209C493.698 143.526 494.454 144.733 495.416 145.766C496.353 146.758 497.495 147.534 498.762 148.039C500.06 148.564 501.449 148.831 502.849 148.824C504.127 148.82 505.394 148.596 506.596 148.162C507.836 147.721 508.974 147.031 509.939 146.136C510.979 145.163 511.8 143.98 512.348 142.665C512.953 141.259 513.255 139.561 513.255 137.573C513.293 135.848 512.984 134.133 512.348 132.529C511.808 131.198 511.008 129.989 509.995 128.973C509.055 128.053 507.928 127.348 506.69 126.906C505.458 126.471 504.161 126.25 502.854 126.255Z" fill="white"/>
<path d="M610.029 116.173C615.804 116.146 621.365 118.354 625.552 122.337C627.546 124.253 629.145 126.542 630.26 129.074C631.43 131.731 632.021 134.606 631.995 137.509C632.019 140.425 631.428 143.314 630.26 145.986C629.153 148.534 627.553 150.839 625.552 152.766C621.357 156.738 615.802 158.951 610.029 158.951C604.255 158.951 598.7 156.738 594.505 152.766C592.51 150.843 590.924 148.537 589.84 145.986C588.699 143.307 588.123 140.421 588.149 137.509C588.118 134.679 588.666 131.873 589.759 129.264C590.853 126.655 592.468 124.297 594.505 122.337C596.518 120.416 598.871 118.887 601.443 117.829C604.166 116.71 607.085 116.147 610.029 116.173ZM610.029 126.357C606.888 126.357 604.342 127.418 602.39 129.541C600.438 131.663 599.457 134.351 599.446 137.602C599.446 140.856 600.427 143.516 602.39 145.581C604.353 147.646 606.899 148.674 610.029 148.663C611.46 148.675 612.879 148.394 614.199 147.838C615.462 147.307 616.6 146.518 617.542 145.522C618.498 144.501 619.254 143.309 619.771 142.008C620.333 140.602 620.614 139.099 620.598 137.584C620.611 136.056 620.33 134.54 619.771 133.119C619.26 131.802 618.504 130.595 617.542 129.562C616.594 128.563 615.458 127.762 614.199 127.206C612.886 126.624 611.465 126.328 610.029 126.338V126.357Z" fill="white"/>
<path d="M308.994 116.173C314.769 116.146 320.33 118.354 324.517 122.337C326.511 124.253 328.11 126.542 329.225 129.074C330.395 131.731 330.986 134.606 330.96 137.509C330.984 140.425 330.393 143.314 329.225 145.986C328.118 148.534 326.518 150.839 324.517 152.766C320.322 156.739 314.768 158.952 308.994 158.952C303.22 158.952 297.665 156.739 293.47 152.766C291.474 150.844 289.886 148.538 288.802 145.986C287.663 143.306 287.087 140.421 287.111 137.509C287.085 134.61 287.661 131.738 288.802 129.074C289.893 126.539 291.481 124.248 293.47 122.337C297.646 118.336 303.215 116.124 308.994 116.173ZM308.994 126.357C305.853 126.357 303.307 127.418 301.355 129.541C299.403 131.663 298.422 134.351 298.411 137.602C298.411 140.856 299.392 143.515 301.355 145.581C303.318 147.646 305.864 148.68 308.994 148.682C310.425 148.693 311.844 148.412 313.164 147.856C314.428 147.326 315.567 146.537 316.509 145.541C317.464 144.518 318.22 143.327 318.739 142.027C319.299 140.62 319.579 139.117 319.563 137.602C319.576 136.075 319.296 134.559 318.739 133.137C318.227 131.819 317.47 130.61 316.509 129.573C315.561 128.573 314.424 127.773 313.164 127.217C311.852 126.631 310.43 126.331 308.994 126.338V126.357Z" fill="white"/>
<path d="M358.172 116.583C359.162 116.57 360.151 116.678 361.116 116.904C361.287 116.949 361.439 117.05 361.548 117.191C361.656 117.331 361.715 117.504 361.715 117.681V126.113C361.715 126.326 361.631 126.531 361.48 126.681C361.33 126.832 361.125 126.917 360.912 126.917H358.742C355.548 126.917 352.933 127.772 350.897 129.482C348.861 131.192 347.843 133.892 347.843 137.584V157.204C347.843 157.418 347.758 157.622 347.608 157.773C347.457 157.924 347.253 158.008 347.04 158.008H337.512C337.299 158.008 337.095 157.924 336.944 157.773C336.793 157.622 336.709 157.418 336.709 157.204V117.882C336.709 117.669 336.793 117.465 336.944 117.314C337.095 117.163 337.299 117.078 337.512 117.078H346.146C346.359 117.078 346.563 117.163 346.714 117.314C346.865 117.465 346.949 117.669 346.949 117.882V121.956C348.258 120.241 349.956 118.863 351.903 117.936C353.866 117.023 356.008 116.56 358.172 116.583Z" fill="white"/>
<path d="M414.897 116.173C417.129 116.138 419.346 116.546 421.42 117.373C423.27 118.122 424.933 119.267 426.293 120.729C427.647 122.222 428.674 123.982 429.307 125.896C430.021 128.07 430.37 130.348 430.34 132.636V157.204C430.34 157.418 430.256 157.622 430.105 157.773C429.954 157.924 429.75 158.008 429.537 158.008H419.998C419.785 158.008 419.581 157.924 419.431 157.773C419.28 157.622 419.195 157.418 419.195 157.204V134.193C419.195 131.715 418.535 129.772 417.215 128.364C415.894 126.956 414.132 126.253 411.929 126.255C409.672 126.255 407.855 126.958 406.479 128.364C405.104 129.77 404.416 131.631 404.416 133.947V157.204C404.416 157.418 404.331 157.622 404.181 157.773C404.03 157.924 403.826 158.008 403.613 158.008H394.066C393.853 158.008 393.649 157.924 393.498 157.773C393.348 157.622 393.263 157.418 393.263 157.204V134.193C393.263 131.715 392.602 129.772 391.28 128.364C389.957 126.956 388.169 126.253 385.913 126.255C383.654 126.255 381.851 126.958 380.504 128.364C379.157 129.77 378.482 131.713 378.481 134.193V157.204C378.481 157.418 378.396 157.622 378.246 157.773C378.095 157.924 377.891 158.008 377.678 158.008H368.136C367.923 158.008 367.719 157.924 367.568 157.773C367.418 157.622 367.333 157.418 367.333 157.204V117.882C367.333 117.669 367.418 117.465 367.568 117.314C367.719 117.163 367.923 117.078 368.136 117.078H376.77C376.983 117.078 377.188 117.163 377.338 117.314C377.489 117.465 377.573 117.669 377.573 117.882V120.729C378.972 119.274 380.66 118.129 382.528 117.368C384.629 116.537 386.874 116.131 389.133 116.173C391.885 116.173 394.266 116.683 396.277 117.703C398.26 118.702 399.952 120.198 401.188 122.045C402.836 120.242 404.83 118.791 407.052 117.781C409.518 116.675 412.196 116.126 414.897 116.173Z" fill="white"/>
<path d="M567.13 116.173C571.204 116.173 574.741 117.082 577.742 118.901C580.506 120.567 582.828 122.875 584.511 125.631C584.62 125.8 584.661 126.005 584.626 126.203C584.591 126.402 584.484 126.58 584.324 126.703L577.78 131.795C577.695 131.86 577.599 131.908 577.496 131.935C577.393 131.963 577.286 131.97 577.18 131.955C577.074 131.941 576.973 131.905 576.881 131.851C576.789 131.797 576.709 131.725 576.645 131.639C575.622 130.247 574.391 129.021 572.994 128.005C571.449 126.904 569.522 126.353 567.213 126.351C565.723 126.33 564.245 126.626 562.877 127.22C561.618 127.775 560.481 128.576 559.534 129.576C558.581 130.593 557.837 131.787 557.345 133.092C556.81 134.504 556.544 136.004 556.561 137.514C556.546 139.038 556.812 140.551 557.345 141.979C557.829 143.299 558.574 144.509 559.534 145.535C560.481 146.535 561.618 147.336 562.877 147.891C564.245 148.485 565.723 148.781 567.213 148.76C569.533 148.76 571.46 148.208 572.994 147.106C574.366 146.114 575.574 144.912 576.573 143.544C576.636 143.458 576.716 143.386 576.808 143.331C576.899 143.276 577.001 143.24 577.106 143.225C577.212 143.21 577.32 143.217 577.423 143.244C577.526 143.271 577.623 143.318 577.708 143.383L584.249 148.4C584.41 148.521 584.52 148.699 584.557 148.898C584.594 149.096 584.555 149.301 584.447 149.472C582.8 152.24 580.503 154.564 577.756 156.242C574.753 158.086 571.215 159.009 567.143 159.011C564.186 159.035 561.254 158.473 558.514 157.357C555.918 156.302 553.549 154.755 551.537 152.801C549.501 150.813 547.887 148.433 546.795 145.803C545.702 143.174 545.152 140.351 545.178 137.503C545.151 134.605 545.727 131.733 546.869 129.069C547.957 126.537 549.539 124.248 551.523 122.337C553.545 120.408 555.913 118.879 558.501 117.829C561.24 116.712 564.173 116.149 567.13 116.173Z" fill="white"/>
<path d="M193.833 126.271H184.291C183.848 126.271 183.488 126.631 183.488 127.075V157.202C183.488 157.646 183.848 158.006 184.291 158.006H193.833C194.276 158.006 194.636 157.646 194.636 157.202V127.075C194.636 126.631 194.276 126.271 193.833 126.271Z" fill="#35CE99"/>
<path d="M211.318 117.132H201.777C201.333 117.132 200.974 117.492 200.974 117.936V157.202C200.974 157.646 201.333 158.006 201.777 158.006H211.318C211.762 158.006 212.121 157.646 212.121 157.202V117.936C212.121 117.492 211.762 117.132 211.318 117.132Z" fill="white"/>
<path d="M211.318 101.657H201.777C201.333 101.657 200.974 102.017 200.974 102.461V112.016C200.974 112.46 201.333 112.82 201.777 112.82H211.318C211.762 112.82 212.121 112.46 212.121 112.016V102.461C212.121 102.017 211.762 101.657 211.318 101.657Z" fill="white"/>
<path d="M176.345 139.985H166.803C166.359 139.985 166 140.345 166 140.789V157.204C166 157.648 166.359 158.008 166.803 158.008H176.345C176.788 158.008 177.148 157.648 177.148 157.204V140.789C177.148 140.345 176.788 139.985 176.345 139.985Z" fill="#8158C9"/>
<path d="M541.259 146.846H531.717C531.274 146.846 530.915 147.206 530.915 147.65V157.204C530.915 157.648 531.274 158.008 531.717 158.008H541.259C541.703 158.008 542.062 157.648 542.062 157.204V147.65C542.062 147.206 541.703 146.846 541.259 146.846Z" fill="white"/>
</g>
<defs>
<clipPath id="clip0">
<rect width="466" height="64" fill="white" transform="translate(166 95)"/>
</clipPath>
</defs>
</svg>
