<svg width="802" height="264" viewBox="0 0 802 264" fill="none" xmlns="http://www.w3.org/2000/svg">
<rect width="802" height="264" fill="white"/>
<g clip-path="url(#clip0)">
<path d="M132.536 113.39C136.298 113.34 140.034 114.041 143.526 115.454C146.688 116.738 149.531 118.707 151.855 121.221C154.173 123.794 155.947 126.815 157.07 130.102C158.331 133.83 158.949 137.749 158.896 141.687V183.914C158.896 184.28 158.752 184.632 158.495 184.891C158.238 185.15 157.889 185.296 157.526 185.296H141.353C140.99 185.296 140.641 185.15 140.384 184.891C140.128 184.632 139.983 184.28 139.983 183.914V144.221C139.983 140.149 138.81 136.857 136.463 134.345C134.116 131.833 130.97 130.577 127.025 130.577C123.067 130.577 119.871 131.833 117.436 134.345C115 136.857 113.783 140.149 113.783 144.221V183.914C113.783 184.28 113.639 184.632 113.382 184.891C113.125 185.15 112.776 185.296 112.413 185.296H96.1485C95.7852 185.296 95.4368 185.15 95.1799 184.891C94.923 184.632 94.7787 184.28 94.7787 183.914V116.329C94.7787 115.963 94.923 115.611 95.1799 115.352C95.4368 115.093 95.7852 114.947 96.1485 114.947H110.874C111.238 114.947 111.586 115.093 111.843 115.352C112.1 115.611 112.244 115.963 112.244 116.329V121.484C114.757 118.974 117.722 116.972 120.979 115.583C124.643 114.065 128.576 113.318 132.536 113.39V113.39Z" fill="#3E4051"/>
<path d="M499.372 113.39C503.958 113.332 508.509 114.203 512.755 115.951C516.633 117.549 520.153 119.916 523.107 122.912C525.992 125.879 528.245 129.411 529.728 133.29C531.298 137.365 532.088 141.704 532.056 146.077C532.059 148.027 531.917 149.975 531.632 151.904C531.431 153.286 531.225 154.465 531.025 155.483C530.961 155.801 530.79 156.086 530.539 156.289C530.289 156.492 529.976 156.6 529.655 156.593H481.761C482.978 161.144 485.327 164.604 488.806 166.972C492.286 169.339 496.556 170.518 501.619 170.509C505.161 170.549 508.677 169.898 511.975 168.593C514.76 167.449 517.411 165.997 519.879 164.263C520.033 164.157 520.206 164.084 520.389 164.048C520.572 164.012 520.761 164.014 520.943 164.055C521.125 164.095 521.297 164.172 521.448 164.281C521.6 164.391 521.728 164.53 521.824 164.691L528.216 175.452C528.385 175.737 528.446 176.075 528.389 176.402C528.331 176.73 528.158 177.025 527.901 177.235C524.298 180.142 520.288 182.497 516.002 184.222C511.246 186.098 506.177 187.036 501.071 186.986C495.819 187.04 490.606 186.075 485.715 184.144C481.204 182.367 477.086 179.706 473.601 176.313C470.215 172.993 467.509 169.033 465.638 164.659C463.689 160.082 462.706 155.145 462.752 150.163C462.658 142.912 464.723 135.799 468.678 129.744C472.633 123.689 478.297 118.969 484.939 116.196C489.514 114.292 494.423 113.338 499.372 113.39V113.39ZM498.664 128.881C494.764 128.8 490.965 130.138 487.961 132.65C484.954 135.158 482.887 138.639 481.761 143.092H513.724C513.532 138.544 511.982 135.039 509.075 132.576C506.163 130.113 502.464 128.797 498.664 128.872V128.881Z" fill="#3E4051"/>
<path d="M193.735 105.14C193.735 101.068 194.649 98.2308 196.731 96.6139C198.813 94.9971 201.895 94.1956 206.119 94.1956C207.527 94.2066 208.933 94.2896 210.333 94.4443C210.525 94.4658 210.72 94.446 210.904 94.3862C211.088 94.3264 211.257 94.228 211.401 94.0975C211.544 93.967 211.659 93.8073 211.737 93.6289C211.815 93.4505 211.855 93.2574 211.854 93.0624V79.5658C211.854 79.2699 211.76 78.9818 211.586 78.7438C211.411 78.5058 211.166 78.3305 210.886 78.2437C209.699 77.8935 208.491 77.6196 207.269 77.4238C205.334 77.1274 203.378 76.9857 201.42 77C193.251 77 186.667 79.1558 181.786 83.4489C176.905 87.7421 174.407 94.4167 174.407 103.418V114.118C174.407 114.362 174.311 114.597 174.14 114.77C173.968 114.942 173.736 115.039 173.494 115.039H167.923C167.56 115.039 167.211 115.185 166.955 115.444C166.698 115.703 166.553 116.055 166.553 116.421V129.365C166.553 129.732 166.698 130.083 166.955 130.342C167.211 130.601 167.56 130.747 167.923 130.747H173.494C173.736 130.747 173.968 130.844 174.14 131.017C174.311 131.19 174.407 131.424 174.407 131.668V183.928C174.407 184.294 174.551 184.646 174.808 184.905C175.065 185.164 175.414 185.309 175.777 185.309H192.366C192.729 185.309 193.077 185.164 193.334 184.905C193.591 184.646 193.735 184.294 193.735 183.928V131.668C193.735 131.424 193.832 131.19 194.003 131.017C194.174 130.844 194.406 130.747 194.649 130.747H205.767C206.13 130.747 206.479 130.601 206.736 130.342C206.993 130.083 207.137 129.732 207.137 129.365V116.467C207.137 116.101 206.993 115.749 206.736 115.49C206.479 115.231 206.13 115.085 205.767 115.085H194.653C194.411 115.085 194.179 114.988 194.007 114.816C193.836 114.643 193.74 114.409 193.74 114.164L193.735 105.14Z" fill="#3E4051"/>
<path d="M612.794 185.296H598.064C597.701 185.296 597.352 185.15 597.095 184.891C596.838 184.632 596.694 184.28 596.694 183.914V176.769C594.269 180.072 591.042 182.689 587.324 184.37C583.519 186.126 579.176 187.003 574.293 187C569.597 187.062 564.94 186.12 560.631 184.236C556.591 182.458 552.966 179.844 549.992 176.562C546.952 173.162 544.585 169.206 543.02 164.908C541.294 160.202 540.435 155.217 540.485 150.2C540.436 145.182 541.294 140.198 543.02 135.492C544.594 131.181 546.987 127.222 550.065 123.838C553.072 120.562 556.715 117.946 560.768 116.154C565.033 114.282 569.642 113.34 574.293 113.39C578.396 113.331 582.469 114.105 586.27 115.666C589.709 117.092 592.789 119.277 595.283 122.059V80.0863C595.283 79.7198 595.428 79.3683 595.684 79.1091C595.941 78.85 596.29 78.7044 596.653 78.7044H612.794C613.158 78.7044 613.506 78.85 613.763 79.1091C614.02 79.3683 614.164 79.7198 614.164 80.0863V183.914C614.164 184.28 614.02 184.632 613.763 184.891C613.506 185.15 613.158 185.296 612.794 185.296V185.296ZM577.676 130.719C575.309 130.705 572.963 131.164 570.772 132.069C568.578 132.966 566.592 134.314 564.941 136.027C563.29 137.74 562.011 139.78 561.184 142.019C559.305 147.226 559.305 152.934 561.184 158.141C562.055 160.404 563.346 162.478 564.987 164.254C566.585 165.959 568.533 167.293 570.695 168.16C572.91 169.063 575.278 169.522 577.667 169.51C579.847 169.504 582.01 169.119 584.06 168.372C586.175 167.614 588.116 166.429 589.763 164.889C591.537 163.218 592.938 161.184 593.872 158.924C594.904 156.507 595.42 153.59 595.42 150.172C595.485 147.207 594.958 144.259 593.872 141.503C592.951 139.216 591.587 137.138 589.859 135.39C588.255 133.81 586.331 132.598 584.22 131.839C582.118 131.09 579.905 130.711 577.676 130.719V130.719Z" fill="#3E4051"/>
<path d="M760.517 113.39C770.369 113.345 779.857 117.14 787 123.985C790.401 127.279 793.13 131.213 795.032 135.565C797.027 140.131 798.036 145.072 797.991 150.062C798.032 155.074 797.024 160.039 795.032 164.632C793.142 169.012 790.413 172.973 787 176.286C779.843 183.113 770.367 186.917 760.517 186.917C750.667 186.917 741.191 183.113 734.034 176.286C730.631 172.981 727.924 169.017 726.075 164.632C724.128 160.027 723.146 155.067 723.189 150.062C723.137 145.198 724.072 140.376 725.937 135.891C727.802 131.407 730.558 127.355 734.034 123.985C737.467 120.683 741.481 118.055 745.869 116.237C750.515 114.314 755.495 113.347 760.517 113.39V113.39ZM760.517 130.894C755.159 130.894 750.815 132.719 747.485 136.367C744.155 140.015 742.481 144.634 742.463 150.223C742.463 155.815 744.137 160.386 747.485 163.936C750.834 167.486 755.178 169.252 760.517 169.233C762.959 169.253 765.38 168.77 767.631 167.814C769.786 166.903 771.728 165.547 773.334 163.835C774.965 162.079 776.255 160.031 777.138 157.796C778.096 155.378 778.576 152.794 778.548 150.191C778.57 147.565 778.091 144.959 777.138 142.516C776.266 140.254 774.975 138.179 773.334 136.404C771.718 134.686 769.779 133.31 767.631 132.355C765.391 131.353 762.966 130.845 760.517 130.862V130.894Z" fill="#3E4051"/>
<path d="M246.949 113.39C256.8 113.345 266.289 117.14 273.432 123.985C276.833 127.279 279.562 131.213 281.464 135.565C283.459 140.131 284.468 145.072 284.423 150.062C284.464 155.074 283.456 160.039 281.464 164.632C279.574 169.012 276.845 172.973 273.432 176.286C266.275 183.114 256.799 186.918 246.949 186.918C237.098 186.918 227.622 183.114 220.465 176.286C217.059 172.982 214.351 169.018 212.502 164.632C210.558 160.027 209.575 155.067 209.616 150.062C209.572 145.08 210.554 140.143 212.502 135.565C214.363 131.208 217.071 127.27 220.465 123.985C227.588 117.108 237.09 113.307 246.949 113.39V113.39ZM246.949 130.894C241.591 130.894 237.247 132.719 233.917 136.367C230.587 140.015 228.913 144.634 228.894 150.223C228.894 155.815 230.569 160.386 233.917 163.936C237.266 167.486 241.609 169.262 246.949 169.266C249.391 169.285 251.812 168.803 254.063 167.847C256.219 166.935 258.163 165.58 259.77 163.867C261.398 162.109 262.688 160.061 263.574 157.828C264.529 155.409 265.007 152.826 264.98 150.223C265.002 147.598 264.524 144.993 263.574 142.549C262.7 140.283 261.41 138.204 259.77 136.422C258.153 134.704 256.212 133.328 254.063 132.373C251.825 131.365 249.4 130.85 246.949 130.862V130.894Z" fill="#3E4051"/>
<path d="M330.846 114.095C332.537 114.074 334.223 114.26 335.869 114.648C336.162 114.725 336.421 114.898 336.606 115.14C336.791 115.382 336.892 115.678 336.892 115.984V130.475C336.892 130.842 336.748 131.193 336.491 131.452C336.234 131.712 335.885 131.857 335.522 131.857H331.819C326.37 131.857 321.909 133.327 318.436 136.266C314.962 139.204 313.226 143.846 313.226 150.191V183.914C313.226 184.28 313.081 184.632 312.825 184.891C312.568 185.15 312.219 185.296 311.856 185.296H295.601C295.237 185.296 294.889 185.15 294.632 184.891C294.375 184.632 294.231 184.28 294.231 183.914V116.329C294.231 115.963 294.375 115.611 294.632 115.352C294.889 115.093 295.237 114.947 295.601 114.947H310.331C310.694 114.947 311.043 115.093 311.299 115.352C311.556 115.611 311.701 115.963 311.701 116.329V123.331C313.934 120.383 316.831 118.015 320.153 116.421C323.501 114.851 327.154 114.056 330.846 114.095Z" fill="#3E4051"/>
<path d="M427.62 113.39C431.428 113.331 435.21 114.032 438.748 115.454C441.904 116.74 444.742 118.709 447.063 121.221C449.372 123.787 451.123 126.812 452.204 130.102C453.422 133.839 454.017 137.754 453.967 141.687V183.914C453.967 184.28 453.822 184.632 453.566 184.891C453.309 185.15 452.96 185.296 452.597 185.296H436.323C435.96 185.296 435.612 185.15 435.355 184.891C435.098 184.632 434.954 184.28 434.954 183.914V144.363C434.954 140.104 433.827 136.765 431.575 134.345C429.322 131.925 426.316 130.716 422.557 130.719C418.706 130.719 415.607 131.928 413.26 134.345C410.913 136.761 409.74 139.96 409.74 143.94V183.914C409.74 184.28 409.595 184.632 409.338 184.891C409.081 185.15 408.733 185.296 408.37 185.296H392.082C391.719 185.296 391.371 185.15 391.114 184.891C390.857 184.632 390.713 184.28 390.713 183.914V144.363C390.713 140.104 389.585 136.765 387.329 134.345C385.073 131.925 382.022 130.716 378.174 130.719C374.32 130.719 371.244 131.928 368.946 134.345C366.648 136.761 365.497 140.101 365.494 144.363V183.914C365.494 184.28 365.35 184.632 365.093 184.891C364.836 185.15 364.487 185.296 364.124 185.296H347.846C347.483 185.296 347.134 185.15 346.877 184.891C346.62 184.632 346.476 184.28 346.476 183.914V116.329C346.476 115.963 346.62 115.611 346.877 115.352C347.134 115.093 347.483 114.947 347.846 114.947H362.576C362.939 114.947 363.288 115.093 363.545 115.352C363.802 115.611 363.946 115.963 363.946 116.329V121.221C366.332 118.72 369.211 116.752 372.398 115.445C375.983 114.017 379.813 113.319 383.667 113.39C388.361 113.39 392.423 114.267 395.854 116.021C399.237 117.738 402.124 120.309 404.233 123.483C407.043 120.384 410.447 117.891 414.237 116.154C418.443 114.254 423.012 113.311 427.62 113.39Z" fill="#3E4051"/>
<path d="M687.331 113.39C694.281 113.39 700.316 114.953 705.436 118.08C710.151 120.943 714.112 124.911 716.984 129.646C717.169 129.938 717.239 130.289 717.18 130.63C717.121 130.972 716.937 131.278 716.664 131.489L705.5 140.241C705.356 140.353 705.191 140.435 705.016 140.483C704.84 140.53 704.657 140.542 704.476 140.517C704.296 140.492 704.123 140.431 703.966 140.338C703.809 140.245 703.673 140.121 703.564 139.974C701.819 137.58 699.719 135.473 697.336 133.727C694.7 131.836 691.412 130.888 687.473 130.885C684.93 130.848 682.409 131.356 680.076 132.378C677.927 133.331 675.988 134.708 674.373 136.427C672.747 138.175 671.478 140.228 670.638 142.47C669.725 144.897 669.271 147.475 669.3 150.071C669.275 152.69 669.729 155.291 670.638 157.745C671.464 160.015 672.734 162.093 674.373 163.858C675.988 165.576 677.927 166.953 680.076 167.907C682.409 168.928 684.93 169.437 687.473 169.399C691.43 169.399 694.718 168.452 697.336 166.557C699.677 164.852 701.737 162.786 703.441 160.435C703.549 160.287 703.685 160.163 703.841 160.069C703.998 159.975 704.171 159.913 704.351 159.887C704.531 159.861 704.715 159.872 704.891 159.919C705.067 159.965 705.232 160.047 705.377 160.159L716.536 168.782C716.812 168.99 716.999 169.295 717.062 169.637C717.125 169.978 717.058 170.331 716.874 170.624C714.064 175.382 710.145 179.376 705.459 182.26C700.336 185.429 694.301 187.015 687.354 187.018C682.309 187.06 677.306 186.094 672.633 184.176C668.203 182.362 664.161 179.704 660.729 176.346C657.255 172.928 654.503 168.837 652.639 164.318C650.774 159.8 649.836 154.947 649.88 150.052C649.835 145.071 650.818 140.134 652.766 135.556C654.621 131.204 657.321 127.269 660.706 123.985C664.156 120.67 668.194 118.041 672.61 116.237C677.283 114.318 682.286 113.35 687.331 113.39V113.39Z" fill="#3E4051"/>
<path d="M50.4829 130.747H34.2048C33.4482 130.747 32.8349 131.366 32.8349 132.129V183.909C32.8349 184.672 33.4482 185.291 34.2048 185.291H50.4829C51.2395 185.291 51.8528 184.672 51.8528 183.909V132.129C51.8528 131.366 51.2395 130.747 50.4829 130.747Z" fill="#35CE99"/>
<path d="M80.3133 115.039H64.0351C63.2786 115.039 62.6653 115.658 62.6653 116.421V183.909C62.6653 184.672 63.2786 185.291 64.0351 185.291H80.3133C81.0698 185.291 81.6831 184.672 81.6831 183.909V116.421C81.6831 115.658 81.0698 115.039 80.3133 115.039Z" fill="#3E4051"/>
<path d="M80.3133 88.4422H64.0351C63.2786 88.4422 62.6653 89.0609 62.6653 89.8241V106.246C62.6653 107.009 63.2786 107.628 64.0351 107.628H80.3133C81.0698 107.628 81.6831 107.009 81.6831 106.246V89.8241C81.6831 89.0609 81.0698 88.4422 80.3133 88.4422Z" fill="#3E4051"/>
<path d="M20.648 154.318H4.36983C3.61329 154.318 3 154.937 3 155.7V183.914C3 184.677 3.61329 185.296 4.36983 185.296H20.648C21.4045 185.296 22.0178 184.677 22.0178 183.914V155.7C22.0178 154.937 21.4045 154.318 20.648 154.318Z" fill="#8158C9"/>
<path d="M643.195 166.11H626.917C626.161 166.11 625.547 166.729 625.547 167.492V183.914C625.547 184.677 626.161 185.296 626.917 185.296H643.195C643.952 185.296 644.565 184.677 644.565 183.914V167.492C644.565 166.729 643.952 166.11 643.195 166.11Z" fill="#3E4051"/>
</g>
<defs>
<clipPath id="clip0">
<rect width="795" height="110" fill="white" transform="translate(3 77)"/>
</clipPath>
</defs>
</svg>
