<svg width="802" height="427" viewBox="0 0 802 427" fill="none" xmlns="http://www.w3.org/2000/svg">
<rect width="802" height="426.397" fill="#3E4051"/>
<g clip-path="url(#clip0)">
<path d="M189.361 198.112C192.335 198.072 195.286 198.633 198.046 199.763C200.544 200.791 202.791 202.366 204.628 204.377C206.459 206.435 207.861 208.853 208.748 211.482C209.745 214.464 210.233 217.599 210.192 220.75V254.531C210.192 254.824 210.078 255.106 209.875 255.313C209.672 255.52 209.396 255.637 209.109 255.637H196.329C196.042 255.637 195.766 255.52 195.563 255.313C195.36 255.106 195.246 254.824 195.246 254.531V222.777C195.246 219.519 194.319 216.886 192.464 214.876C190.61 212.866 188.124 211.862 185.006 211.862C181.879 211.862 179.353 212.866 177.429 214.876C175.505 216.886 174.542 219.519 174.542 222.777V254.531C174.542 254.824 174.428 255.106 174.225 255.313C174.022 255.52 173.747 255.637 173.46 255.637H160.608C160.32 255.637 160.045 255.52 159.842 255.313C159.639 255.106 159.525 254.824 159.525 254.531V200.464C159.525 200.17 159.639 199.889 159.842 199.682C160.045 199.474 160.32 199.358 160.608 199.358H172.244C172.531 199.358 172.806 199.474 173.009 199.682C173.212 199.889 173.326 200.17 173.326 200.464V204.587C175.312 202.58 177.655 200.977 180.229 199.867C183.124 198.652 186.232 198.055 189.361 198.112V198.112Z" fill="white"/>
<path d="M479.242 198.112C482.865 198.066 486.462 198.762 489.817 200.161C492.881 201.439 495.663 203.332 497.997 205.729C500.277 208.103 502.058 210.929 503.229 214.032C504.47 217.292 505.094 220.763 505.069 224.261C505.072 225.822 504.959 227.38 504.734 228.923C504.575 230.029 504.412 230.972 504.254 231.786C504.204 232.041 504.068 232.269 503.87 232.431C503.672 232.593 503.425 232.68 503.171 232.675H465.325C466.287 236.315 468.143 239.083 470.892 240.977C473.642 242.871 477.017 243.815 481.017 243.807C483.816 243.839 486.595 243.318 489.2 242.274C491.401 241.359 493.496 240.197 495.446 238.81C495.568 238.725 495.705 238.667 495.85 238.638C495.994 238.61 496.143 238.611 496.287 238.643C496.431 238.675 496.567 238.737 496.686 238.825C496.806 238.912 496.907 239.024 496.983 239.153L502.035 247.761C502.168 247.99 502.217 248.26 502.171 248.522C502.125 248.784 501.988 249.02 501.786 249.187C498.938 251.514 495.769 253.397 492.383 254.778C488.624 256.278 484.619 257.029 480.584 256.989C476.434 257.032 472.314 256.26 468.449 254.715C464.884 253.294 461.631 251.164 458.877 248.45C456.201 245.794 454.063 242.626 452.584 239.127C451.044 235.465 450.267 231.516 450.304 227.53C450.23 221.729 451.861 216.039 454.986 211.195C458.112 206.351 462.588 202.575 467.836 200.356C471.452 198.834 475.331 198.07 479.242 198.112V198.112ZM478.682 210.505C475.6 210.44 472.598 211.51 470.225 213.519C467.848 215.527 466.215 218.311 465.325 221.874H490.582C490.431 218.235 489.206 215.431 486.909 213.46C484.607 211.49 481.685 210.437 478.682 210.498V210.505Z" fill="white"/>
<path d="M237.722 191.512C237.722 188.255 238.444 185.985 240.089 184.691C241.735 183.398 244.17 182.756 247.508 182.756C248.62 182.765 249.732 182.832 250.838 182.955C250.99 182.973 251.144 182.957 251.289 182.909C251.434 182.861 251.568 182.782 251.682 182.678C251.795 182.574 251.886 182.446 251.947 182.303C252.009 182.16 252.041 182.006 252.04 181.85V171.053C252.04 170.816 251.966 170.585 251.828 170.395C251.69 170.205 251.496 170.064 251.275 169.995C250.337 169.715 249.382 169.496 248.417 169.339C246.887 169.102 245.342 168.989 243.795 169C237.34 169 232.137 170.725 228.28 174.159C224.422 177.594 222.449 182.933 222.449 190.134V198.695C222.449 198.89 222.373 199.077 222.237 199.216C222.102 199.354 221.918 199.432 221.727 199.432H217.325C217.038 199.432 216.763 199.548 216.56 199.755C216.357 199.963 216.243 200.244 216.243 200.537V210.892C216.243 211.185 216.357 211.467 216.56 211.674C216.763 211.881 217.038 211.998 217.325 211.998H221.727C221.918 211.998 222.102 212.075 222.237 212.214C222.373 212.352 222.449 212.539 222.449 212.735V254.542C222.449 254.835 222.563 255.116 222.766 255.324C222.969 255.531 223.244 255.648 223.531 255.648H236.64C236.927 255.648 237.202 255.531 237.405 255.324C237.608 255.116 237.722 254.835 237.722 254.542V212.735C237.722 212.539 237.798 212.352 237.934 212.214C238.069 212.075 238.252 211.998 238.444 211.998H247.23C247.517 211.998 247.792 211.881 247.995 211.674C248.198 211.467 248.312 211.185 248.312 210.892V200.574C248.312 200.281 248.198 200 247.995 199.792C247.792 199.585 247.517 199.468 247.23 199.468H238.447C238.256 199.468 238.073 199.391 237.937 199.253C237.802 199.114 237.726 198.927 237.726 198.731L237.722 191.512Z" fill="white"/>
<path d="M568.869 255.637H557.229C556.942 255.637 556.667 255.52 556.464 255.313C556.261 255.105 556.147 254.824 556.147 254.531V248.815C554.231 251.457 551.681 253.551 548.743 254.896C545.736 256.301 542.303 257.002 538.445 257C534.734 257.05 531.055 256.296 527.649 254.789C524.457 253.367 521.592 251.275 519.242 248.65C516.84 245.929 514.97 242.765 513.732 239.326C512.368 235.562 511.69 231.574 511.73 227.56C511.69 223.546 512.369 219.558 513.732 215.793C514.976 212.345 516.867 209.178 519.3 206.47C521.676 203.849 524.555 201.757 527.758 200.323C531.128 198.826 534.77 198.072 538.445 198.112C541.687 198.065 544.906 198.684 547.909 199.933C550.627 201.074 553.061 202.821 555.032 205.048V171.469C555.032 171.176 555.146 170.895 555.349 170.687C555.552 170.48 555.827 170.364 556.114 170.364H568.869C569.157 170.364 569.432 170.48 569.635 170.687C569.838 170.895 569.952 171.176 569.952 171.469V254.531C569.952 254.824 569.838 255.105 569.635 255.313C569.432 255.52 569.157 255.637 568.869 255.637V255.637ZM541.119 211.976C539.248 211.964 537.394 212.331 535.663 213.055C533.929 213.773 532.359 214.851 531.055 216.222C529.751 217.592 528.739 219.224 528.086 221.015C526.601 225.181 526.601 229.747 528.086 233.913C528.775 235.723 529.795 237.383 531.092 238.803C532.354 240.168 533.894 241.234 535.602 241.928C537.352 242.651 539.224 243.017 541.112 243.008C542.834 243.003 544.543 242.695 546.163 242.098C547.835 241.491 549.368 240.543 550.67 239.312C552.072 237.974 553.179 236.347 553.917 234.539C554.733 232.606 555.14 230.272 555.14 227.538C555.191 225.166 554.775 222.807 553.917 220.602C553.189 218.773 552.111 217.11 550.745 215.712C549.478 214.448 547.958 213.478 546.289 212.871C544.629 212.272 542.88 211.969 541.119 211.976V211.976Z" fill="white"/>
<path d="M685.602 198.112C693.388 198.076 700.885 201.112 706.53 206.588C709.217 209.223 711.374 212.371 712.877 215.852C714.454 219.504 715.251 223.458 715.215 227.449C715.247 231.459 714.451 235.431 712.877 239.105C711.384 242.61 709.227 245.778 706.53 248.428C700.874 253.89 693.386 256.933 685.602 256.933C677.819 256.933 670.331 253.89 664.675 248.428C661.986 245.784 659.847 242.613 658.386 239.105C656.848 235.422 656.071 231.453 656.105 227.449C656.064 223.559 656.803 219.701 658.277 216.113C659.751 212.525 661.928 209.284 664.675 206.588C667.388 203.946 670.56 201.844 674.027 200.39C677.699 198.852 681.634 198.077 685.602 198.112V198.112ZM685.602 212.116C681.369 212.116 677.936 213.575 675.305 216.493C672.673 219.412 671.35 223.107 671.336 227.578C671.336 232.052 672.659 235.709 675.305 238.549C677.951 241.389 681.383 242.801 685.602 242.787C687.532 242.802 689.445 242.416 691.224 241.652C692.927 240.922 694.462 239.838 695.731 238.468C697.02 237.063 698.039 235.425 698.736 233.636C699.494 231.702 699.873 229.635 699.851 227.552C699.869 225.452 699.49 223.368 698.736 221.413C698.048 219.603 697.027 217.943 695.731 216.523C694.454 215.149 692.922 214.048 691.224 213.284C689.454 212.483 687.538 212.076 685.602 212.09V212.116Z" fill="white"/>
<path d="M279.772 198.112C287.557 198.076 295.055 201.112 300.7 206.588C303.387 209.224 305.543 212.371 307.047 215.852C308.624 219.505 309.421 223.458 309.385 227.449C309.417 231.459 308.621 235.431 307.047 239.105C305.553 242.61 303.396 245.778 300.7 248.429C295.045 253.891 287.556 256.935 279.772 256.935C271.988 256.935 264.5 253.891 258.845 248.429C256.153 245.786 254.013 242.615 252.552 239.105C251.016 235.421 250.239 231.453 250.272 227.449C250.236 223.464 251.013 219.515 252.552 215.852C254.023 212.366 256.162 209.216 258.845 206.588C264.473 201.087 271.982 198.046 279.772 198.112V198.112ZM279.772 212.116C275.539 212.116 272.106 213.575 269.474 216.494C266.843 219.412 265.52 223.107 265.505 227.578C265.505 232.052 266.828 235.709 269.474 238.549C272.12 241.389 275.553 242.81 279.772 242.813C281.702 242.828 283.615 242.442 285.394 241.678C287.098 240.948 288.634 239.864 289.904 238.494C291.191 237.088 292.21 235.449 292.91 233.662C293.665 231.728 294.042 229.661 294.021 227.578C294.038 225.478 293.661 223.394 292.91 221.439C292.219 219.626 291.2 217.963 289.904 216.538C288.626 215.164 287.093 214.063 285.394 213.299C283.625 212.492 281.709 212.08 279.772 212.09V212.116Z" fill="white"/>
<path d="M346.07 198.676C347.405 198.659 348.738 198.808 350.039 199.118C350.27 199.18 350.475 199.319 350.621 199.512C350.767 199.705 350.847 199.943 350.847 200.187V211.78C350.847 212.073 350.733 212.355 350.53 212.562C350.327 212.769 350.052 212.886 349.765 212.886H346.838C342.532 212.886 339.007 214.061 336.263 216.412C333.518 218.764 332.146 222.477 332.146 227.552V254.531C332.146 254.824 332.032 255.105 331.829 255.313C331.626 255.52 331.35 255.637 331.063 255.637H318.218C317.931 255.637 317.655 255.52 317.452 255.313C317.249 255.105 317.135 254.824 317.135 254.531V200.463C317.135 200.17 317.249 199.889 317.452 199.682C317.655 199.474 317.931 199.358 318.218 199.358H329.858C330.145 199.358 330.42 199.474 330.623 199.682C330.826 199.889 330.94 200.17 330.94 200.463V206.065C332.705 203.707 334.995 201.812 337.619 200.537C340.265 199.281 343.152 198.645 346.07 198.676Z" fill="white"/>
<path d="M422.542 198.112C425.551 198.064 428.54 198.625 431.335 199.763C433.829 200.792 436.072 202.367 437.906 204.377C439.731 206.43 441.115 208.85 441.969 211.482C442.931 214.471 443.401 217.603 443.361 220.75V254.531C443.361 254.824 443.247 255.105 443.044 255.313C442.841 255.52 442.566 255.636 442.279 255.636H429.419C429.132 255.636 428.857 255.52 428.654 255.313C428.451 255.105 428.337 254.824 428.337 254.531V222.891C428.337 219.483 427.447 216.812 425.667 214.876C423.887 212.94 421.511 211.973 418.541 211.975C415.498 211.975 413.049 212.942 411.194 214.876C409.34 216.809 408.412 219.368 408.412 222.552V254.531C408.412 254.824 408.298 255.105 408.095 255.313C407.892 255.52 407.617 255.636 407.33 255.636H394.459C394.172 255.636 393.897 255.52 393.694 255.313C393.491 255.105 393.377 254.824 393.377 254.531V222.891C393.377 219.483 392.486 216.812 390.703 214.876C388.921 212.94 386.509 211.973 383.469 211.975C380.423 211.975 377.993 212.942 376.177 214.876C374.36 216.809 373.451 219.481 373.449 222.891V254.531C373.449 254.824 373.335 255.105 373.132 255.313C372.929 255.52 372.653 255.636 372.366 255.636H359.503C359.216 255.636 358.941 255.52 358.738 255.313C358.535 255.105 358.421 254.824 358.421 254.531V200.463C358.421 200.17 358.535 199.889 358.738 199.682C358.941 199.474 359.216 199.358 359.503 199.358H371.143C371.43 199.358 371.706 199.474 371.909 199.682C372.112 199.889 372.226 200.17 372.226 200.463V204.377C374.111 202.376 376.386 200.802 378.904 199.756C381.738 198.613 384.764 198.055 387.809 198.112C391.519 198.112 394.729 198.814 397.44 200.216C400.113 201.591 402.394 203.647 404.061 206.186C406.282 203.707 408.971 201.713 411.966 200.323C415.29 198.803 418.901 198.048 422.542 198.112Z" fill="white"/>
<path d="M627.77 198.112C633.262 198.112 638.031 199.363 642.077 201.864C645.802 204.155 648.932 207.329 651.202 211.117C651.348 211.35 651.404 211.631 651.357 211.904C651.31 212.177 651.165 212.422 650.949 212.591L642.127 219.593C642.013 219.682 641.883 219.748 641.745 219.786C641.606 219.824 641.461 219.833 641.318 219.813C641.176 219.794 641.039 219.745 640.915 219.67C640.791 219.596 640.683 219.497 640.597 219.379C639.219 217.464 637.559 215.779 635.676 214.382C633.593 212.869 630.995 212.111 627.882 212.108C625.873 212.078 623.88 212.485 622.037 213.302C620.338 214.065 618.806 215.166 617.53 216.541C616.245 217.94 615.242 219.583 614.578 221.376C613.857 223.318 613.499 225.38 613.521 227.457C613.502 229.552 613.86 231.633 614.578 233.596C615.231 235.412 616.235 237.075 617.53 238.486C618.806 239.861 620.338 240.962 622.037 241.725C623.88 242.542 625.873 242.949 627.882 242.919C631.009 242.919 633.607 242.161 635.676 240.646C637.526 239.282 639.154 237.629 640.5 235.748C640.585 235.63 640.693 235.53 640.816 235.455C640.94 235.38 641.077 235.33 641.219 235.31C641.362 235.289 641.507 235.298 641.646 235.335C641.785 235.372 641.916 235.438 642.03 235.527L650.848 242.426C651.066 242.592 651.214 242.836 651.264 243.109C651.313 243.382 651.26 243.665 651.115 243.9C648.894 247.705 645.798 250.901 642.095 253.208C638.046 255.743 633.277 257.012 627.788 257.015C623.802 257.048 619.848 256.275 616.155 254.741C612.654 253.29 609.461 251.163 606.749 248.476C604.003 245.743 601.829 242.47 600.355 238.855C598.882 235.24 598.14 231.357 598.175 227.442C598.14 223.457 598.917 219.507 600.456 215.845C601.922 212.363 604.056 209.216 606.731 206.588C609.456 203.936 612.648 201.833 616.137 200.39C619.83 198.854 623.783 198.08 627.77 198.112V198.112Z" fill="white"/>
<path d="M124.522 211.998H111.659C111.061 211.998 110.576 212.493 110.576 213.103V254.527C110.576 255.138 111.061 255.633 111.659 255.633H124.522C125.12 255.633 125.604 255.138 125.604 254.527V213.103C125.604 212.493 125.12 211.998 124.522 211.998Z" fill="#35CE99"/>
<path d="M148.094 199.431H135.231C134.633 199.431 134.148 199.926 134.148 200.537V254.527C134.148 255.138 134.633 255.632 135.231 255.632H148.094C148.692 255.632 149.177 255.138 149.177 254.527V200.537C149.177 199.926 148.692 199.431 148.094 199.431Z" fill="white"/>
<path d="M148.094 178.154H135.231C134.633 178.154 134.148 178.649 134.148 179.259V192.396C134.148 193.007 134.633 193.502 135.231 193.502H148.094C148.692 193.502 149.177 193.007 149.177 192.396V179.259C149.177 178.649 148.692 178.154 148.094 178.154Z" fill="white"/>
<path d="M100.946 230.854H88.0825C87.4846 230.854 87 231.349 87 231.96V254.531C87 255.141 87.4846 255.636 88.0825 255.636H100.946C101.544 255.636 102.028 255.141 102.028 254.531V231.96C102.028 231.349 101.544 230.854 100.946 230.854Z" fill="#8158C9"/>
<path d="M592.893 240.288H580.03C579.432 240.288 578.947 240.783 578.947 241.394V254.531C578.947 255.142 579.432 255.636 580.03 255.636H592.893C593.491 255.636 593.976 255.142 593.976 254.531V241.394C593.976 240.783 593.491 240.288 592.893 240.288Z" fill="white"/>
</g>
<defs>
<clipPath id="clip0">
<rect width="628.222" height="88" fill="white" transform="translate(87 169)"/>
</clipPath>
</defs>
</svg>
