<svg width="802" height="427" viewBox="0 0 802 427" fill="none" xmlns="http://www.w3.org/2000/svg">
<rect width="802" height="426.397" fill="white"/>
<g clip-path="url(#clip0)">
<path d="M189.325 198.112C192.297 198.072 195.248 198.633 198.007 199.763C200.504 200.791 202.75 202.366 204.586 204.377C206.417 206.435 207.818 208.853 208.705 211.482C209.702 214.464 210.19 217.599 210.148 220.75V254.531C210.148 254.824 210.034 255.106 209.831 255.313C209.628 255.52 209.353 255.637 209.066 255.637H196.29C196.003 255.637 195.728 255.52 195.525 255.313C195.322 255.106 195.208 254.824 195.208 254.531V222.777C195.208 219.519 194.281 216.886 192.427 214.876C190.573 212.866 188.088 211.862 184.972 211.862C181.846 211.862 179.321 212.866 177.397 214.876C175.473 216.886 174.512 219.519 174.512 222.777V254.531C174.512 254.824 174.398 255.106 174.195 255.313C173.992 255.52 173.716 255.637 173.429 255.637H160.582C160.295 255.637 160.019 255.52 159.816 255.313C159.613 255.106 159.499 254.824 159.499 254.531V200.464C159.499 200.17 159.613 199.889 159.816 199.682C160.019 199.474 160.295 199.358 160.582 199.358H172.214C172.501 199.358 172.776 199.474 172.979 199.682C173.182 199.889 173.296 200.17 173.296 200.464V204.587C175.281 202.58 177.623 200.977 180.196 199.867C183.09 198.652 186.197 198.055 189.325 198.112V198.112Z" fill="#3E4051"/>
<path d="M479.103 198.112C482.725 198.066 486.32 198.762 489.675 200.161C492.738 201.439 495.518 203.333 497.852 205.729C500.131 208.103 501.911 210.929 503.082 214.032C504.322 217.292 504.946 220.764 504.921 224.262C504.924 225.822 504.811 227.38 504.586 228.923C504.427 230.029 504.265 230.972 504.106 231.787C504.056 232.041 503.921 232.269 503.723 232.431C503.525 232.594 503.278 232.68 503.024 232.675H465.191C466.153 236.316 468.008 239.083 470.756 240.977C473.505 242.871 476.879 243.815 480.877 243.807C483.675 243.839 486.453 243.319 489.058 242.274C491.258 241.359 493.352 240.197 495.302 238.81C495.423 238.726 495.56 238.667 495.705 238.638C495.85 238.61 495.998 238.611 496.142 238.644C496.286 238.676 496.422 238.737 496.542 238.825C496.661 238.913 496.762 239.024 496.838 239.153L501.888 247.761C502.021 247.99 502.07 248.26 502.024 248.522C501.978 248.784 501.842 249.02 501.639 249.188C498.792 251.514 495.625 253.397 492.239 254.778C488.482 256.279 484.478 257.029 480.445 256.989C476.296 257.032 472.178 256.26 468.314 254.715C464.751 253.294 461.498 251.165 458.745 248.451C456.071 245.794 453.933 242.626 452.455 239.127C450.915 235.465 450.139 231.516 450.175 227.53C450.101 221.729 451.732 216.039 454.856 211.195C457.98 206.351 462.455 202.575 467.701 200.356C471.316 198.834 475.193 198.071 479.103 198.112V198.112ZM478.544 210.505C475.463 210.44 472.462 211.51 470.089 213.52C467.713 215.527 466.081 218.311 465.191 221.874H490.439C490.288 218.235 489.064 215.431 486.768 213.461C484.467 211.49 481.545 210.438 478.544 210.498V210.505Z" fill="#3E4051"/>
<path d="M237.669 191.512C237.669 188.255 238.39 185.985 240.035 184.691C241.68 183.398 244.115 182.756 247.451 182.756C248.563 182.765 249.674 182.832 250.78 182.955C250.932 182.973 251.086 182.957 251.231 182.909C251.376 182.861 251.51 182.782 251.624 182.678C251.737 182.574 251.827 182.446 251.889 182.303C251.951 182.16 251.982 182.006 251.981 181.85V171.053C251.981 170.816 251.907 170.585 251.77 170.395C251.632 170.205 251.438 170.064 251.217 169.995C250.279 169.715 249.325 169.496 248.36 169.339C246.831 169.102 245.286 168.989 243.739 169C237.287 169 232.085 170.725 228.23 174.159C224.374 177.594 222.401 182.933 222.401 190.134V198.695C222.401 198.89 222.325 199.077 222.19 199.216C222.054 199.354 221.871 199.432 221.679 199.432H217.279C216.992 199.432 216.717 199.548 216.514 199.755C216.311 199.963 216.197 200.244 216.197 200.537V210.892C216.197 211.185 216.311 211.467 216.514 211.674C216.717 211.881 216.992 211.998 217.279 211.998H221.679C221.871 211.998 222.054 212.075 222.19 212.214C222.325 212.352 222.401 212.539 222.401 212.735V254.542C222.401 254.835 222.515 255.116 222.718 255.324C222.921 255.531 223.196 255.648 223.483 255.648H236.587C236.874 255.648 237.149 255.531 237.352 255.324C237.555 255.116 237.669 254.835 237.669 254.542V212.735C237.669 212.539 237.745 212.352 237.88 212.214C238.016 212.075 238.199 211.998 238.39 211.998H247.173C247.46 211.998 247.735 211.881 247.938 211.674C248.141 211.467 248.255 211.185 248.255 210.892V200.574C248.255 200.281 248.141 200 247.938 199.792C247.735 199.585 247.46 199.468 247.173 199.468H238.394C238.203 199.468 238.019 199.391 237.884 199.253C237.749 199.114 237.673 198.927 237.673 198.731L237.669 191.512Z" fill="#3E4051"/>
<path d="M568.699 255.637H557.063C556.776 255.637 556.501 255.52 556.298 255.313C556.095 255.105 555.981 254.824 555.981 254.531V248.815C554.065 251.457 551.516 253.551 548.58 254.896C545.574 256.301 542.142 257.002 538.285 257C534.576 257.05 530.898 256.296 527.493 254.789C524.302 253.367 521.439 251.275 519.089 248.65C516.688 245.929 514.818 242.765 513.581 239.326C512.218 235.562 511.54 231.574 511.58 227.56C511.54 223.546 512.219 219.558 513.581 215.793C514.825 212.345 516.715 209.178 519.147 206.47C521.522 203.849 524.4 201.757 527.602 200.323C530.971 198.826 534.611 198.072 538.285 198.112C541.527 198.065 544.744 198.684 547.746 199.933C550.463 201.074 552.896 202.821 554.866 205.048V171.469C554.866 171.176 554.98 170.895 555.183 170.687C555.386 170.48 555.662 170.364 555.948 170.364H568.699C568.986 170.364 569.261 170.48 569.464 170.687C569.667 170.895 569.781 171.176 569.781 171.469V254.531C569.781 254.824 569.667 255.105 569.464 255.313C569.261 255.52 568.986 255.637 568.699 255.637V255.637ZM540.958 211.976C539.088 211.964 537.235 212.331 535.504 213.055C533.771 213.773 532.202 214.851 530.898 216.222C529.594 217.592 528.583 219.224 527.93 221.015C526.446 225.181 526.446 229.747 527.93 233.913C528.618 235.723 529.638 237.383 530.934 238.803C532.197 240.168 533.735 241.234 535.443 241.928C537.193 242.651 539.064 243.017 540.951 243.008C542.673 243.003 544.381 242.695 546.001 242.098C547.672 241.491 549.205 240.543 550.506 239.312C551.907 237.974 553.014 236.348 553.752 234.539C554.567 232.606 554.975 230.272 554.975 227.538C555.026 225.166 554.61 222.807 553.752 220.602C553.024 218.773 551.946 217.11 550.581 215.712C549.315 214.448 547.795 213.478 546.127 212.871C544.467 212.272 542.718 211.969 540.958 211.976V211.976Z" fill="#3E4051"/>
<path d="M685.391 198.112C693.173 198.076 700.668 201.112 706.311 206.588C708.997 209.223 711.153 212.371 712.655 215.852C714.232 219.504 715.028 223.458 714.993 227.449C715.025 231.459 714.229 235.431 712.655 239.105C711.163 242.61 709.006 245.778 706.311 248.428C700.657 253.89 693.171 256.933 685.391 256.933C677.61 256.933 670.124 253.89 664.47 248.428C661.782 245.784 659.644 242.613 658.184 239.105C656.646 235.422 655.87 231.453 655.904 227.449C655.863 223.559 656.601 219.701 658.075 216.113C659.548 212.525 661.725 209.284 664.47 206.588C667.183 203.946 670.353 201.844 673.82 200.39C677.49 198.852 681.424 198.077 685.391 198.112V198.112ZM685.391 212.116C681.158 212.116 677.727 213.575 675.096 216.493C672.466 219.412 671.143 223.107 671.129 227.578C671.129 232.052 672.451 235.709 675.096 238.549C677.742 241.389 681.173 242.801 685.391 242.787C687.32 242.802 689.232 242.416 691.01 241.652C692.712 240.922 694.247 239.838 695.515 238.468C696.804 237.063 697.823 235.425 698.52 233.636C699.277 231.702 699.656 229.635 699.634 227.552C699.652 225.452 699.273 223.368 698.52 221.413C697.831 219.603 696.812 217.943 695.515 216.523C694.239 215.149 692.707 214.048 691.01 213.284C689.241 212.483 687.326 212.076 685.391 212.09V212.116Z" fill="#3E4051"/>
<path d="M279.704 198.112C287.486 198.076 294.982 201.112 300.624 206.588C303.311 209.223 305.466 212.371 306.969 215.852C308.545 219.505 309.342 223.458 309.306 227.449C309.339 231.459 308.542 235.431 306.969 239.105C305.476 242.61 303.32 245.778 300.624 248.429C294.971 253.891 287.485 256.935 279.704 256.935C271.923 256.935 264.437 253.891 258.784 248.429C256.093 245.786 253.954 242.614 252.493 239.105C250.958 235.421 250.182 231.453 250.214 227.449C250.178 223.464 250.955 219.515 252.493 215.852C253.964 212.366 256.103 209.216 258.784 206.588C264.411 201.087 271.916 198.046 279.704 198.112V198.112ZM279.704 212.116C275.472 212.116 272.041 213.575 269.41 216.494C266.779 219.412 265.457 223.107 265.442 227.578C265.442 232.052 266.765 235.709 269.41 238.549C272.055 241.389 275.486 242.81 279.704 242.812C281.633 242.828 283.545 242.442 285.324 241.677C287.027 240.948 288.563 239.864 289.832 238.494C291.118 237.087 292.137 235.449 292.837 233.662C293.591 231.728 293.969 229.661 293.948 227.578C293.965 225.478 293.588 223.394 292.837 221.439C292.147 219.626 291.127 217.963 289.832 216.538C288.554 215.163 287.022 214.062 285.324 213.299C283.556 212.492 281.64 212.08 279.704 212.09V212.116Z" fill="#3E4051"/>
<path d="M345.978 198.676C347.313 198.659 348.645 198.808 349.946 199.118C350.177 199.18 350.382 199.319 350.528 199.512C350.674 199.705 350.753 199.943 350.754 200.187V211.78C350.754 212.073 350.64 212.355 350.437 212.562C350.234 212.769 349.959 212.886 349.672 212.886H346.746C342.442 212.886 338.918 214.061 336.174 216.412C333.431 218.764 332.059 222.477 332.059 227.552V254.531C332.059 254.824 331.945 255.105 331.742 255.313C331.539 255.52 331.264 255.637 330.977 255.637H318.136C317.849 255.637 317.574 255.52 317.371 255.313C317.168 255.105 317.054 254.824 317.054 254.531V200.463C317.054 200.17 317.168 199.889 317.371 199.682C317.574 199.474 317.849 199.358 318.136 199.358H329.772C330.059 199.358 330.334 199.474 330.537 199.682C330.74 199.889 330.854 200.17 330.854 200.463V206.065C332.618 203.707 334.907 201.812 337.531 200.537C340.175 199.281 343.062 198.645 345.978 198.676Z" fill="#3E4051"/>
<path d="M422.423 198.112C425.431 198.064 428.419 198.625 431.213 199.763C433.707 200.792 435.949 202.367 437.782 204.377C439.606 206.43 440.989 208.85 441.843 211.482C442.805 214.471 443.275 217.603 443.235 220.75V254.531C443.235 254.824 443.121 255.105 442.918 255.313C442.716 255.52 442.44 255.636 442.153 255.636H429.298C429.011 255.636 428.736 255.52 428.533 255.313C428.33 255.105 428.216 254.824 428.216 254.531V222.891C428.216 219.483 427.326 216.812 425.547 214.876C423.768 212.94 421.393 211.973 418.423 211.975C415.381 211.975 412.933 212.942 411.08 214.876C409.226 216.809 408.299 219.368 408.299 222.552V254.531C408.299 254.824 408.185 255.105 407.982 255.313C407.779 255.52 407.504 255.636 407.217 255.636H394.351C394.064 255.636 393.788 255.52 393.585 255.313C393.382 255.105 393.268 254.824 393.268 254.531V222.891C393.268 219.483 392.378 216.812 390.596 214.876C388.814 212.94 386.403 211.973 383.364 211.975C380.32 211.975 377.89 212.942 376.074 214.876C374.259 216.809 373.35 219.481 373.347 222.891V254.531C373.347 254.824 373.233 255.105 373.03 255.313C372.828 255.52 372.552 255.636 372.265 255.636H359.407C359.12 255.636 358.844 255.52 358.641 255.313C358.438 255.105 358.324 254.824 358.324 254.531V200.463C358.324 200.17 358.438 199.889 358.641 199.682C358.844 199.474 359.12 199.358 359.407 199.358H371.043C371.33 199.358 371.605 199.474 371.808 199.682C372.011 199.889 372.125 200.17 372.125 200.463V204.377C374.009 202.376 376.284 200.802 378.801 199.756C381.633 198.613 384.659 198.055 387.703 198.112C391.411 198.112 394.62 198.814 397.33 200.216C400.003 201.591 402.283 203.647 403.949 206.186C406.169 203.707 408.857 201.713 411.851 200.323C415.174 198.803 418.783 198.048 422.423 198.112Z" fill="#3E4051"/>
<path d="M627.579 198.112C633.069 198.112 637.836 199.363 641.88 201.864C645.605 204.154 648.734 207.328 651.002 211.117C651.149 211.35 651.204 211.631 651.157 211.904C651.11 212.177 650.965 212.422 650.75 212.591L641.931 219.593C641.817 219.682 641.687 219.748 641.548 219.786C641.409 219.824 641.265 219.833 641.122 219.813C640.98 219.793 640.843 219.745 640.719 219.67C640.595 219.596 640.487 219.497 640.401 219.379C639.023 217.464 637.364 215.778 635.482 214.382C633.399 212.868 630.802 212.111 627.691 212.108C625.682 212.078 623.69 212.485 621.847 213.302C620.15 214.065 618.618 215.166 617.342 216.541C616.058 217.94 615.055 219.582 614.392 221.376C613.671 223.318 613.313 225.38 613.335 227.457C613.316 229.552 613.674 231.633 614.392 233.596C615.044 235.412 616.048 237.075 617.342 238.486C618.618 239.861 620.15 240.962 621.847 241.725C623.69 242.542 625.682 242.949 627.691 242.919C630.817 242.919 633.414 242.161 635.482 240.645C637.331 239.282 638.958 237.629 640.304 235.748C640.389 235.63 640.497 235.53 640.621 235.455C640.744 235.38 640.881 235.33 641.023 235.31C641.166 235.289 641.311 235.298 641.45 235.335C641.589 235.372 641.719 235.437 641.833 235.527L650.649 242.425C650.866 242.592 651.015 242.836 651.064 243.109C651.114 243.382 651.061 243.664 650.916 243.899C648.696 247.705 645.6 250.901 641.898 253.208C637.851 255.743 633.084 257.012 627.597 257.015C623.612 257.048 619.66 256.275 615.968 254.741C612.468 253.29 609.276 251.163 606.565 248.476C603.821 245.743 601.647 242.47 600.174 238.855C598.701 235.24 597.96 231.357 597.995 227.442C597.959 223.456 598.736 219.507 600.274 215.845C601.74 212.363 603.873 209.215 606.547 206.588C609.272 203.936 612.462 201.833 615.95 200.39C619.641 198.854 623.593 198.08 627.579 198.112V198.112Z" fill="#3E4051"/>
<path d="M124.508 211.998H111.65C111.052 211.998 110.568 212.493 110.568 213.103V254.527C110.568 255.138 111.052 255.633 111.65 255.633H124.508C125.106 255.633 125.591 255.138 125.591 254.527V213.103C125.591 212.493 125.106 211.998 124.508 211.998Z" fill="#35CE99"/>
<path d="M148.073 199.431H135.214C134.616 199.431 134.132 199.926 134.132 200.537V254.527C134.132 255.138 134.616 255.632 135.214 255.632H148.073C148.67 255.632 149.155 255.138 149.155 254.527V200.537C149.155 199.926 148.67 199.431 148.073 199.431Z" fill="#3E4051"/>
<path d="M148.073 178.154H135.214C134.616 178.154 134.132 178.649 134.132 179.259V192.396C134.132 193.007 134.616 193.502 135.214 193.502H148.073C148.67 193.502 149.155 193.007 149.155 192.396V179.259C149.155 178.649 148.67 178.154 148.073 178.154Z" fill="#3E4051"/>
<path d="M100.941 230.854H88.0821C87.4845 230.854 87 231.349 87 231.96V254.531C87 255.141 87.4845 255.636 88.0821 255.636H100.941C101.538 255.636 102.023 255.141 102.023 254.531V231.96C102.023 231.349 101.538 230.854 100.941 230.854Z" fill="#8158C9"/>
<path d="M592.714 240.288H579.855C579.258 240.288 578.773 240.783 578.773 241.394V254.531C578.773 255.142 579.258 255.637 579.855 255.637H592.714C593.312 255.637 593.796 255.142 593.796 254.531V241.394C593.796 240.783 593.312 240.288 592.714 240.288Z" fill="#3E4051"/>
</g>
<defs>
<clipPath id="clip0">
<rect width="628" height="88" fill="white" transform="translate(87 169)"/>
</clipPath>
</defs>
</svg>
